<?xml version="1.0" encoding="utf-8"?>
<!-- Generator: Adobe Illustrator 25.4.1, SVG Export Plug-In . SVG Version: 6.00 Build 0)  -->
<svg version="1.1" id="Warstwa_1" xmlns="http://www.w3.org/2000/svg" xmlns:xlink="http://www.w3.org/1999/xlink" x="0px" y="0px"
	 width="80px" height="75px" viewBox="0 0 80 75" style="enable-background:new 0 0 80 75;" xml:space="preserve">
<style type="text/css">
	.st0{fill:#2D2F7A;}
</style>
<g id="Logo_snow_vertical_00000080201601292319822810000014837127336269119906_">
	<path id="Path_25676_00000152975841016380455620000001820223042089375623_" class="st0" d="M0,2.675
		c0-0.673,0.546-1.219,1.219-1.219l0,0h9.809c0.533,0,0.965,0.432,0.965,0.965c0,0,0,0,0,0v0.586c0,0.533-0.432,0.965-0.965,0.965
		c0,0,0,0,0,0H2.866v6.464h6.464c0.533,0,0.965,0.432,0.966,0.965c0,0,0,0,0,0v0.585c0,0.533-0.432,0.965-0.966,0.965H2.866v6.64
		h8.659c0.533,0,0.965,0.432,0.965,0.965c0,0,0,0,0,0.001v0.585c0,0.533-0.432,0.965-0.965,0.965c0,0,0,0-0.001,0H1.219
		C0.546,22.108,0,21.563,0,20.89c0,0,0,0,0,0L0,2.675z"/>
	<path id="Path_25677_00000088125834057719052320000010749472476436834448_" class="st0" d="M18.37,21.224
		c0,0.643-0.322,0.965-0.965,0.965h-0.907c-0.644,0-0.965-0.322-0.965-0.965V1c0-0.644,0.322-0.966,0.965-0.966h0.907
		c0.643,0,0.965,0.322,0.965,0.966V21.224z"/>
	<path id="Path_25678_00000118368329205420708080000000052160528504162181_" class="st0" d="M34.507,7.306h-0.7
		c-0.644,0-0.966,0.273-0.966,0.819v0.736c0.002,0.195,0.022,0.389,0.059,0.581h-0.059c-0.218-0.473-0.538-0.892-0.936-1.229
		c-0.426-0.358-0.905-0.648-1.419-0.862c-0.72-0.286-1.492-0.42-2.267-0.395c-3.947,0-6.611,2.81-6.611,7.879
		c0,4.662,2.626,7.707,6.365,7.707c2.003,0,4.182-0.833,4.868-2.516H32.9c-0.031,0.199-0.05,0.399-0.059,0.6v0.744
		c0,0.545,0.322,0.818,0.966,0.819h0.7c0.644,0,0.965-0.322,0.965-0.965V8.272C35.472,7.628,35.151,7.306,34.507,7.306z
		 M28.571,20.084c-2.49,0-4.067-2.34-4.067-5.367c0-2.838,1.139-5.305,4.197-5.305c2.343,0,3.993,2.079,3.993,5.306
		C32.693,17.922,31.026,20.084,28.571,20.084L28.571,20.084z"/>
	<path id="Path_25679_00000049199488148660477690000004574187874160252546_" class="st0" d="M39.012,20.85
		c-0.226-0.114-0.379-0.334-0.409-0.585c-0.013-0.259,0.059-0.516,0.205-0.731l0.293-0.41c0.134-0.214,0.352-0.362,0.6-0.409
		c0.263-0.005,0.522,0.067,0.746,0.205c0.453,0.281,0.922,0.535,1.404,0.761c0.699,0.312,1.459,0.461,2.223,0.438
		c0.644,0.029,1.28-0.151,1.814-0.512c0.464-0.333,0.727-0.877,0.701-1.447c0.014-0.46-0.2-0.897-0.57-1.17
		c-0.438-0.326-0.914-0.596-1.419-0.805c-0.566-0.243-1.175-0.477-1.828-0.702c-0.642-0.219-1.256-0.513-1.828-0.878
		c-0.553-0.349-1.035-0.801-1.419-1.331c-0.403-0.604-0.603-1.321-0.57-2.047c-0.014-0.645,0.132-1.283,0.424-1.859
		c0.276-0.528,0.671-0.984,1.156-1.331c0.519-0.366,1.098-0.638,1.711-0.805c0.671-0.187,1.365-0.281,2.062-0.278
		c0.871-0.027,1.74,0.112,2.559,0.409c0.53,0.204,1.043,0.449,1.535,0.731c0.237,0.095,0.415,0.295,0.483,0.541
		c0.041,0.26-0.016,0.526-0.162,0.746l-0.263,0.439c-0.273,0.487-0.702,0.595-1.287,0.322c-0.392-0.212-0.797-0.398-1.214-0.556
		c-0.576-0.208-1.186-0.307-1.799-0.293c-0.623-0.021-1.239,0.142-1.77,0.468c-0.474,0.305-0.748,0.841-0.716,1.404
		c-0.012,0.464,0.201,0.905,0.57,1.185c0.433,0.333,0.911,0.603,1.419,0.804c0.565,0.233,1.175,0.468,1.828,0.702
		c0.636,0.226,1.249,0.515,1.828,0.862c0.559,0.335,1.042,0.784,1.419,1.316c0.402,0.611,0.601,1.332,0.57,2.062
		c0.012,1.211-0.526,2.362-1.462,3.13c-0.498,0.406-1.069,0.714-1.682,0.907c-0.705,0.222-1.44,0.331-2.179,0.322
		c-0.574,0.004-1.148-0.05-1.711-0.162c-0.474-0.095-0.939-0.232-1.389-0.409c-0.377-0.15-0.744-0.326-1.097-0.526
		C39.515,21.21,39.257,21.039,39.012,20.85z"/>
	<path id="Path_25680_00000111906310757138162710000013988285790416699820_" class="st0" d="M63.48,4.352
		c-0.644,0-0.966-0.322-0.965-0.965V2.421c0-0.644,0.322-0.965,0.965-0.965h0.994c0.644,0,0.966,0.322,0.965,0.965v0.965
		c0,0.644-0.322,0.966-0.965,0.965H63.48z M62.544,8.272c0-0.644,0.322-0.966,0.965-0.965h0.907c0.643,0,0.965,0.322,0.965,0.965
		v12.952c0,0.643-0.322,0.965-0.965,0.965h-0.907c-0.643,0-0.965-0.322-0.965-0.965V8.272z"/>
	<path id="Path_25681_00000069385191699435570910000016616789885042334123_" class="st0" d="M79.92,20.573
		c0.185,0.38,0.037,0.838-0.335,1.038c-1.106,0.573-2.337,0.864-3.582,0.847c-5.267,0-7.491-3.959-7.491-7.751
		c0-3.72,2.36-7.752,7.369-7.752c1.184-0.019,2.355,0.251,3.411,0.785c0.383,0.198,0.535,0.668,0.341,1.053l-0.36,0.721
		c-0.184,0.372-0.626,0.535-1.007,0.373c-0.666-0.3-1.386-0.461-2.117-0.475c-3.071,0-4.742,1.66-4.742,5.265
		c0,3.079,1.614,5.324,4.8,5.324c0.814-0.006,1.618-0.182,2.36-0.516c0.384-0.165,0.831,0.003,1.011,0.38
		C79.688,20.096,79.812,20.349,79.92,20.573z"/>
	<path id="Path_25682_00000115493225484897800760000015182580476916112278_" class="st0" d="M56.485,21.224
		c0,0.533-0.432,0.965-0.965,0.965h-0.907c-0.533,0-0.965-0.432-0.966-0.965V9.763h-1.532c-0.624,0-0.936-0.322-0.936-0.965V8.265
		c0-0.449,0.364-0.812,0.813-0.813h1.714V4.206c0-0.533,0.432-0.965,0.965-0.965h0.848c0.533,0,0.965,0.432,0.965,0.965c0,0,0,0,0,0
		v3.247h2.727c0.449,0,0.812,0.364,0.813,0.813v0.533c0,0.644-0.312,0.966-0.936,0.965h-2.604L56.485,21.224z"/>
	<path id="Path_25683_00000055690173589070858050000004326959590604060592_" class="st0" d="M5.629,55.1
		c0-0.673,0.546-1.219,1.219-1.219c0,0,0,0,0,0h9.809c0.533,0,0.965,0.432,0.965,0.965c0,0,0,0,0,0.001v0.585
		c0,0.533-0.432,0.965-0.965,0.965c0,0,0,0,0,0H8.496v6.464h6.464c0.533,0,0.965,0.432,0.966,0.965c0,0,0,0,0,0v0.585
		c0,0.533-0.432,0.965-0.966,0.965H8.496v6.638h8.658c0.533,0,0.965,0.432,0.966,0.965v0.585c0,0.533-0.432,0.966-0.966,0.966
		c0,0,0,0,0,0H6.849c-0.673,0-1.219-0.546-1.219-1.219l0,0V55.1z"/>
	<path id="Path_25684_00000062180249060127139630000015036107629766469267_" class="st0" d="M21.103,60.696
		c0-0.643,0.322-0.965,0.966-0.965h0.819c0.644,0,0.966,0.322,0.966,0.965v1.316c0,0.197-0.02,0.393-0.058,0.586
		c-0.021,0.086-0.03,0.175-0.029,0.263h0.058c0.194-0.46,0.456-0.889,0.775-1.273c0.346-0.424,0.75-0.798,1.199-1.111
		c0.463-0.324,0.964-0.59,1.492-0.79c0.537-0.205,1.107-0.309,1.682-0.307c2.438,0,3.92,1.121,4.446,3.364h0.058
		c0.213-0.456,0.488-0.879,0.819-1.258c0.352-0.41,0.755-0.774,1.199-1.082c0.46-0.317,0.962-0.568,1.492-0.746
		c0.556-0.187,1.139-0.28,1.726-0.278c1.697,0,2.935,0.473,3.715,1.419c0.78,0.946,1.17,2.364,1.17,4.256v8.592
		c0,0.643-0.322,0.965-0.965,0.965h-0.907c-0.644,0-0.966-0.322-0.965-0.965v-7.978c0.002-0.489-0.032-0.978-0.103-1.463
		c-0.056-0.41-0.184-0.806-0.38-1.17c-0.185-0.331-0.459-0.604-0.79-0.79c-0.411-0.211-0.869-0.312-1.331-0.293
		c-0.647-0.01-1.284,0.157-1.843,0.482c-0.55,0.325-1.024,0.764-1.39,1.288c-0.389,0.556-0.681,1.174-0.862,1.828
		c-0.194,0.675-0.292,1.374-0.293,2.076v6.019c0,0.643-0.312,0.965-0.936,0.965h-0.937c-0.624,0-0.936-0.322-0.936-0.965v-7.979
		c0.001-0.469-0.028-0.938-0.088-1.404c-0.047-0.412-0.166-0.813-0.35-1.185c-0.176-0.341-0.444-0.625-0.775-0.819
		c-0.417-0.223-0.887-0.329-1.36-0.307c-0.662-0.01-1.314,0.162-1.885,0.497c-0.554,0.331-1.033,0.774-1.404,1.302
		c-0.389,0.556-0.68,1.174-0.862,1.828c-0.192,0.665-0.291,1.354-0.292,2.047v6.019c0,0.643-0.322,0.965-0.966,0.965h-0.91
		c-0.644,0-0.966-0.322-0.966-0.965V60.696z"/>
	<path id="Path_25685_00000119087972547204825920000005876139841639742395_" class="st0" d="M65.536,56.776
		c-0.643,0-0.965-0.322-0.965-0.965v-0.965c0-0.643,0.322-0.965,0.965-0.965h0.995c0.643,0,0.965,0.322,0.965,0.965v0.965
		c0,0.644-0.322,0.966-0.965,0.965H65.536z M64.6,60.696c0-0.643,0.322-0.965,0.966-0.965h0.907c0.643,0,0.965,0.322,0.965,0.965
		v12.952c0,0.643-0.322,0.965-0.965,0.965h-0.907c-0.644,0-0.966-0.322-0.966-0.965V60.696z"/>
	<path id="Path_25686_00000024684897019899728790000007568379907329738670_" class="st0" d="M74.37,73.648
		c0,0.643-0.322,0.965-0.966,0.965h-0.906c-0.643,0-0.965-0.322-0.965-0.965V53.424c0-0.644,0.322-0.966,0.965-0.966h0.907
		c0.644,0,0.966,0.322,0.966,0.966L74.37,73.648z"/>
	<path id="Path_25687_00000177462941754144008000000010514719918585615766_" class="st0" d="M59.511,59.73h-0.702
		c-0.644,0-0.966,0.273-0.965,0.819v0.736c0.002,0.195,0.022,0.389,0.058,0.581h-0.058c-0.218-0.473-0.538-0.893-0.936-1.229
		c-0.426-0.358-0.905-0.648-1.419-0.862c-0.72-0.286-1.492-0.421-2.267-0.395c-3.947,0-6.611,2.81-6.611,7.879
		c0,4.662,2.626,7.708,6.365,7.708c2.003,0,4.183-0.833,4.868-2.516h0.058c-0.031,0.199-0.05,0.399-0.058,0.6v0.744
		c0,0.546,0.322,0.818,0.965,0.819h0.702c0.643,0,0.965-0.322,0.965-0.965V60.695C60.476,60.051,60.154,59.73,59.511,59.73z
		 M53.574,72.507c-2.49,0-4.067-2.34-4.067-5.367c0-2.838,1.139-5.305,4.197-5.305c2.343,0,3.994,2.079,3.994,5.306
		C57.697,70.345,56.029,72.507,53.574,72.507z"/>
	<path id="Path_25689_00000161606405591382701420000000664131811743306138_" class="st0" d="M40,47.179"/>
	<g id="Logo_snow_vertical-2_00000095329489098767010260000005872888414502682545_" transform="translate(82.245 92.622)">
		<path id="Path_25675_00000010288218078742343280000006502227259723405495_" class="st0" d="M-28.442-56.47
			c-0.997-1.295-2.464-2.145-4.084-2.368c-0.249-0.039-0.5-0.059-0.752-0.06h-2.239c-0.383-0.002-0.695,0.306-0.698,0.689v0.002l0,0
			v1.131c0.001,0.383,0.311,0.692,0.694,0.692c0.001,0,0.003,0,0.004,0h1.846c0.135,0,0.269,0.007,0.402,0.02
			c0.118,0.007,0.235,0.024,0.35,0.051c0.921,0.179,1.734,0.712,2.267,1.484c0.517,0.756,0.737,1.676,0.62,2.584
			c-0.118,0.916-0.575,1.754-1.282,2.348c-0.357,0.302-0.773,0.525-1.222,0.656c-0.51,0.112-1.031,0.162-1.553,0.15h-16.763
			c-0.578-0.008-1.149-0.133-1.677-0.37c-0.826-0.431-1.454-1.166-1.751-2.049c-0.296-0.865-0.267-1.808,0.081-2.653
			c0.536-1.341,1.834-2.221,3.279-2.22h7.737l-2.281,2.514c-0.209,0.231-0.192,0.587,0.039,0.797c0,0,0,0,0,0l0,0l0.018,0.016
			l0.744,0.617c0.251,0.207,0.622,0.173,0.831-0.077l3.647-4.39c0.354-0.425,0.354-1.042,0-1.467l-3.647-4.391
			c-0.208-0.25-0.58-0.285-0.831-0.077l0,0l-0.744,0.618c-0.239,0.2-0.272,0.555-0.073,0.795l0.015,0.017l2.283,2.514h-7.737
			c-0.795-0.006-1.585,0.128-2.333,0.396c-1.536,0.568-2.79,1.713-3.496,3.19c-0.696,1.504-0.753,3.225-0.158,4.772
			c0.602,1.525,1.781,2.752,3.28,3.414c0.724,0.352,1.517,0.539,2.322,0.548h17.212c0.746,0.01,1.492-0.053,2.226-0.189
			c0.781-0.203,1.516-0.55,2.169-1.024c2.734-1.982,3.344-5.804,1.363-8.538c-0.034-0.048-0.07-0.095-0.105-0.141L-28.442-56.47z"/>
	</g>
</g>
</svg>
