<svg width="24" height="24" viewBox="0 0 24 24" fill="none" xmlns="http://www.w3.org/2000/svg">
<path d="M9.19267 2.78682C11.1484 2.73773 12.6015 2.73772 14.5573 2.78682L14.6321 2.78869C16.1415 2.82654 17.3834 2.85768 18.3843 3.03184C18.7546 3.09626 19.1039 3.18196 19.4337 3.29827C19.5213 3.3189 19.6055 3.35121 19.684 3.39408C20.1999 3.60795 20.6662 3.90762 21.0896 4.33221C21.8391 5.0838 22.1979 5.95955 22.3797 7.00542C22.5503 7.98692 22.5761 9.19819 22.6074 10.6641L22.609 10.7395C22.6221 11.3529 22.6271 11.7895 22.6241 12.2665C22.6207 12.8185 22.1617 13.2564 21.61 13.2447C21.0583 13.2329 20.6228 12.7759 20.6258 12.2239C20.6283 11.777 20.6233 11.3637 20.6109 10.7821C20.5949 10.0327 20.5808 9.39883 20.5547 8.8521C20.5354 8.44648 20.5257 8.24366 20.3789 8.16269C20.232 8.08172 20.0515 8.18402 19.6905 8.38864L15.4547 10.7894C14.1551 11.526 13.056 12.0027 11.8748 12.0027C10.6936 12.0027 9.59443 11.526 8.29482 10.7894L4.05942 8.38885C3.6984 8.18424 3.51789 8.08193 3.37105 8.1629C3.22421 8.24387 3.21454 8.44669 3.1952 8.85233C3.16913 9.399 3.155 10.0328 3.139 10.7821C3.1183 11.7519 3.11831 12.2536 3.13902 13.2234C3.17233 14.7839 3.19758 15.8432 3.33929 16.6584C3.47273 17.4261 3.69535 17.8822 4.07618 18.2641C4.45307 18.6421 4.91524 18.8686 5.70852 19.0066C6.54671 19.1525 7.63994 19.1824 9.24288 19.2227C9.82424 19.2373 10.3596 19.2474 10.8768 19.2532C11.428 19.2594 11.8748 19.7058 11.8748 20.2572C11.8748 20.8085 11.428 21.256 10.8768 21.2499C10.3433 21.2441 9.79158 21.2337 9.19269 21.2187L9.11783 21.2168C7.60847 21.1789 6.36659 21.1478 5.36563 20.9736C4.30326 20.7888 3.41375 20.4288 2.66034 19.6733C1.91089 18.9217 1.55204 18.0459 1.37024 17.0001C1.19963 16.0185 1.17381 14.8073 1.14256 13.3414L1.14096 13.266C1.11965 12.2678 1.11964 11.7377 1.14094 10.7395L1.14255 10.6641C1.1738 9.19814 1.19962 7.98693 1.37023 7.00541C1.55202 5.95955 1.91087 5.0838 2.66033 4.3322C3.41373 3.57665 4.30324 3.21668 5.36561 3.03184C6.36658 2.85768 7.60846 2.82654 9.11782 2.7887L9.19267 2.78682Z" fill="#141B34"/>
<path fill-rule="evenodd" clip-rule="evenodd" d="M13.875 18.5059C13.3227 18.5059 12.875 18.0581 12.875 17.5059C12.875 16.9536 13.3227 16.5059 13.875 16.5059L18.375 16.5059L18.375 15.9116C18.3749 15.736 18.3747 15.5203 18.3968 15.3439L18.3972 15.3405C18.413 15.2141 18.4848 14.638 19.0504 14.3637C19.6172 14.0887 20.1174 14.3907 20.2256 14.456L20.2296 14.4584C20.3826 14.5506 20.5535 14.6848 20.6941 14.7951L20.7243 14.8188C21.1001 15.1135 21.5843 15.4954 21.9753 15.8759C22.1705 16.0657 22.3717 16.283 22.5305 16.5139C22.6717 16.7191 22.875 17.0693 22.875 17.5C22.875 17.9307 22.6717 18.2809 22.5305 18.4861C22.3717 18.717 22.1705 18.9343 21.9753 19.1241C21.5843 19.5046 21.1001 19.8865 20.7243 20.1812L20.6941 20.2049C20.5535 20.3152 20.3826 20.4494 20.2296 20.5416L20.2256 20.544C20.1174 20.6093 19.6172 20.9113 19.0504 20.6363C18.4848 20.362 18.413 19.7859 18.3972 19.6595L18.3968 19.6561C18.3747 19.4797 18.3749 19.264 18.375 19.0884L18.375 18.5059L13.875 18.5059Z" fill="#141B34"/>
</svg>
