<?xml version="1.0" encoding="UTF-8" standalone="no"?><!DOCTYPE svg PUBLIC "-//W3C//DTD SVG 1.1//EN" "http://www.w3.org/Graphics/SVG/1.1/DTD/svg11.dtd"><svg width="100%" height="100%" viewBox="0 0 300 300" version="1.1" xmlns="http://www.w3.org/2000/svg" xmlns:xlink="http://www.w3.org/1999/xlink" xml:space="preserve" xmlns:serif="http://www.serif.com/" style="fill-rule:evenodd;clip-rule:evenodd;stroke-linejoin:round;stroke-miterlimit:2;"><path d="M300,30c0,-16.557 -13.443,-30 -30,-30l-240,0c-16.557,0 -30,13.443 -30,30l0,240c0,16.557 13.443,30 30,30l240,0c16.557,0 30,-13.443 30,-30l0,-240Z"/><g><path d="M250.955,71.122c0,-0 -129.408,34.674 -181.023,48.505c-12.32,3.301 -20.887,14.465 -20.887,27.22c-0,9.696 -0,18.989 -0,18.989c-0,0 103.954,-27.854 162.681,-43.59c23.139,-6.2 39.229,-27.169 39.229,-51.124c0,-0 0,-0 0,-0Z" style="fill:#fff;"/><path d="M173.46,154.928c-0,0 -68.092,18.246 -103.528,27.741c-12.32,3.301 -20.887,14.465 -20.887,27.22c-0,9.696 -0,18.989 -0,18.989c-0,0 48.721,-13.054 85.185,-22.825c23.14,-6.2 39.23,-27.169 39.23,-51.124c-0,-0.001 -0,-0.001 -0,-0.001Z" style="fill:#fff;"/></g></svg>