<svg xmlns="http://www.w3.org/2000/svg" viewBox="0 0 604 129"><path d="M213.2 74.3l-3.6 10.2h-.3c-.6-2.3-1.7-5.8-3.5-10L186.5 26h-18.9v77.3h12.5V55.6L180 45l-.4-4.9h.3c.6 3 1.3 5.2 1.8 6.6l23.2 56.4h8.8l23-56.9c.5-1.3 1-3.9 1.5-6.1h.3l-.6 13.9v49h13.3V25.8H233l-19.8 48.5zm50.6-26.7h13V103h-13zm6.6-23.4c-2.2 0-4 .8-5.5 2.2a7.1 7.1 0 00-2.3 5.4 7 7 0 002.3 5.3c1.5 1.4 3.3 2.1 5.5 2.1s4.1-.8 5.5-2.1a7.4 7.4 0 000-10.7 7.3 7.3 0 00-5.5-2.2m52.5 22.9c-2.4-.5-4.9-.8-7.3-.8-5.9 0-11.3 1.3-15.8 3.9a26.1 26.1 0 00-10.4 10.7 34 34 0 00-.1 30.3 24 24 0 009.8 9.9c4.1 2.3 8.9 3.5 14.3 3.5 6.2 0 11.5-1.3 15.7-3.7l.1-.1v-12l-.5.4a22.3 22.3 0 01-12.5 4.5c-5.2 0-9.3-1.5-12.2-4.8-3-3.2-4.5-7.6-4.5-13.1 0-5.7 1.5-10.2 4.6-13.5a16 16 0 0112.2-5c4.2 0 8.5 1.4 12.4 4.2l.5.4V49.2l-.1-.1c-1.7-.7-3.6-1.5-6.2-2m42.9-.4c-3.2 0-6.2 1-8.8 3.1a18.7 18.7 0 00-5 7.5h-.1v-9.7h-13V103h13V74.7c0-4.8 1-8.8 3.2-11.7 2.2-3 5-4.5 8.4-4.5 1.2 0 2.4.3 3.9.5 1.4.4 2.4.8 3.1 1.3l.5.4v-13l-.3-.1c-.9-.6-2.7-.9-4.9-.9m35.4-.3c-9.1 0-16.4 2.7-21.5 8a29.8 29.8 0 00-7.7 21.8c0 8.6 2.6 15.6 7.6 20.7 5 5 11.8 7.6 20.3 7.6 8.9 0 16-2.7 21.1-8.1a29.7 29.7 0 007.7-21.5 29 29 0 00-7.3-20.9c-4.7-5.1-11.6-7.6-20.2-7.6M411.6 89c-2.4 3.1-6.2 4.6-10.9 4.6s-8.5-1.5-11.2-4.8c-2.7-3.1-4-7.6-4-13.3a21 21 0 014-13.6c2.7-3.2 6.4-4.8 11.1-4.8 4.6 0 8.2 1.5 10.8 4.6 2.6 3.1 4 7.6 4 13.5-.2 6-1.3 10.7-3.8 13.8m46.1-18.4c-4.1-1.7-6.7-3-7.9-4.1-1-1-1.5-2.4-1.5-4.2 0-1.5.6-3 2.1-4s3.2-1.5 5.7-1.5c2.2 0 4.5.4 6.7 1s4.2 1.5 5.8 2.7l.5.4V48.7l-.3-.1a36 36 0 00-12.3-2.3c-6.2 0-11.3 1.5-15.3 4.8-4 3.1-5.9 7.3-5.9 12.2 0 2.6.4 4.9 1.3 6.8.9 1.9 2.2 3.7 4 5.2 1.8 1.4 4.4 3 8 4.5a81 81 0 016.7 3.1c1.4.8 2.3 1.7 3 2.4.5.8.8 1.8.8 3.1 0 3.7-2.8 5.5-8.5 5.5a27.8 27.8 0 01-14.5-5l-.5-.4v12.7l.3.1a38.8 38.8 0 0014.5 3.1c6.7 0 12.2-1.5 16.1-4.8 4-3.2 6.1-7.3 6.1-12.6 0-3.7-1-7-3.2-9.5a40.5 40.5 0 00-11.7-6.9m49.2-24.2c-9.1 0-16.4 2.7-21.5 8s-7.7 12.6-7.7 21.8c0 8.6 2.6 15.6 7.6 20.7 5 5 11.8 7.6 20.3 7.6 8.9 0 16-2.7 21.1-8.1a29.7 29.7 0 007.7-21.5 29 29 0 00-7.3-20.9c-4.7-5.1-11.6-7.6-20.2-7.6M517.2 89c-2.4 3.1-6.2 4.6-10.9 4.6-4.8 0-8.5-1.5-11.2-4.8-2.7-3.1-4-7.6-4-13.3a21 21 0 014-13.6c2.7-3.2 6.4-4.8 11.1-4.8 4.5 0 8.2 1.5 10.8 4.6 2.6 3.1 4 7.6 4 13.5 0 6-1.3 10.7-3.8 13.8m86.7-30.7V47.6h-13.1V31.2l-.4.1L578 35l-.3.1v12.5h-19.6v-7c0-3.2.8-5.7 2.2-7.3s3.5-2.4 6.1-2.4c1.8 0 3.7.4 5.8 1.3l.5.3V21.2l-.3-.1c-1.8-.6-4.2-1-7.3-1-3.9 0-7.3.9-10.4 2.4-3.1 1.7-5.4 4-7.1 7.1-1.7 3-2.6 6.4-2.6 10.3v7.7h-9.1v10.6h9.1V103h13.1V58.3h19.6v28.5c0 11.7 5.5 17.6 16.5 17.6 1.8 0 3.7-.3 5.5-.6a18 18 0 004.1-1.3l.1-.1V91.7l-.5.4c-.8.5-1.5.9-2.7 1.2-1 .3-1.9.4-2.6.4-2.6 0-4.4-.6-5.7-2.1-1.2-1.4-1.8-3.7-1.8-7.1V58.3h13.3z" fill="#737373"/><path fill="#F25022" d="M0 0h61.3v61.3H0z"/><path fill="#7FBA00" d="M67.7 0H129v61.3H67.7z"/><path fill="#00A4EF" d="M0 67.7h61.3V129H0z"/><path fill="#FFB900" d="M67.7 67.7H129V129H67.7z"/></svg>