<svg width="490" height="79" viewBox="0 0 490 79" xmlns="http://www.w3.org/2000/svg"><title>Untitled</title><g fill="#22252B" fill-rule="evenodd"><g opacity=".2"><path d="M164.5 13c-8.8 8.4-25.7 14.1-45.2 14.1-14.5 0-27.6-3.2-37-8.3C71.5 12.9 56.6 4.7 37.1 4.7 22.6 4.7 9.5 7.9.1 13V9C9.5 3.9 22.6.7 37.1.7c19.5 0 34.4 8.2 45.2 14.1 9.4 5.1 22.5 8.3 37 8.3 19.5 0 36.4-5.7 45.2-14.1v4z"/><path d="M164.5 30c-8.8 8.4-25.7 14.1-45.2 14.1-14.5 0-27.6-3.2-37-8.3-10.8-5.9-25.7-14.1-45.2-14.1-14.5 0-27.6 3.2-37 8.3v-4c9.4-5.1 22.5-8.3 37-8.3 19.5 0 34.4 8.2 45.2 14.1 9.4 5.1 22.5 8.3 37 8.3 19.5 0 36.4-5.7 45.2-14.1v4z"/><path d="M164.5 47c-8.8 8.4-25.7 14.1-45.2 14.1-14.5 0-27.6-3.2-37-8.3-10.8-5.9-25.7-14.1-45.2-14.1-14.5 0-27.6 3.2-37 8.3v-4c9.4-5.1 22.5-8.3 37-8.3 19.5 0 34.4 8.2 45.2 14.1 9.4 5.1 22.5 8.3 37 8.3 19.5 0 36.4-5.7 45.2-14.1v4z"/><path d="M164.5 64c-8.8 8.4-25.7 14.1-45.2 14.1-14.5 0-27.6-3.2-37-8.3-10.8-5.9-25.7-14.1-45.2-14.1-14.5 0-27.6 3.2-37 8.3v-4c9.4-5.1 22.5-8.3 37-8.3 19.5 0 34.4 8.2 45.2 14.1 9.4 5.1 22.5 8.3 37 8.3 19.5 0 36.4-5.7 45.2-14.1v4z"/></g><path d="M76.9 10.4h-8.5V1.9h30.1c18.8 0 22.7 12.4 22.7 21 0 6.9-2.8 12.2-5.7 15.1-4.7 4.7-11.1 5.8-20.8 5.8h-7.6v17.5H96v8.5H68.4v-8.5h8.5V10.4zm18.7 25.2c12.5 0 15.2-5.8 15.2-12.8 0-8-4.5-12.4-12-12.4H87.1v25.2h8.5zM149.4 21.2c14.2 0 24.8 10.7 24.8 25s-10.7 25-24.9 25-24.8-10.7-24.8-25 10.6-25 24.9-25zm-.1 41c8.5 0 14.9-6.8 14.9-16 0-9.1-6.4-16-14.9-16-8.4 0-14.8 6.9-14.8 16 0 9.2 6.4 16 14.8 16zM182.1 53.6h8.3v1.6c.8 4.7 5.1 7.6 11.3 7.6 5.9 0 9.7-2.3 9.7-5.9 0-8.8-16.6-3.2-25.6-12.2-2.2-2.2-3.7-5.5-3.7-9 0-8.1 7-13.9 16.6-13.9 4.3 0 8.4 1 11.5 2.7v-1.9h8.2v15.6h-8.2v-2.9c-2.7-4-6.2-5.8-11-5.8-5 0-8.3 2.3-8.3 5.8 0 7.9 18.2 3.3 26 11.1 2.8 2.8 4 6.5 4 9.8 0 8.6-7.3 14.4-18.1 14.4-5.1 0-9-1.1-12.4-3.4v2.6h-8.3V53.6zM226.8 22.6h6.1v-7.3l9.4-8.5v15.8h8.7v8.2h-8.7v27.3c0 4.6 4.1 4.4 8.7 2.8v8.4c-2.2.7-4.7 1.3-6.9 1.3-6.6 0-11.2-3-11.2-11.2V30.8h-6.1v-8.2zM265.4 30.8h-7.9v-8.2h17.3v5.9c5.5-4.4 10.8-6.7 16-6.7 5.3 0 9.4 2.6 11.4 7.4 6.8-5.3 11.6-7.4 17-7.4 7.8 0 12.6 4.8 12.6 13v26.8h8.1v8.2h-17.5V36.9c0-4.6-2.1-6.9-5.7-6.9-3.8 0-8.7 2.3-13.4 6.2v25.4h8.1v8.2h-17.5V37.1c0-5-2.8-6.7-5.8-6.7-3.4 0-7.6 1.8-13.3 5.8v25.4h8.1v8.2h-26.1v-8.2h8.6V30.8zM392.5 69.8h-16.4V64c-5.9 4.8-10 6.6-15.2 6.6-9 0-16-6.6-16-15 0-8.6 7.5-15.3 17.2-15.3 4.2 0 9.1 1.5 12.9 4v-6.2c0-6.7-4.9-9.1-10.5-9.1-4.5 0-8 1.9-10.1 5.6l-8.9-2.4c4-7.3 10.8-11 20.4-11 13.8 0 18.5 6.9 18.5 14.5v25.9h8.1v8.2zM375 52.2c-4-3.1-8.2-4.7-12.2-4.7-5.2 0-9 3.4-9 8.1 0 4.6 3.5 7.8 8.5 7.8 4.2 0 8.9-2.1 12.7-5.6v-5.6zM405.3 30.8h-9.5v-8.2h16.9v10.6h.2c3-7.9 9-11.4 14.9-11.4h6.1v9.4h-5c-10.9 0-14.2 6.1-14.2 16.9v13.5h10.2v8.2H396v-8.2h9.3V30.8zM444.2 10.1h-8.5V1.9h17.9v42.4l17.7-13.9v-.2h-7.9v-7.6h26.2v7.6h-7.3l-17.7 14.7 16.7 16.7h8.1v8.2h-12L453.6 46v15.6h7v8.2h-25v-8.2h8.6V10.1z"/></g></svg>
