<svg xmlns="http://www.w3.org/2000/svg" viewBox="0 0 1000 159.8" style="enable-background:new 0 0 1000 159.8" xml:space="preserve"><path d="M216.6 53.9c-10 0-16.3 3.3-16.3 9.1s6.7 8.4 16.7 9.5c14.2 1.2 32.5 3.6 32.5 22.8 0 13.7-12.9 23.4-32.7 23.4-12.5 0-24.4-2.7-35-13.7l8.4-10.9c7 7 16.6 11 26.5 10.9 8.6 0 17-2.6 17-9.5s-6.5-9.2-17.9-10.2c-14.3-1.2-31.3-5.5-31.3-21.9s17.6-22.5 31.9-22.5c10.7-.2 21.1 3.2 29.6 9.7l-8.4 9.8c-6.1-4.3-13.5-6.7-21-6.5zm85.9 50.4c8.1 0 17.4-2.7 22.3-7.9l10.4 9.7c-7.9 8.6-21.2 12.6-33 12.6-25.2 0-41.4-15.1-41.4-38.8 0-22.5 16.8-38.8 41.1-38.8 22.6 0 38.1 12.7 38.1 38.2 0 2.1-.2 4.3-.3 6.6h-62.2c1.4 11.5 10.8 18.4 25 18.4zm-.6-49.5c-11.7 0-21.8 6.1-24.2 18.1h46.5c-.9-11.8-9-18.1-22.3-18.1zm112.4 20.5c0-12.7-7.5-20.1-20.7-20.1-5.9 0-11.5 2.3-15.5 6.6-4.1 4.3-6.3 10-6 15.9v39.1h-16.2v-74h14.6l.9 10.3c6.4-7.7 15.9-12.2 25.8-12.1 18.5 0 33 11.1 33 34.2v41.7h-16.1l.2-41.6zm113.9 41.6h-15.1l-.9-11.7c-6 8.8-16 13.9-26.6 13.5-22.3 0-39.2-14.2-39.2-38.8 0-25.2 16.6-38.8 38.9-38.8 9.3 0 21.9 4.3 26.9 13.2V12.1h16.2l-.2 104.8zm-65.9-37c0 15 10.6 24.4 24.2 24.4 13.3 0 24-10.9 24-24.4 0-13.5-10.7-24.4-24-24.4-13.6.1-24.2 9.4-24.2 24.4zM558 10.1c2.6-.2 5.2.7 7 2.5 1.9 1.8 3 4.3 2.9 7-.4 5.3-4.7 9.4-10 9.4-5.2 0-9.6-4.1-10-9.4 0-2.6 1-5.2 2.9-7 2.1-1.8 4.7-2.7 7.2-2.5zm8 106.8h-16.2V42.8H566v74.1zm80-41.6c0-12.7-7.5-20.1-20.7-20.1-5.9-.1-11.5 2.3-15.5 6.6-4.1 4.3-6.2 10-6 15.9v39.1h-16.1v-74h14.6l.9 10.3C609.5 45.4 619 41 629 41c18.5 0 33 11.1 33 34.2v41.7h-16.2l.2-41.6zM698.7 55c5-8.9 17.6-13.9 26.9-13.9 22.1 0 38.9 13.7 38.9 38.8 0 24.6-18.1 38.8-39.1 38.8-9.7 0-20.7-4-26.8-13.5l-.9 11.7h-15.1V12.1h16.1V55zm.9 24.9c-.1 6.6 2.5 12.9 7.1 17.6 4.6 4.6 10.9 7.1 17.5 6.9 14 0 24.2-9.5 24.2-24.4s-10.3-24.3-24.2-24.3c-6.5-.2-12.8 2.3-17.4 6.8-4.6 4.5-7.2 10.8-7.2 17.4zm98.7 37h-16.1V12.1h16.2l-.1 104.8zm37.2-33.7c0 12.6 7.3 21.3 20.9 21.3 5.8.1 11.4-2.3 15.4-6.5 4-4.3 6.2-10 5.9-15.8V42.8h16v74.1h-14.5l-.9-10.2c-6.5 7.9-16.3 12.3-26.5 12-18.8 0-32.3-13-32.3-35.4V42.8h16v40.4zm117 21.1c8.1 0 17.4-2.7 22.3-7.9l10.4 9.7c-7.9 8.6-21.2 12.6-33 12.6-25.2 0-41.4-15.1-41.4-38.8 0-22.5 16.8-38.8 41.1-38.8 22.6 0 38.1 12.7 38.1 38.2 0 2.1-.2 4.3-.3 6.6h-62.3c1.5 11.5 11 18.4 25.1 18.4zm-.6-49.5c-11.7 0-21.8 6.1-24.2 18.1h46.5c-1-11.8-9.1-18.1-22.3-18.1z" style="fill:#091e3f"/><path d="M127.1 110.1c-3.6 6.2-9.4 10.8-16.3 12.8 1-3.4 1.5-6.9 1.5-10.4 0-17.5-12.1-32.2-28.3-36.2 3.4-3.3 7.5-5.7 12-6.9 7.1-1.9 14.6-.9 21 2.8 13.2 7.6 17.7 24.6 10.1 37.9m-51.9 30.1c-7.2 0-14.1-2.9-19.2-7.8 3.4-.8 6.7-2.2 9.7-3.9 15.1-8.8 21.7-26.6 17.1-42.7 11.5 3.3 20 14 20 26.7 0 15.3-12.4 27.7-27.6 27.7m-52-30.1c-3.6-6.3-4.5-13.7-2.9-20.6 2.4 2.5 5.2 4.7 8.2 6.5 5.6 3.3 12 5 18.5 5 10.1 0 19.8-4.2 26.8-11.5 2.9 11.7-2.1 24.4-13 30.8-4.2 2.4-8.9 3.7-13.8 3.7-9.7-.1-18.8-5.4-23.8-13.9m0-60.4c3.6-6.2 9.4-10.8 16.3-12.8-1 3.4-1.5 6.9-1.5 10.4 0 17.5 12.1 32.2 28.3 36.2-8.6 8.4-22.1 10.4-33 4.1C27 84 22.4 78 20.5 70.8c-1.9-7.1-.9-14.7 2.7-21.1m52-30.1c7.2 0 14.1 2.9 19.2 7.8-3.4.8-6.7 2.2-9.7 3.9-8.6 5-14.7 13-17.3 22.7-1.8 6.6-1.7 13.5.2 20.1-11.5-3.3-20-14-20-26.7C47.6 32 60 19.6 75.2 19.6m51.9 30.1c3.6 6.3 4.5 13.7 2.8 20.6-2.4-2.5-5.2-4.7-8.2-6.5-8.6-5-18.6-6.3-28.2-3.7-6.6 1.8-12.5 5.3-17.2 10.2-1.1-4.6-1.1-9.4.1-13.9 1.9-7.2 6.5-13.2 12.9-16.9 6.4-3.7 13.8-4.7 21-2.8 7.2 2 13.1 6.6 16.8 13m8.3-4.8c-5-8.6-13-14.8-22.5-17.4-2.3-.6-4.6-1-6.9-1.2C99 16.2 87.5 10 75.2 10c-12.8 0-24 6.5-30.7 16.4-12.2.9-23.3 7.8-29.5 18.5-5 8.6-6.3 18.7-3.7 28.3.6 2.3 1.4 4.5 2.5 6.6-5.4 11.2-5 24.3 1.2 35 6.4 11.1 17.6 17.7 29.4 18.5 6.9 10.2 18.4 16.4 30.7 16.4 12.7 0 24-6.5 30.7-16.4 12.2-.9 23.3-7.8 29.5-18.6 6.4-11.1 6.4-24.2 1.2-34.9 5.4-11 5-24.1-1.1-34.9" style="fill-rule:evenodd;clip-rule:evenodd;fill:#0092ff"/></svg>