<svg version="1.1" id="Layer_1" xmlns="http://www.w3.org/2000/svg" x="0" y="0" viewBox="0 0 1000 271.1" style="enable-background:new 0 0 1000 271.1" xml:space="preserve"><style>.st0{fill:#4285f4}.st1{fill:#34a853}.st2{fill:#fbbc04}.st3{fill:#ea4335}.st5{fill:#5f6368}</style><path class="st0" d="M25.1 231.7h35.2v-85.5L10 108.4v108.2c0 8.4 6.8 15.1 15.1 15.1"/><path class="st1" d="M181.1 231.7h35.2c8.4 0 15.1-6.8 15.1-15.1V108.4l-50.3 37.7"/><path class="st2" d="M181.1 80.8v65.4l50.3-37.7V88.3c0-18.7-21.3-29.3-36.2-18.1"/><path class="st3" d="M60.3 146.2V80.8l60.4 45.3 60.4-45.3v65.4l-60.4 45.3"/><path d="M10 88.3v20.1l50.3 37.7V80.8L46.2 70.2C31.3 59 10 69.6 10 88.3" style="fill:#c5221f"/><g><path class="st3" d="m876 96.8 12.1 8.1c-3.9 5.8-13.4 15.8-29.7 15.8-20.2 0-35.4-15.7-35.4-35.6 0-21.2 15.3-35.6 33.6-35.6 18.5 0 27.5 14.7 30.5 22.7l1.6 4.1L841 96c3.6 7.2 9.3 10.8 17.3 10.8s13.7-4 17.7-10M838.6 84l31.9-13.2c-1.8-4.5-7-7.6-13.2-7.6-8 0-19.1 7-18.7 20.8"/><path class="st1" d="M799.9 14.1h15.7v104.4h-15.7z"/><path class="st0" d="M789 51.6v64c0 26.3-15.5 37.1-33.9 37.1-17.3 0-27.7-11.6-31.6-21.1l13.6-5.7c2.4 5.8 8.4 12.7 18 12.7 11.7 0 19-7.3 19-20.9v-5.1h-.5c-3.5 4.3-10.3 8.1-18.8 8.1-17.8 0-34.2-15.5-34.2-35.5 0-20.1 16.3-35.8 34.2-35.8 8.5 0 15.3 3.8 18.8 8h.5v-5.8H789zm-13.7 33.6c0-12.6-8.4-21.7-19-21.7-10.8 0-19.8 9.2-19.8 21.7 0 12.4 9 21.5 19.8 21.5 10.6 0 19-9.1 19-21.5"/><path class="st2" d="M714.2 85.1c0 20.5-16.1 35.6-35.8 35.6s-35.8-15.1-35.8-35.6c0-20.7 16.1-35.6 35.8-35.6s35.8 14.9 35.8 35.6m-15.6 0c0-12.8-9.3-21.6-20.1-21.6s-20.1 8.8-20.1 21.6c0 12.7 9.3 21.6 20.1 21.6 10.7 0 20.1-8.9 20.1-21.6"/><path class="st3" d="M636.2 85.1c0 20.5-16.1 35.6-35.8 35.6s-35.8-15.1-35.8-35.6c0-20.7 16.1-35.6 35.8-35.6 19.7-.1 35.8 14.9 35.8 35.6m-15.7 0c0-12.8-9.3-21.6-20.1-21.6s-20.1 8.8-20.1 21.6c0 12.7 9.3 21.6 20.1 21.6s20.1-8.9 20.1-21.6"/><path class="st0" d="M507.6 75.7V60.5h50.6c.6 3.1.8 6.2.8 9.3 0 11.3-3.1 25.4-13.1 35.4-9.7 10.1-22.1 15.5-38.6 15.5-30.5 0-56.2-24.8-56.2-55.4S476.8 10 507.3 10c16.9 0 28.9 6.6 37.9 15.3L534.5 36c-6.5-6.1-15.3-10.8-27.3-10.8-22.3 0-39.7 18-39.7 40.2s17.4 40.3 39.7 40.3c14.4 0 22.7-5.8 27.9-11.1 4.3-4.3 7.1-10.4 8.2-18.9h-35.7z"/></g><g><path class="st5" d="M458 133.8h13.1L445 231.6h-12.8l-21-64.5h-.6l-21 64.5h-12.9l-27.2-97.8h13.2l20.6 76.9h.5l21.2-63.8h11.8l21.1 63.8h.6zM469.9 198.2c0-10.3 3.2-18.8 9.7-25.5 6.6-6.7 14.8-10.1 24.7-10.1 9.9 0 18.1 3.4 24.6 10.1 6.6 6.7 9.8 15.3 9.8 25.5 0 10.4-3.3 18.9-9.8 25.5-6.5 6.7-14.7 10.1-24.6 10.1-9.9 0-18.2-3.4-24.7-10.1-6.4-6.7-9.7-15.3-9.7-25.5m12.6-.1c0 7.2 2.1 13 6.3 17.5s9.4 6.7 15.6 6.7 11.4-2.2 15.6-6.7c4.2-4.5 6.3-10.3 6.3-17.5 0-7.1-2.1-12.9-6.3-17.3-4.3-4.6-9.5-6.8-15.6-6.8s-11.3 2.3-15.6 6.8c-4.2 4.5-6.3 10.2-6.3 17.3M560.3 231.6h-12.6v-66.9h12v10.9h.6c1.3-3.6 3.9-6.6 7.9-9.1s7.9-3.8 11.7-3.8c3.6 0 6.7.5 9.3 1.6l-3.8 12.2c-1.5-.6-4-1-7.4-1-4.7 0-8.9 1.9-12.4 5.7-3.5 3.8-5.3 8.3-5.3 13.4v37zM653.8 231.6h-15.2l-20.9-31.5-10.2 10.1v21.4h-12.6v-97.8h12.6v60.3l28.9-29.4h16.1v.5l-26 26 27.3 39.9z"/><path class="st5" d="M708.1 213c0 5.8-2.5 10.7-7.6 14.8s-11.5 6-19.3 6c-6.7 0-12.7-1.8-17.8-5.3-5-3.4-8.8-8.2-10.9-13.9l11.2-4.8c1.6 4 4 7.1 7.2 9.4 3 2.2 6.6 3.4 10.3 3.3 4 0 7.4-.9 10-2.6 2.7-1.7 4-3.8 4-6.1 0-4.3-3.3-7.4-9.8-9.4l-11.5-2.9c-13-3.3-19.5-9.6-19.5-18.9 0-6.1 2.5-11 7.4-14.7 5-3.7 11.3-5.5 19.1-5.5 5.9 0 11.3 1.4 16.1 4.2 4.8 2.8 8.1 6.6 10 11.3l-11.2 4.6c-1.3-2.8-3.5-5.2-6.2-6.6-3-1.6-6.3-2.4-9.6-2.4-3.1 0-6.2.8-8.8 2.5-2.6 1.6-3.9 3.6-3.9 6 0 3.8 3.6 6.6 10.8 8.2l10.1 2.6c13.3 3.4 19.9 10.1 19.9 20.2M751.8 233.8c-4.9 0-9.4-1-13.5-3.1s-7.2-4.9-9.4-8.3h-.6l.6 9.3v29.5h-12.6v-96.4h12v9.3h.6c2.2-3.5 5.3-6.2 9.4-8.3 4.1-2.1 8.5-3.1 13.5-3.1 8.8 0 16.3 3.5 22.4 10.4 6.3 7 9.4 15.4 9.4 25.3s-3.1 18.4-9.4 25.3c-6.1 6.6-13.6 10.1-22.4 10.1m-2-11.5c6 0 11.1-2.3 15.2-6.8s6.1-10.2 6.1-17.3c0-7-2-12.8-6.1-17.3-4.1-4.6-9.1-6.8-15.2-6.8s-11.2 2.3-15.3 6.8c-4 4.6-6 10.3-6 17.3 0 7.1 2 12.9 6 17.5 4 4.4 9.1 6.6 15.3 6.6M818 162.5c9.3 0 16.6 2.5 22 7.4 5.4 5 8.1 11.8 8.1 20.4v41.3h-12v-9.3h-.6c-5.2 7.6-12.1 11.5-20.8 11.5-7.4 0-13.5-2.2-18.5-6.6-5-4.4-7.4-9.8-7.4-16.4 0-6.9 2.6-12.4 7.9-16.5s12.2-6.1 21-6.1c7.5 0 13.6 1.4 18.4 4.1v-2.9c0-4.4-1.7-8.1-5.2-11.1-3.3-3-7.7-4.6-12.2-4.6-7 0-12.6 3-16.7 8.9l-11.1-7c6.2-8.7 15.2-13.1 27.1-13.1m-16.2 48.6c0 3.3 1.4 6 4.2 8.2 2.8 2.2 6 3.3 9.8 3.3 5.3 0 10-2 14.1-5.9 4.1-3.9 6.2-8.5 6.2-13.8-3.9-3.1-9.4-4.6-16.4-4.6-5.1 0-9.4 1.2-12.8 3.7-3.4 2.5-5.1 5.5-5.1 9.1M890.7 233.8c-9.9 0-18.2-3.4-24.7-10.1-6.5-6.9-9.7-15.4-9.7-25.5 0-10.3 3.2-18.8 9.7-25.5 6.6-6.7 14.8-10.1 24.7-10.1 6.8 0 12.8 1.7 17.9 5.1s8.9 8.1 11.5 14.1l-11.5 4.8c-3.6-8.4-9.8-12.6-18.7-12.6-5.7 0-10.7 2.3-14.9 7-4.1 4.6-6.1 10.4-6.1 17.2 0 6.8 2 12.6 6.1 17.2 4.2 4.6 9.2 7 14.9 7 9.2 0 15.7-4.2 19.4-12.6l11.2 4.8c-2.5 6-6.3 10.7-11.5 14.1-5.3 3.4-11.4 5.1-18.3 5.1M958.3 233.8c-9.8 0-17.9-3.4-24.3-10.1-6.4-6.7-9.6-15.3-9.6-25.5s3.1-18.7 9.3-25.5 14.1-10.2 23.8-10.2c9.9 0 17.8 3.2 23.7 9.6 5.9 6.4 8.8 15.4 8.8 27l-.1 1.4h-52.6c.2 6.6 2.4 11.8 6.6 15.8 4.2 4 9.2 6 15 6 8 0 14.3-4 18.9-12l11.2 5.5c-2.9 5.5-7.2 10.1-12.5 13.2-5.4 3.2-11.4 4.8-18.2 4.8m-20.1-43.7h38.4c-.4-4.6-2.3-8.5-5.7-11.5-3.4-3-8-4.6-13.7-4.6-4.7 0-8.8 1.5-12.2 4.4s-5.7 6.8-6.8 11.7"/></g><path style="fill:#222" d="M294.5 34.3h11v206.9h-11z"/></svg>