<svg width="90" height="40" viewBox="0 0 152 64" fill="none" xmlns="http://www.w3.org/2000/svg"><path d="M124.66 27.8207C124.66 21.0184 128.964 16.2342 135.087 16.2342C141.209 16.2342 145.582 21.0156 145.582 27.8207C145.582 34.6258 141.21 39.1362 135.087 39.1362C128.963 39.1362 124.66 34.4198 124.66 27.8207ZM118.268 27.8207C118.268 37.8576 125.265 44.9308 135.086 44.9308C144.907 44.9308 151.972 37.8576 151.972 27.8207C151.972 17.7838 144.975 10.4424 135.086 10.4424C125.196 10.4424 118.268 17.6511 118.268 27.8207ZM85.6393 10.846L98.8261 44.5253H105.016L118.202 10.846H111.542L101.989 36.8471H101.854L92.3004 10.846H85.6393ZM60.007 26.607C60.4101 20.4087 64.5144 16.2342 70.0987 16.2342C74.9415 16.2342 78.5751 19.3334 79.1135 23.9821H67.945C63.976 23.9821 61.8224 24.4534 60.2099 26.6098H60.007V26.607ZM53.6165 27.6175C53.6165 37.6544 60.6807 44.928 70.4341 44.928C77.0275 44.928 82.8119 41.5607 85.301 36.2375L79.9197 33.5419C78.0367 37.0447 74.4031 39.1334 70.4341 39.1334C65.6561 39.1334 61.3516 35.4951 61.3516 31.9924C61.3516 30.1747 62.5628 29.3646 64.3115 29.3646H85.6365V27.5469C85.6365 17.4423 79.1784 10.4368 69.8957 10.4368C60.613 10.4368 53.6156 17.6455 53.6156 27.6146M35.3181 44.5216H41.3731V23.8456C41.3731 19.4002 44.13 16.2333 47.9665 16.2333C49.5817 16.2333 51.2618 16.7724 52.0708 17.5119C52.6769 15.8946 53.6184 14.2801 55.0307 12.6628C53.4154 11.3164 50.6586 10.4386 47.9665 10.4386C40.5669 10.4386 35.3181 15.9623 35.3181 23.8428V44.5235V44.5216ZM6.05501 22.2302V5.79182H16.0114C19.3743 5.79182 21.5956 7.74501 21.5956 10.7087C21.5956 14.0759 18.7034 16.636 12.7837 18.5891C8.74707 19.8678 6.93169 20.946 6.25797 22.2274L6.05501 22.2302ZM6.05501 38.7335V31.8635C6.05501 28.8321 8.61176 25.8684 12.1777 24.7225C15.3405 23.6443 17.9621 22.5661 20.1834 21.423C23.1432 23.1758 24.9586 26.2043 24.9586 29.3712C24.9586 34.7594 19.8451 38.7335 12.9162 38.7335H6.05501ZM0 44.5253H13.4546C23.6816 44.5253 31.3491 38.1267 31.3491 29.6393C31.3491 24.9906 28.9953 20.8161 24.8233 18.1206C26.9769 15.9642 27.9861 13.4719 27.9861 10.4405C27.9861 4.17734 23.4787 0 16.6851 0H0V44.5253Z" fill="#0B996E"></path><path d="M0 61.4495H1.11006V57.4322H5.66921V56.4278H1.11006V53.2034H6.21103V52.1991H0V61.4495Z" fill="black"></path><path d="M10.5273 61.661C12.3906 61.661 14.0821 60.2602 14.0821 58.0136C14.0821 55.8199 12.3906 54.4192 10.5273 54.4192C8.66395 54.4192 6.97243 55.8199 6.97243 58.0136C6.97243 60.2602 8.66395 61.661 10.5273 61.661ZM8.05606 58.0136C8.05606 56.375 9.07361 55.3706 10.5273 55.3706C11.9809 55.3706 12.9985 56.375 12.9985 58.0136C12.9985 59.6919 11.9809 60.7095 10.5273 60.7095C9.07361 60.7095 8.05606 59.6919 8.05606 58.0136Z" fill="black"></path><path d="M15.7041 61.4495H16.7613V59.018C16.7613 57.7361 16.986 56.7979 17.5674 56.2164C18.0299 55.7539 18.7039 55.516 19.6554 55.4764V54.5249C17.9639 54.5249 17.1181 55.2781 16.8142 56.7318H16.7613L16.7217 54.6306H15.7041V61.4495Z" fill="black"></path><path d="M20.9052 61.4495H21.9756V57.8683C21.9756 56.2693 22.8346 55.3971 23.9182 55.3971C24.9358 55.3971 25.6097 56.1371 25.6097 57.2604V61.4495H26.6669V57.9343C26.6669 56.4146 27.4466 55.3971 28.6228 55.3971C29.6403 55.3971 30.3143 56.1371 30.3143 57.2604V61.4495H31.3715V56.9168C31.3715 55.4235 30.4464 54.4192 29.0456 54.4192C27.9091 54.4192 27.037 55.0799 26.6934 56.2825H26.6009C26.3762 55.146 25.5305 54.4192 24.3411 54.4192C23.2046 54.4192 22.3853 55.0799 22.0417 56.2825H21.9756L21.8963 54.6306H20.892L20.9052 61.4495Z" fill="black"></path><path d="M36.3853 61.661C38.0768 61.661 39.3322 60.617 39.5305 59.0576H38.4468C38.2486 59.9959 37.5218 60.7359 36.3853 60.7359C35.0638 60.7359 34.0859 59.8637 34.0595 58.2118H39.5569C39.5701 58.0401 39.5833 57.8815 39.5833 57.7229C39.5833 55.7935 38.209 54.4192 36.3589 54.4192C34.3766 54.4192 33.0023 55.7274 33.0023 58.0136C33.0023 60.4716 34.4163 61.661 36.3853 61.661ZM34.0595 57.4718C34.152 56.071 35.0902 55.3442 36.3192 55.3442C37.6275 55.3442 38.4204 56.19 38.4997 57.4718H34.0595Z" fill="black"></path><path d="M41.2048 61.4495H42.262V59.018C42.262 57.7361 42.4867 56.7979 43.0681 56.2164C43.5307 55.7539 44.2046 55.516 45.1561 55.4764V54.5249C43.4646 54.5249 42.6188 55.2781 42.3149 56.7318H42.262L42.2224 54.6306H41.2048V61.4495Z" fill="black"></path><path d="M46.3663 52.1991V61.4495H47.4235V52.1991H46.3663Z" fill="black"></path><path d="M49.7344 64C50.8841 64 51.5316 63.2203 52.1527 61.6874L55.0468 54.6306H53.8838L52.7209 57.6833C52.4038 58.4894 52.047 59.3748 51.7298 60.247H51.677C51.3862 59.3748 51.0558 58.4629 50.7651 57.6568L49.6683 54.6306H48.4921L51.1087 61.4231L50.8576 62.0178C50.514 62.8107 50.1837 63.0617 49.5097 63.0617C49.285 63.0617 49.0207 63.0221 48.7036 62.9428V63.8414C49.0868 63.9471 49.4304 64 49.7344 64Z" fill="black"></path><path fill-rule="evenodd" clip-rule="evenodd" d="M106.116 50.4927C105.912 50.2955 105.636 50.1966 105.356 50.2203C105.077 50.1966 104.801 50.2955 104.596 50.4927C104.392 50.6899 104.277 50.9669 104.282 51.2555C104.323 51.8354 104.792 52.2841 105.356 52.2841C105.921 52.2841 106.39 51.8354 106.431 51.2555C106.435 50.9669 106.321 50.6899 106.116 50.4927ZM100.503 61.9134H102.132L102.144 50.4357H100.401V55.0495C99.8638 54.0801 98.5044 53.6043 97.4966 53.6043C95.0945 53.6043 93.2994 55.0974 93.2994 57.8561C93.2994 60.549 95.1293 62.1079 97.5314 62.1079C98.67 62.1511 99.7515 61.5941 100.401 60.6298L100.503 61.9134ZM68.5118 55.0166C67.4371 55.0166 66.7487 55.3757 66.7487 56.016C66.7487 56.6563 67.4719 56.9375 68.5466 57.0512C70.0744 57.1829 72.0554 57.4462 72.0554 59.5467C72.0554 61.0427 70.6612 62.1079 68.5292 62.1079C67.1844 62.1079 65.8918 61.8087 64.7532 60.6119L65.6595 59.415C66.4203 60.187 67.4468 60.6173 68.5147 60.6119C69.4383 60.6119 70.3446 60.3306 70.3446 59.5766C70.3446 58.8226 69.6387 58.5742 68.413 58.4605C66.8678 58.3289 65.0379 57.8621 65.0379 56.0668C65.0379 54.2716 66.9375 53.6043 68.4798 53.6043C69.6306 53.5807 70.7557 53.9558 71.6749 54.6695L70.7686 55.7377C70.1136 55.2485 69.3205 54.9951 68.5118 55.0166ZM77.7803 60.5341C78.6516 60.5341 79.6624 60.2349 80.1824 59.6634L81.3093 60.7286C80.4525 61.6651 79.0234 62.1079 77.7483 62.1079C75.0267 62.1079 73.2811 60.4503 73.2811 57.8561C73.2811 55.3936 75.0935 53.6043 77.7135 53.6043C80.1504 53.6043 81.8293 54.9987 81.8293 57.7933C81.8293 58.0207 81.8118 58.269 81.7944 58.5144H75.0848C75.2301 59.7771 76.2467 60.5341 77.7803 60.5341ZM75.0993 57.1021C75.3637 55.7886 76.4558 55.1154 77.7135 55.1154C79.1512 55.1154 80.0226 55.8035 80.1214 57.1021H75.0993ZM89.8401 57.3624C89.8401 55.9681 89.0326 55.1632 87.6065 55.1632C86.9767 55.157 86.3719 55.4168 85.9329 55.882C85.4939 56.3473 85.2589 56.9774 85.2828 57.6257V61.9134H83.5401V53.8018H85.1201L85.2218 54.9328C85.9122 54.0852 86.9332 53.5983 88.0073 53.6043C90.0057 53.6043 91.5683 54.8191 91.5683 57.3475V61.9134H89.8256L89.8401 57.3624ZM95.0277 57.8561C95.0277 59.4988 96.1692 60.5341 97.6418 60.5341C99.0727 60.5341 100.233 59.3391 100.233 57.8651C100.233 56.3911 99.0727 55.1961 97.6418 55.1961C96.1692 55.1961 95.0277 56.2135 95.0277 57.8561ZM106.213 61.9134H104.47V53.8018H106.213V61.9134ZM112.609 55.1632C114.038 55.1632 114.843 55.9681 114.843 57.3624L114.828 61.9134H116.571V57.3475C116.571 54.8191 115.008 53.6043 113.01 53.6043C111.935 53.5982 110.913 54.0851 110.222 54.9328L110.12 53.8018H108.543V61.9134H110.285V57.6257C110.261 56.9771 110.495 56.3465 110.935 55.8811C111.374 55.4156 111.979 55.1562 112.609 55.1632ZM120.536 55.1303C121.073 54.1609 122.435 53.6043 123.44 53.6043C125.825 53.6043 127.64 55.1004 127.64 57.8561C127.64 60.549 125.691 62.1079 123.426 62.1079C122.383 62.1079 121.192 61.6651 120.536 60.6298L120.437 61.9134H118.807V50.4357H120.55L120.536 55.1303ZM121.405 59.7812C120.904 59.275 120.627 58.5791 120.637 57.8561C120.632 57.1365 120.912 56.4458 121.413 55.9437C121.913 55.4417 122.591 55.1717 123.289 55.1961C124.797 55.1961 125.903 56.2135 125.903 57.8561C125.903 59.4988 124.802 60.5341 123.289 60.5341C122.588 60.5596 121.907 60.2874 121.405 59.7812ZM131.283 61.9134H129.54V50.4357H131.283V61.9134ZM137.548 60.549C136.087 60.549 135.297 59.5975 135.297 58.2182L135.303 53.8018H133.574V58.2331C133.574 60.6807 135.027 62.1079 137.06 62.1079C138.157 62.1456 139.21 61.6612 139.915 60.7944L140.017 61.9134H141.576V53.8018H139.848V58.1015C139.875 58.7452 139.644 59.3722 139.209 59.8351C138.774 60.298 138.173 60.5562 137.548 60.549ZM147.926 60.5341C148.797 60.5341 149.805 60.2349 150.328 59.6634L151.452 60.7286C150.595 61.6651 149.169 62.1079 147.891 62.1079C145.172 62.1079 143.424 60.4503 143.424 57.8561C143.424 55.3936 145.239 53.6043 147.859 53.6043C150.293 53.6043 151.972 54.9987 151.972 57.7933C151.972 57.9879 151.959 58.1979 151.946 58.4083C151.944 58.4436 151.942 58.4791 151.94 58.5144H145.222C145.376 59.7771 146.398 60.5341 147.926 60.5341ZM145.245 57.1021C145.506 55.7886 146.598 55.1154 147.859 55.1154C149.285 55.1154 150.159 55.8035 150.264 57.1021H145.245Z" fill="black"></path></svg>
