<svg version="1.1" id="Layer_1" xmlns="http://www.w3.org/2000/svg" x="0" y="0" viewBox="0 0 1000 192.2" style="enable-background:new 0 0 1000 192.2" xml:space="preserve"><style>.st1{fill:#99e1f4}.st2{fill:#1a82e2}.st3{fill:#00b2e3}</style><path d="m211.8 156.5 24.7-19.4c6.9 12 18 19 30.7 19 13.8 0 21.1-8.9 21.1-18.7 0-11.6-14.2-15.4-29.3-20-19-5.9-40.2-13.2-40.2-40.3 0-22.7 19.8-40.7 47.2-40.7 23.1 0 36.3 8.7 47.8 20.6l-22.3 16.8c-5.9-8.7-14.2-13.4-25.2-13.4-12.6 0-19.4 6.8-19.4 15.8 0 10.8 13.6 14.6 28.7 19.6 19.2 6.3 41 14.7 41 41.9 0 22.6-17.9 44.2-49.2 44.2-25.7.1-42.8-10.8-55.6-25.4zM429 82.9h26.4v10.8c6.3-8 15.8-12.8 26.8-12.8 22.8 0 36.7 14.7 36.7 39.8v59.2h-27.1v-55.7c0-13-6-20.6-17.9-20.6-10.2 0-18.4 6.9-18.4 23.2v53H429V82.9zm96.2 48.6c0-34.3 25.2-50.5 47.2-50.5 12.6 0 22.6 4.7 29 11.5V38.3H628V180h-26.6v-10.8c-6.4 7.6-16.7 12.8-29.3 12.8-20.7 0-46.9-16.4-46.9-50.5zm76.8-.2c0-14.4-10.4-26-24.8-26-14.7 0-26 11.1-26 26 0 15 11.2 26.2 26 26.2 14.4 0 24.8-11.8 24.8-26.2zm32-22.1c0-40.3 30.5-72.8 72.4-72.8 21 0 38.6 7.6 51.4 19.6 5.2 4.9 9.6 10.6 13.1 16.7l-23.6 14.4c-8.7-16.2-22.2-24.4-40.6-24.4-25.8 0-45.8 21.1-45.8 46.6 0 26 19.6 46.6 46.7 46.6 20.6 0 35.1-11.6 40.2-29.7h-44.5v-25.8H777v10.8c0 38.1-27.1 70.8-69.3 70.8-44.4 0-73.7-33.6-73.7-72.8zm149.6-26.3H810v15.9c4.8-10.2 13.6-15.9 26.8-15.9h10.7l-9.6 25.8h-7.2c-14.2 0-20.4 7.3-20.4 25.4v45.8h-26.6v-97h-.1zm70.8 0H881V180h-26.6v-71.2h-9.6l9.6-25.9zm13.4-14.7c8.8 0 15.9-7.1 15.9-15.9s-7.1-15.9-15.9-15.9-15.9 7.1-15.9 15.9c0 8.7 7.1 15.9 15.9 15.9zm19.5 63.3c0-34.3 25.2-50.5 47.2-50.5 12.6 0 22.6 4.7 29 11.5V38.3H990V180h-26.6v-10.8c-6.4 7.6-16.7 12.8-29.3 12.8-20.6 0-46.8-16.4-46.8-50.5zm76.9-.2c0-14.4-10.4-26-24.8-26-14.7 0-26 11.1-26 26 0 15 11.2 26.2 26 26.2 14.3 0 24.8-11.8 24.8-26.2zm-541.5 0c0-27.9-20.4-50.2-50.1-50.2-27.9 0-50.5 22.6-50.5 50.5s21 50.5 51.3 50.5c21 0 36.1-10.2 44.5-24.6l-21.1-12.6c-4.4 8.5-13.1 13.9-23.2 13.9-14 0-22.7-6.9-25.8-17.6h74.9v-9.9zM349 119.7c4.1-9.1 12.6-15.4 23.9-15.4 11.2 0 19.6 5.2 23.1 15.4h-47z" style="fill:#243746"/><path class="st1" d="M66.6 123.4h56.6V180H66.6zM66.6 66.6H10v56.8h56.6z"/><path class="st2" d="M10 123.4h56.6V180H10z"/><path class="st3" d="M180 66.6h-56.6v56.8H180zM66.6 10h56.6v56.6H66.6z"/><path style="fill:#009dd9" d="M66.6 66.6v56.8h56.8V66.6z"/><path class="st2" d="M123.4 10H180v56.6h-56.6z"/></svg>