<svg version="1.1" id="Layer_1" xmlns="http://www.w3.org/2000/svg" x="0" y="0" viewBox="0 0 1000 203" style="enable-background:new 0 0 1000 203" xml:space="preserve"><style>.st1{fill-rule:evenodd;clip-rule:evenodd;fill:#143f93}</style><path d="M654.8 35.4c-27.7 0-53.4 14.6-67.5 38.4l-1 1.8-.7 1.2c-5.1 9.2-14.2 28.7-17.9 35.1-5.1 9.3-10.8 18.3-16.9 26.9-5.4 6.9-12.2 12.6-19.9 16.7-23 12.3-51.6 3.7-63.9-19.3-3.7-6.8-5.6-14.4-5.6-22.2.3-26 21.3-47 47.3-47.3 7.8 0 15.4 2 22.2 5.9 3.6 2.1 6.9 4.5 9.9 7.4 3.3 3 6.4 6.4 9 10.1l6.3 9.3 17.6-29.6-3-3.8c-6.4-8.7-14.8-15.7-24.4-20.6-11.5-6.4-24.5-9.8-37.7-9.8-43.2.4-78.2 35.3-78.7 78.6.2 43.5 35.5 78.7 79 78.7 13.1 0 26-3.3 37.5-9.5 5.6-3.2 10.9-6.9 15.8-11.2 8-8 15-16.9 20.9-26.5 1.5 3.3 3.2 6.6 5.2 9.7 3.3 5.7 7.4 10.9 12 15.5v-.4c31.1 30.3 80.8 29.7 111.1-1.4 30.3-31.1 29.7-80.9-1.4-111.2-14.9-14.5-34.6-22.5-55.2-22.5zm.1 125.6c-26.1 0-47.2-21.1-47.2-47.2s21.1-47.2 47.2-47.2 47.2 21.1 47.2 47.2-21.2 47.2-47.2 47.2z" style="fill:#ff5003"/><path class="st1" d="M13.3 192.7c-2.2 0-3.3-1-3.3-3.3V45c-.2-1.6.9-3.1 2.5-3.3h28.8c2.2 0 3.3 1 3.3 3v19.5c0 2.6.9 4 1.4 4 1.4.8 3.1.2 3.9-1.1.1-.1.1-.2.2-.3 6.1-9.6 24.1-28.3 46.5-20.7 7.3 2.5 13.9 6.5 19.4 11.8 5.4 5.1 9.6 11.4 12.3 18.3 2.9 7.5 4.3 15.5 4.2 23.6v89.7c.3 1.5-.8 3-2.3 3.3-.3.1-.6.1-1 0H98.1c-2.2 0-3.3-1-3.3-3.3V99.7c.1-12.7-10.1-23.2-22.9-23.4h-.6c-6.3-.1-12.3 2.3-16.8 6.8-4.6 4.3-7.1 10.4-6.9 16.6v89.7c0 2.2-1.1 3.3-3.3 3.3h-31zM284 151.2c1.1.4 1.9 1.5 2 2.7-.3 1.3-.8 2.6-1.5 3.8-1 1.9-2.1 3.9-3.4 6.1-5 8.3-11.7 15.4-19.7 20.9-10.1 6-21.8 8.9-33.6 8.2-8.7.1-17.3-1.4-25.5-4.4-7.3-2.6-13.9-6.7-19.4-12-5.4-5.2-9.6-11.5-12.4-18.4-2.9-7.5-4.3-15.6-4.3-23.6v-41c.1-7.1 1.5-14.1 4.3-20.6 2.9-7 7.1-13.3 12.4-18.8 5.5-5.8 12.1-10.4 19.4-13.7 8-3.6 16.8-5.5 25.6-5.3 8.7-.1 17.3 1.7 25.2 5.3 7.3 3.3 13.9 7.9 19.4 13.7 5.3 5.4 9.5 11.8 12.4 18.8 2.7 6.5 4.2 13.5 4.3 20.6v26.7c.2 1.6-.9 3-2.4 3.3h-79.5c-1.6-.2-3.1.9-3.3 2.5V134.2c-.1 6.3 2.4 12.3 6.8 16.7 4.3 4.8 10.5 7.5 17 7.4 4.6-.1 9.1-1.7 12.7-4.5 4.8-3.9 8.5-9 10.7-14.8.4-1.1 1.4-1.9 2.6-1.9 2 .5 3.9 1.3 5.6 2.3l24.6 11.8zm-36.9-59.1c2.4 0 3.6-1 3.6-3-.2-1.6-.6-3.2-1.3-4.7-1-2.4-2.4-4.6-4.1-6.4-2.2-2.3-4.6-4.1-7.4-5.6-3.2-1.7-6.8-2.6-10.5-2.4-3.6-.1-7.2.7-10.4 2.3-2.8 1.4-5.3 3.3-7.4 5.6-1.8 1.9-3.2 4.1-4.3 6.4-.7 1.5-1.2 3.1-1.3 4.8 0 1.9 1.2 3 3.6 3h39.5zM380.8 73H403c1.5.3 3-.8 3.3-2.3.1-.3.1-.6 0-1v-28c.2-1.6-.9-3-2.5-3.3h-23c-2.2 0-3.3-1.1-3.3-3.3V13.4c.2-1.6-.9-3.1-2.5-3.3h-31.5c-1.7-.3-3.3.9-3.5 2.6-.1.3-.1.6 0 1v21.8c0 1.6-1.3 3-3 3h-21.3c-1.6-.2-3 .9-3.3 2.5V69.9c-.3 1.6.8 3.1 2.4 3.3.3 0 .6.1.9 0h21c1.6-.2 3 .9 3.3 2.5v58.9c-.2 11.2 2.8 22.3 8.7 31.8 6.2 9.5 15.3 16.7 25.9 20.6 5 2 10.2 3.5 15.5 4.4 4.1.9 8.3 1.4 12.6 1.5 1.6.2 3-.9 3.3-2.5v-29.2c0-2.2-1-3.3-3-3.3-7.1.1-13.9-2.6-19.1-7.4-4-4.2-6.3-9.8-6.2-15.7V76.3c-.2-2.2.8-3.3 3.1-3.3zM767.2 192.7c-2.2 0-3.3-1-3.3-3.3V45c-.2-1.6.9-3.1 2.5-3.3h28.8c.9 0 1.7.2 2.5.5.5.4.8 1.2.8 2.5v19.6c0 2.1.9 3.3 2.6 3.3.9 0 1.7-.3 2.4-1 1.7-1.8 10.7-24.5 25-24.9 3.1-.1 6.2.3 9.2 1 1.6.3 2.8 1.7 2.7 3.3v33.2c0 2.4-1.1 3.6-3.3 3.6-1.5-.1-2.9-.6-4.1-1.5-2.3-1.1-4.8-1.6-7.4-1.5-6.3-.2-12.5 2.2-17 6.7-4.4 4.3-6.9 10.3-6.7 16.5v86.4c0 2.2-1.1 3.3-3.3 3.3h-31.4zM985.2 151.2c1.1.4 1.9 1.5 2 2.7-.3 1.3-.8 2.6-1.6 3.8-.9 1.9-2.1 3.9-3.4 6.1-5.1 8.3-11.9 15.5-20 20.9-10.1 6-21.8 8.9-33.6 8.2-8.7.1-17.4-1.3-25.6-4.3-7.3-2.6-13.9-6.7-19.5-12-5.3-5.2-9.6-11.5-12.3-18.4-2.9-7.5-4.4-15.6-4.3-23.6v-41c0-7.1 1.5-14.1 4.3-20.6 2.9-7 7.1-13.3 12.3-18.8 5.6-5.8 12.2-10.4 19.5-13.7 8-3.6 16.8-5.5 25.6-5.3 8.7-.1 17.3 1.7 25.2 5.3 7.3 3.3 13.9 7.9 19.4 13.7 5.3 5.4 9.5 11.8 12.4 18.8 2.7 6.5 4.2 13.5 4.3 20.6v26.7c.2 1.6-.9 3-2.4 3.3H908.2c-1.6-.2-3.1.9-3.3 2.5V134.3c-.1 6.3 2.4 12.3 6.8 16.7 4.3 4.8 10.5 7.5 17 7.4 4.6-.1 9.1-1.7 12.7-4.5 4.8-3.9 8.5-9 10.7-14.8.4-1.1 1.4-1.9 2.6-1.9 2 .5 3.9 1.3 5.6 2.3l24.9 11.7zm-36.9-59.1c2.4 0 3.6-1 3.6-3-.2-1.6-.6-3.2-1.3-4.7-1-2.4-2.4-4.5-4.1-6.4-2.2-2.2-4.7-4.1-7.4-5.6-3.2-1.7-6.8-2.6-10.5-2.4-3.6-.1-7.2.7-10.4 2.3-2.8 1.4-5.3 3.3-7.4 5.6-1.8 1.9-3.2 4.1-4.3 6.4-.7 1.5-1.2 3.1-1.3 4.8 0 1.9 1.2 3 3.6 3h39.5z"/></svg>