<?xml version="1.0" encoding="UTF-8" standalone="no"?>
<svg
   id="Calque_1"
   data-name="Calque 1"
   viewBox="0 0 780.00002 180"
   version="1.1"
   sodipodi:docname="provider-sweego.svg"
   inkscape:export-filename="SWEEGO_LOGO_RVB_COUL.png"
   inkscape:export-xdpi="18.066395"
   inkscape:export-ydpi="18.066395"
   inkscape:version="1.2.2 (b0a8486541, 2022-12-01)"
   width="780"
   height="180"
   xmlns:inkscape="http://www.inkscape.org/namespaces/inkscape"
   xmlns:sodipodi="http://sodipodi.sourceforge.net/DTD/sodipodi-0.dtd"
   xmlns="http://www.w3.org/2000/svg"
   xmlns:svg="http://www.w3.org/2000/svg">
  <sodipodi:namedview
     id="namedview41"
     pagecolor="#ffffff"
     bordercolor="#000000"
     borderopacity="0.25"
     inkscape:showpageshadow="2"
     inkscape:pageopacity="0.0"
     inkscape:pagecheckerboard="0"
     inkscape:deskcolor="#d1d1d1"
     showgrid="false"
     inkscape:zoom="1.3627022"
     inkscape:cx="423.05649"
     inkscape:cy="176.85449"
     inkscape:window-width="1920"
     inkscape:window-height="979"
     inkscape:window-x="0"
     inkscape:window-y="0"
     inkscape:window-maximized="1"
     inkscape:current-layer="Calque_1" />
  <defs
     id="defs4">
    <style
       id="style2">
      .cls-1 {
        fill: none;
      }

      .cls-2 {
        fill: #fff;
      }

      .cls-3 {
        fill: #141446;
      }

      .cls-4 {
        fill: #6ee691;
      }
    </style>
  </defs>
  <path
     class="cls-1"
     d="m 371.96,120.75 c -5.19,-2.92 -9.27,-7.04 -12.23,-12.35 -2.96,-5.31 -4.45,-11.47 -4.45,-18.47 0,-7 1.52,-13.05 4.57,-18.41 3.05,-5.35 7.21,-9.47 12.48,-12.35 5.27,-2.88 11.16,-4.32 17.67,-4.32 6.51,0 12.39,1.44 17.67,4.32 5.27,2.88 9.43,7 12.48,12.35 3.05,5.35 4.57,11.49 4.57,18.41 0,6.92 -1.57,13.05 -4.69,18.41 -3.13,5.35 -7.39,9.49 -12.79,12.42 -5.39,2.92 -11.35,4.39 -17.85,4.39 -6.5,0 -12.23,-1.46 -17.42,-4.39 z m 27.13,-11.46 c 3.01,-1.64 5.46,-4.11 7.34,-7.39 1.88,-3.29 2.82,-7.28 2.82,-11.97 0,-4.69 -0.9,-8.66 -2.7,-11.91 -1.8,-3.25 -4.19,-5.69 -7.16,-7.34 -2.97,-1.64 -6.18,-2.46 -9.62,-2.46 -3.44,0 -6.63,0.82 -9.56,2.46 -2.93,1.64 -5.26,4.09 -6.98,7.34 -1.72,3.25 -2.58,7.22 -2.58,11.91 0,6.96 1.78,12.34 5.34,16.14 3.56,3.8 8.04,5.69 13.44,5.69 3.44,0 6.67,-0.82 9.68,-2.46 z"
     id="path6" />
  <path
     class="cls-1"
     d="m 371.96,120.75 c -5.19,-2.92 -9.27,-7.04 -12.23,-12.35 -2.96,-5.31 -4.45,-11.469998 -4.45,-18.469998 0,-7 1.52,-13.05 4.57,-18.41 3.05,-5.35 7.21,-9.47 12.48,-12.35 5.27,-2.88 11.16,-4.32 17.67,-4.32 6.51,0 12.39,1.44 17.67,4.32 5.27,2.88 9.43,7 12.48,12.35 3.05,5.349999 4.57,11.49 4.57,18.41 0,6.92 -1.57,13.049998 -4.69,18.409998 -3.13,5.35 -7.39,9.49 -12.79,12.42 -5.39,2.92 -11.35,4.39 -17.85,4.39 -6.5,0 -12.23,-1.46 -17.42,-4.39 z m 27.13,-11.46 c 3.01,-1.64 5.46,-4.11 7.34,-7.39 1.88,-3.289999 2.82,-7.279999 2.82,-11.969998 0,-4.69 -0.9,-8.66 -2.7,-11.91 -1.8,-3.25 -4.19,-5.69 -7.16,-7.34 -2.97,-1.64 -6.18,-2.460001 -9.62,-2.460001 -3.44,0 -6.63,0.820001 -9.56,2.460001 -2.93,1.64 -5.26,4.09 -6.98,7.34 -1.72,3.25 -2.58,7.22 -2.58,11.91 0,6.959999 1.78,12.339998 5.34,16.139998 3.56,3.8 8.04,5.69 13.44,5.69 3.44,0 6.67,-0.82 9.68,-2.46 z"
     id="path8" />
  <path
     class="cls-1"
     d="m 371.96,120.75 c -5.19,-2.92 -9.27,-7.04 -12.23,-12.35 -2.96,-5.31 -4.45,-11.469998 -4.45,-18.469998 0,-7 1.52,-13.05 4.57,-18.41 3.05,-5.35 7.21,-9.47 12.48,-12.35 5.27,-2.88 11.16,-4.32 17.67,-4.32 6.51,0 12.39,1.44 17.67,4.32 5.27,2.88 9.43,7 12.48,12.35 3.05,5.349999 4.57,11.49 4.57,18.41 0,6.92 -1.57,13.049998 -4.69,18.409998 -3.13,5.35 -7.39,9.49 -12.79,12.42 -5.39,2.92 -11.35,4.39 -17.85,4.39 -6.5,0 -12.23,-1.46 -17.42,-4.39 z m 27.13,-11.46 c 3.01,-1.64 5.46,-4.11 7.34,-7.39 1.88,-3.289999 2.82,-7.279999 2.82,-11.969998 0,-4.69 -0.9,-8.66 -2.7,-11.91 -1.8,-3.25 -4.19,-5.69 -7.16,-7.34 -2.97,-1.64 -6.18,-2.460001 -9.62,-2.460001 -3.44,0 -6.63,0.820001 -9.56,2.460001 -2.93,1.64 -5.26,4.09 -6.98,7.34 -1.72,3.25 -2.58,7.22 -2.58,11.91 0,6.959999 1.78,12.339998 5.34,16.139998 3.56,3.8 8.04,5.69 13.44,5.69 3.44,0 6.67,-0.82 9.68,-2.46 z"
     id="path18" />
  <g
     id="g38"
     transform="matrix(1.1305678,0,0,1.1305678,-61.048503,-68.398202)">
    <path
       class="cls-4"
       d="m 151.55,209.67 c -10.54,0 -20.44,-4.1 -27.9,-11.56 L 73.16,147.62 c -4.14,-4.14 -4.14,-10.85 0,-14.99 l 42.71,-42.71 c 4.14,-4.14 10.85,-4.14 14.99,0 4.14,4.14 4.14,10.85 0,14.99 l -35.21,35.21 42.99,42.99 c 3.45,3.45 8.03,5.35 12.91,5.35 4.88,0 9.46,-1.9 12.91,-5.35 3.96,-3.96 6.14,-9.22 6.14,-14.81 0,-5.59 -2.18,-10.86 -6.14,-14.81 l -14.82,-14.82 c -15.38,-15.38 -15.38,-40.41 0,-55.79 7.96,-7.96 18.54,-12.34 29.8,-12.34 11.26,0 21.84,4.38 29.8,12.34 l 49.75,49.75 c 1.99,1.99 3.1,4.68 3.1,7.49 0,2.81 -1.12,5.51 -3.1,7.49 l -42.71,42.71 c -4.14,4.14 -10.85,4.14 -14.99,0 -4.14,-4.14 -4.14,-10.85 0,-14.99 L 236.5,140.12 194.24,97.86 c -3.96,-3.96 -9.22,-6.14 -14.81,-6.14 -5.59,0 -10.85,2.18 -14.81,6.14 -7.12,7.12 -7.12,18.7 0,25.82 l 14.82,14.82 c 16.43,16.43 16.43,43.17 0,59.6 -7.45,7.45 -17.36,11.56 -27.9,11.56 z"
       id="path22" />
    <g
       id="g36">
      <path
         class="cls-3"
         d="m 339.49,142.22 c -3.17,-1.36 -7.23,-2.7 -12.17,-4.01 -3.71,-1.07 -6.51,-1.96 -8.4,-2.66 -2.72,-1 -4.84,-2.56 -6.37,-4.66 -1.03,-3.65 -0.19,-6.44 2.54,-8.37 1.98,-1.4 4.82,-2.1 8.52,-2.1 3.7,0 6.79,0.91 9.02,2.72 1.05,0.86 1.88,1.85 2.49,2.98 1.44,2.67 4.26,4.31 7.3,4.31 4.65,0 7.85,-4.83 5.87,-9.03 -1.27,-2.68 -3.09,-5 -5.46,-6.96 -4.74,-3.91 -10.98,-5.87 -18.72,-5.87 -5.19,0 -9.78,0.86 -13.77,2.59 -4,1.73 -7.06,4.1 -9.2,7.1 -2.14,3.01 -3.21,6.32 -3.21,9.94 0,4.45 1.17,8.03 3.52,10.75 2.35,2.72 5.13,4.74 8.34,6.05 3.21,1.32 7.37,2.68 12.48,4.08 5.27,1.48 9.12,2.84 11.55,4.08 2.43,1.24 3.64,3.13 3.64,5.68 0,2.39 -1.09,4.35 -3.27,5.87 -2.18,1.52 -5.25,2.29 -9.2,2.29 -3.95,0 -6.94,-0.97 -9.45,-2.9 -2.51,-1.93 -3.89,-4.34 -4.14,-7.23 h -14.58 c 0.16,4.12 1.48,7.84 3.95,11.18 2.47,3.33 5.83,5.97 10.07,7.91 4.24,1.93 9.04,2.9 14.39,2.9 5.35,0 9.86,-0.87 13.77,-2.59 3.91,-1.73 6.94,-4.12 9.08,-7.17 2.14,-3.05 3.21,-6.51 3.21,-10.38 -0.08,-4.36 -1.28,-7.86 -3.58,-10.5 -2.31,-2.64 -5.05,-4.63 -8.22,-5.99 z"
         id="path24" />
      <path
         class="cls-3"
         d="m 489.23,112.76 c -5.02,-2.8 -10.75,-4.2 -17.17,-4.2 -6.42,0 -12.58,1.44 -17.73,4.32 -5.15,2.88 -9.14,6.98 -11.98,12.29 -2.84,5.31 -4.26,11.47 -4.26,18.47 0,7 1.46,13.16 4.39,18.47 2.92,5.31 6.96,9.43 12.11,12.35 5.15,2.92 10.97,4.39 17.48,4.39 7.99,0 14.68,-2 20.07,-5.99 5.39,-3.99 9.12,-9.12 11.18,-15.38 h -15.2 c -3.13,6.34 -8.48,9.51 -16.06,9.51 -5.27,0 -9.72,-1.65 -13.34,-4.94 -3.62,-3.29 -5.64,-7.66 -6.05,-13.1 h 45.58 c 3.79,0 6.91,-3.05 6.92,-6.84 v -0.08 c 0,-6.59 -1.4,-12.42 -4.2,-17.48 -2.8,-5.07 -6.71,-9 -11.74,-11.8 z m -35.5,24.4 c 0.62,-5.01 2.58,-8.98 5.87,-11.91 3.29,-2.93 7.24,-4.4 11.85,-4.4 5.08,0 9.35,1.49 12.79,4.46 3.44,2.97 5.2,6.92 5.28,11.85 z"
         id="path26" />
      <path
         class="cls-3"
         d="m 561.27,112.76 c -5.02,-2.8 -10.75,-4.2 -17.17,-4.2 -6.42,0 -12.58,1.44 -17.73,4.32 -5.15,2.88 -9.14,6.98 -11.98,12.29 -2.84,5.31 -4.26,11.47 -4.26,18.47 0,7 1.46,13.16 4.39,18.47 2.92,5.31 6.96,9.43 12.11,12.35 5.15,2.92 10.97,4.39 17.48,4.39 7.99,0 14.68,-2 20.08,-5.99 5.39,-3.99 9.12,-9.12 11.18,-15.38 h -15.2 c -3.13,6.34 -8.48,9.51 -16.06,9.51 -5.27,0 -9.72,-1.65 -13.34,-4.94 -3.62,-3.29 -5.64,-7.66 -6.05,-13.1 h 45.66 c 3.78,0 6.84,-3.06 6.85,-6.84 v -0.08 c 0,-6.59 -1.4,-12.42 -4.2,-17.48 -2.8,-5.07 -6.71,-9 -11.74,-11.8 z m -35.5,24.4 c 0.62,-5.01 2.58,-8.98 5.87,-11.91 3.29,-2.93 7.24,-4.4 11.85,-4.4 5.09,0 9.35,1.49 12.79,4.46 3.44,2.97 5.2,6.92 5.28,11.85 z"
         id="path28" />
      <path
         class="cls-3"
         d="m 647.78,162.05 c 3.13,-5.35 4.69,-11.49 4.69,-18.41 0,-6.92 -1.52,-13.05 -4.57,-18.41 -3.05,-5.35 -7.21,-9.47 -12.48,-12.35 -5.27,-2.88 -11.16,-4.32 -17.67,-4.32 -6.51,0 -12.4,1.44 -17.67,4.32 -5.27,2.88 -9.43,7 -12.48,12.35 -3.05,5.35 -4.57,11.49 -4.57,18.41 0,6.92 1.48,13.16 4.45,18.47 2.96,5.31 7.04,9.43 12.23,12.35 3.79,2.14 7.91,3.48 12.36,4.06 v 0.15 h 1.45 c 1.18,0.11 2.38,0.18 3.6,0.18 1.22,0 2.45,-0.07 3.65,-0.18 h 7.91 c 5.33,0 9.57,4.78 8.67,10.28 -0.7,4.27 -4.57,7.31 -8.9,7.31 h -27.22 c -4.61,0 -8.35,3.74 -8.35,8.35 v 4.93 h 35.36 c 11.61,0 21.59,-8.79 22.46,-20.37 0.6,-8 -3.09,-15.2 -9.01,-19.53 2.35,-2.18 4.38,-4.7 6.06,-7.59 z m -49.39,-18.4 c 0,-4.69 0.86,-8.66 2.58,-11.91 1.72,-3.25 4.05,-5.69 6.98,-7.34 2.93,-1.64 6.12,-2.46 9.56,-2.46 3.44,0 6.65,0.82 9.62,2.46 2.97,1.64 5.36,4.09 7.16,7.34 1.8,3.25 2.7,7.22 2.7,11.91 0,4.69 -0.94,8.68 -2.82,11.97 -1.88,3.29 -4.32,5.75 -7.33,7.39 -2.48,1.35 -5.11,2.14 -7.88,2.38 h -3.71 c -4.55,-0.4 -8.39,-2.27 -11.52,-5.61 -3.56,-3.79 -5.34,-9.17 -5.34,-16.14 z"
         id="path30" />
      <path
         class="cls-3"
         d="m 723.3,125.24 c -3.05,-5.35 -7.21,-9.47 -12.48,-12.35 -5.27,-2.88 -11.16,-4.32 -17.67,-4.32 -6.51,0 -12.4,1.44 -17.67,4.32 -5.27,2.88 -9.43,7 -12.48,12.35 -3.05,5.35 -4.57,11.49 -4.57,18.41 0,6.92 1.48,13.16 4.45,18.47 2.96,5.31 7.04,9.43 12.23,12.35 5.19,2.92 10.99,4.39 17.42,4.39 6.43,0 12.46,-1.46 17.85,-4.39 5.39,-2.92 9.66,-7.06 12.79,-12.42 3.13,-5.35 4.69,-11.49 4.69,-18.41 0,-6.92 -1.52,-13.05 -4.57,-18.41 z m -13.72,30.38 c -1.88,3.29 -4.32,5.75 -7.33,7.39 -3.01,1.64 -6.24,2.46 -9.68,2.46 -5.4,0 -9.88,-1.9 -13.44,-5.69 -3.56,-3.79 -5.34,-9.17 -5.34,-16.14 0,-4.69 0.86,-8.66 2.58,-11.91 1.72,-3.25 4.05,-5.69 6.98,-7.34 2.93,-1.64 6.12,-2.46 9.56,-2.46 3.44,0 6.65,0.82 9.62,2.46 2.97,1.64 5.36,4.09 7.16,7.34 1.8,3.25 2.7,7.22 2.7,11.91 0,4.69 -0.94,8.68 -2.82,11.97 z"
         id="path32" />
      <path
         class="cls-3"
         d="m 424.02,108.56 h -4.93 v 47.97 c 0,4.52 -3.31,8.5 -7.81,8.99 -5.13,0.56 -9.49,-3.33 -9.75,-8.28 0,-0.15 0.01,-0.3 0.01,-0.46 v -16.62 l -0.03,-23.26 c 0,-4.61 -3.74,-8.34 -8.35,-8.34 h -4.91 l -0.04,31.6 v 16.62 c 0,0.15 0,0.3 0.01,0.46 -0.26,4.95 -4.62,8.84 -9.75,8.28 -4.5,-0.49 -7.81,-4.47 -7.81,-8.99 v -39.62 c 0,-4.61 -3.74,-8.35 -8.35,-8.35 h -4.93 v 47.76 c 0,12.03 9.43,22.21 21.46,22.54 6.24,0.17 11.92,-2.26 16.04,-6.28 4.12,4.02 9.8,6.45 16.04,6.28 12.03,-0.33 21.46,-10.51 21.46,-22.54 v -39.41 c 0,-4.61 -3.74,-8.35 -8.35,-8.35 z"
         id="path34" />
    </g>
  </g>
</svg>
