<svg version="1.1" id="Layer_1" xmlns="http://www.w3.org/2000/svg" x="0" y="0" viewBox="0 0 1000 172.3" style="enable-background:new 0 0 1000 172.3" xml:space="preserve"><style>.st1{fill-rule:evenodd;clip-rule:evenodd}</style><g style="opacity:.2"><path class="st1" d="M328.8 36.1c-17.1 16.3-49.8 27.3-87.6 27.3-28.1 0-53.5-6.2-71.7-16.1-21.1-11.4-50-27.3-87.8-27.3-28.1 0-53.5 6.2-71.7 16.1v-7.8c18.2-9.9 43.6-16.1 71.7-16.1 37.8 0 66.7 15.9 87.6 27.3 18.2 9.9 43.6 16.1 71.7 16.1 37.8 0 70.6-11.1 87.6-27.3v7.8z"/><path class="st1" d="M328.8 69c-17.1 16.3-49.8 27.3-87.6 27.3-28.1 0-53.5-6.2-71.7-16.1-20.9-11.4-49.8-27.3-87.6-27.3-28.3 0-53.7 6.2-71.9 16.1v-7.8c18.2-9.9 43.6-16.1 71.7-16.1 37.8 0 66.7 15.9 87.6 27.3 18.2 9.9 43.6 16.1 71.7 16.1 37.8 0 70.6-11.1 87.6-27.3V69h.2z"/><path class="st1" d="M328.8 102c-17.1 16.3-49.8 27.3-87.6 27.3-28.1 0-53.5-6.2-71.7-16.1-20.9-11.4-49.8-27.3-87.6-27.3-28.1 0-53.5 6.2-71.7 16.1v-7.8c18.2-9.9 43.6-16.1 71.7-16.1 37.8 0 66.7 15.9 87.6 27.3 18.2 9.9 43.6 16.1 71.7 16.1 37.8 0 70.6-11.1 87.6-27.3v7.8z"/><path class="st1" d="M328.8 135c-17.1 16.3-49.8 27.3-87.6 27.3-28.1 0-53.5-6.2-71.7-16.1-20.9-11.4-49.8-27.3-87.6-27.3-28.1 0-53.5 6.2-71.7 16.1v-7.8c18.2-9.9 43.6-16.1 71.7-16.1 37.8 0 66.7 15.9 87.6 27.3 18.2 9.9 43.6 16.1 71.7 16.1 37.8 0 70.6-11.1 87.6-27.3v7.8z"/></g><path d="M143.9 127.8h7.2c3 .2 5.7-2 5.9-5V39.5c.3-3-2-5.7-5-5.9h-8.1V15.2h52c27.9 0 50.1 14.1 50.1 41.2s-22.2 41.4-50.1 41.4h-17.8v24.1c-.2 3.1 2.1 5.7 5.1 5.9h15.5v18.3h-54.8v-18.3zm50.4-49.2c18.5 0 29.1-7.7 29.1-22 0-14.5-10.6-22-29.1-22h-16.2v44h16.2zm52.2 19.9c0-28.1 21.3-50.4 49.2-50.4 28.4 0 49.6 22.3 49.6 50.4 0 28.6-21.1 50.4-49.6 50.4-28.1 0-49.2-21.8-49.2-50.4zm77 0c0-18.2-11.3-31.8-27.7-31.8-16.1 0-27.4 13.6-27.4 31.8 0 18.1 11.3 31.8 27.4 31.8 16.3-.1 27.7-13.7 27.7-31.8zm49.2 38-.7 9.6h-18.2v-31.4h18.7v.3c.6 3.7 2.4 7.1 5.1 9.8 4.2 4.1 10 6.4 15.9 6.1 4.4.2 8.7-1.3 12-4.2 2.2-2.3 3.5-5.4 3.5-8.6.1-2.9-.9-5.8-3-7.9-2.7-2.4-6-3.9-9.6-4.4l-16.2-3.1c-8.2-1.6-14.3-4.5-18.5-8.6-4.5-4.7-6.9-11-6.6-17.5 0-7.5 2.8-14.8 8-20.2 6-5.7 14.1-8.7 22.3-8.6 9.4 0 17.8 3.5 23 10.8l.7-8.2h17.3v26.7h-18V77c-1-3.8-3.6-6.9-7.2-8.6-3.3-1.7-6.9-2.6-10.6-2.6-4.4-.2-8.7 1.3-12 4.2a8.36 8.36 0 0 0-2.8 6.6c-.2 2.3.6 4.5 2.3 6.1 2.2 1.8 4.9 3 7.7 3.3l16.2 3.1c9.2 1.7 16.1 4.9 20.4 9.3 5 5.3 7.6 12.3 7.3 19.5.1 8.3-3.1 16.4-8.9 22.3-5.7 5.6-13.3 8.6-21.3 8.6-10.3.5-20.3-4.1-26.8-12.3zm82.7-23V75.1c.2-1.6-.4-3.3-1.5-4.4-1.1-1.2-2.8-1.8-4.4-1.7h-12V50.7h18v-28H476v27.9h28.8V69h-22.7c-3.1-.3-5.8 2-6.1 5v39.5c0 9.6 5.8 15.2 16.1 15.2 3.8 0 10.1-.9 12.7-2.4v19.2c-3.1 1.7-9.6 2.6-15 2.6-21.3-.1-34.4-13-34.4-34.6zm65 14.3h5.6c2.5.3 4.9-1.2 5.8-3.6.3-.8.4-1.6.3-2.4V75.1c.1-.8 0-1.6-.3-2.4-.9-2.4-3.3-3.9-5.8-3.7h-5.6V50.7H552v14.8c5.4-10.6 18.8-17.5 31.6-17.5 13.3 0 24.4 6.6 30 18.2 7.7-11.1 20.3-17.9 33.9-18.2 20.6 0 33.7 12.2 33.7 31.8v42.1c-.2 3.1 2.1 5.7 5.1 5.9h6.4v18.3h-45.9v-18.3h7.5c2.5.2 4.8-1.3 5.6-3.6.3-.8.4-1.6.3-2.3v-39c0-11-6.6-17.3-17.5-17.3-15.5 0-25.7 11.2-25.7 27.2v29c-.1 1.6.4 3.2 1.6 4.3 1.1 1.1 2.7 1.7 4.3 1.6h7.7V146h-48.2v-18.3h7.7c3 .3 5.7-2 5.9-5V83.1c0-11-6.6-17.4-17.5-17.4-15.7 0-25.7 11.2-25.7 27.6v28.6c-.3 3 1.9 5.6 4.8 5.9h8.6v18.3h-46.1l.3-18.3zm279.4 0v18.3h-29.3v-20.4c-1.4 3.6-3.5 6.9-6.1 9.8-8.5 8.7-20.1 13.6-32.3 13.4-17.5 0-29.5-11.2-29.7-26.7 0-20.2 17.1-26.9 38.2-31.1 11.2-2.3 21.5-3.7 26-8.2 1.6-1.5 2.5-3.6 2.4-5.8 0-6.5-4.9-11.5-17.3-11.5-14.5 0-26.2 7.2-27.7 15.4v.3h-17.1V50.7h18.5v11c7.2-9.3 19.4-13.6 30.9-13.6 19 0 31.9 11.7 31.9 30.9v42.9c-.3 3 1.9 5.6 4.9 5.9H799.8zm-30.4-28.6c-4.2 3.5-12.2 5.1-19.9 6.6-13.1 2.8-25.7 5.4-25.7 15.4 0 6.3 5.8 10.6 13.4 10.6 8.4-.3 16.3-3.8 22-9.9 6.2-6.1 9.8-14.2 10.2-22.7zm43.1 28.6h7.3c3 .3 5.6-1.9 5.9-4.8V75.1c.4-3-1.8-5.7-4.8-6.1-.4 0-.8-.1-1.1 0h-7.3V50.7h33.3v17.5c5.3-12.1 17.2-20 30.4-20.1 2.6 0 5.2.4 7.7 1.4v19.9c-2.9-.9-6-1.3-9.1-1.2-16.2 0-28.1 9.2-28.1 27.6V122c-.2 2.5 1.3 4.8 3.7 5.7.8.3 1.6.4 2.4.3h11.9v18.3h-52.2v-18.5zm75.9 0h7.3c3 .3 5.6-1.9 5.9-4.8V34.3c.3-3-1.9-5.6-4.9-5.9h-8.4V10h34.2v83.9l36.1-43.3H987V69h-12.9c-4.4-.2-8.6 1.8-11.2 5.4l-16.6 20.2 25.7 28.1c2.9 3.4 7.1 5.2 11.5 5.1h6.5v18.3h-25.1l-42.2-49.4v25.1c-.2 2.5 1.3 4.8 3.7 5.7.8.3 1.6.4 2.4.3h7.2v18.3h-47.5c-.1 0-.1-18.3-.1-18.3z"/></svg>