<svg version="1.1" id="Layer_1" xmlns="http://www.w3.org/2000/svg" x="0" y="0" viewBox="0 0 1000 275.4" style="enable-background:new 0 0 1000 275.4" xml:space="preserve"><style>.st0{fill:#55555a}</style><path class="st0" d="m10 237.5 15.4-18.4c10.7 8.9 21.7 14.4 35.4 14.4 10.7 0 17.2-4.1 17.2-11.3v-.4c0-6.5-4.1-10.1-23.9-15-23.9-6.1-39.3-12.6-39.3-36.1v-.4c0-21.5 17.2-35.7 41.5-35.7 17.2 0 32 5.3 44 15l-13.6 19.6c-10.5-7.3-20.7-11.7-30.8-11.7s-15.2 4.5-15.2 10.3v.4c0 7.7 5.1 10.3 25.5 15.6 24.1 6.3 37.5 14.8 37.5 35.6v.4c0 23.5-18 36.7-43.5 36.7-17.8 0-36-6.1-50.2-19zM119.6 136.4H168c28.2 0 45.2 16.8 45.2 40.9v.4c0 27.5-21.3 41.7-47.8 41.7h-19.8V255h-26.1V136.4zm46.8 59.8c13 0 20.5-7.7 20.5-18v-.4c0-11.7-8.1-18-21.1-18h-20.1V196h20.7v.2zM250.2 135.6h24.1L325 254.9h-27.3l-10.9-26.5h-50l-10.9 26.5h-26.5l50.8-119.3zm27.4 69.7L261.8 167 246 205.3h31.6zM337.3 136.4h54.1c15 0 26.7 4.1 34.6 12 6.5 6.5 10.1 15.8 10.1 27.1v.4c0 19.2-10.3 31.2-25.3 36.7l28.8 42.3h-30.4L383.9 217h-20.5v37.9h-26.1V136.4zm52.5 57.5c12.6 0 19.9-6.7 19.9-16.8v-.4c0-11.3-7.7-17-20.5-17h-25.9v34h26.5v.2zM574.5 136.4h42.9c26.1 0 44 13.4 44 36.1v.4c0 24.9-21.5 37.7-46.2 37.7h-32v44.2h-8.9V136.4h.2zm41.2 66.2c21.9 0 36.9-11.5 36.9-29v-.4c0-18.8-14.6-28.6-35.9-28.6h-33.6v58.1c0-.1 32.6-.1 32.6-.1zM802.4 237.5l5.7-6.5c13 12 25.1 17.6 42.5 17.6 17.8 0 30-10.1 30-23.5v-.4c0-12.4-6.5-19.8-33.6-25.3-28.4-5.7-39.9-15.4-39.9-33.4v-.4c0-17.6 16-31.2 38.1-31.2 17.2 0 28.6 4.7 40.7 14.4l-5.5 6.9c-11.3-9.7-22.3-13.4-35.4-13.4-17.4 0-28.8 10.1-28.8 22.3v.4c0 12.4 6.5 20.1 34.6 25.9 27.5 5.5 38.9 15.4 38.9 32.6v.4c0 19.2-16.4 32.4-39.3 32.4-19.4.2-33.8-5.9-48-18.8zM940 144.5h-41.3v-8.1H990v8.1h-41.3v110.4h-8.9V144.5h.2zM479.9 186.2l41.1-49.8h31.8l-48 56.3 51.5 62.2h-33.6L480.1 202v52.9H454V136.4h26.1v49.8h-.2z"/><path d="M775.3 109.5c-13.2 9.9-15.8 27.5-16.2 39.3-20.9-24.1 38.5-95-29-138.8 41.9 54.1-59.4 107.2-59.4 187 0 31.2 19.6 58.9 62.4 68.3 42.1-8.9 62.8-37.1 62.8-68.3 0-46.6-29.1-62.2-20.6-87.5zm-42.1 130.4c-22.9 0-41.5-18.6-41.5-41.5s18.6-41.5 41.5-41.5 41.5 18.6 41.5 41.5-18.5 41.5-41.5 41.5z" style="fill:#fa6423"/></svg>