<?xml version="1.0" encoding="UTF-8"?>
<svg xmlns="http://www.w3.org/2000/svg" width="107" height="24" viewBox="0 0 107 24" fill="none">
  <path d="M18.2609 0H5.73913C2.5695 0 0 2.5695 0 5.73913V18.2609C0 21.4305 2.5695 24 5.73913 24H18.2609C21.4305 24 24 21.4305 24 18.2609V5.73913C24 2.5695 21.4305 0 18.2609 0Z" fill="#0E121B"></path>
  <path d="M18.2609 0H5.73913C2.5695 0 0 2.5695 0 5.73913V18.2609C0 21.4305 2.5695 24 5.73913 24H18.2609C21.4305 24 24 21.4305 24 18.2609V5.73913C24 2.5695 21.4305 0 18.2609 0Z" fill="url(#paint0_linear_1_97)" fill-opacity="0.16"></path>
  <path fill-rule="evenodd" clip-rule="evenodd" d="M18.5 7L5.5 12.0264C8.06396 13.0924 10.0873 14.018 11.57 14.7975C13.7807 15.9621 14.7888 16.81 14.5925 17.3392L18.5 7Z" fill="url(#paint1_linear_1_97)"></path>
  <path fill-rule="evenodd" clip-rule="evenodd" d="M11.2985 15.4045L8.8273 17.9044C12.0818 18.1188 13.8125 17.9727 14.023 17.4644C14.1961 17.0357 13.2879 16.3491 11.2985 15.4064" fill="url(#paint2_linear_1_97)"></path>
  <path fill-rule="evenodd" clip-rule="evenodd" d="M18.4995 7.00156L11.5695 14.7991C13.7802 15.9637 14.7883 16.8116 14.592 17.3408" fill="url(#paint3_linear_1_97)"></path>
  <path d="M37.204 20.36C35.892 20.36 34.868 19.98 34.132 19.22C33.396 18.452 33.028 17.384 33.028 16.016V4.088H34.744V15.872C34.744 16.848 34.944 17.568 35.344 18.032C35.744 18.496 36.364 18.728 37.204 18.728C38.156 18.728 39.032 18.316 39.832 17.492L40.888 18.752C39.856 19.824 38.628 20.36 37.204 20.36ZM29.464 9.044V7.46H40.096V9.044H29.464ZM48.0066 20.36C46.8706 20.36 45.8746 20.092 45.0186 19.556C44.1626 19.02 43.4986 18.268 43.0266 17.3C42.5546 16.324 42.3186 15.192 42.3186 13.904V13.556C42.3186 12.26 42.5546 11.128 43.0266 10.16C43.4986 9.192 44.1626 8.44 45.0186 7.904C45.8746 7.368 46.8706 7.1 48.0066 7.1C49.1506 7.1 50.1466 7.368 50.9946 7.904C51.8506 8.44 52.5146 9.192 52.9866 10.16C53.4586 11.128 53.6946 12.26 53.6946 13.556V13.904C53.6946 15.192 53.4586 16.324 52.9866 17.3C52.5146 18.268 51.8506 19.02 50.9946 19.556C50.1466 20.092 49.1506 20.36 48.0066 20.36ZM48.0066 18.728C49.2226 18.728 50.1786 18.3 50.8746 17.444C51.5706 16.58 51.9186 15.388 51.9186 13.868V13.592C51.9186 12.072 51.5706 10.884 50.8746 10.028C50.1786 9.164 49.2226 8.732 48.0066 8.732C46.7906 8.732 45.8346 9.164 45.1386 10.028C44.4426 10.884 44.0946 12.072 44.0946 13.592V13.868C44.0946 15.388 44.4426 16.58 45.1386 17.444C45.8346 18.3 46.7906 18.728 48.0066 18.728ZM60.6813 20.396C59.5853 20.396 58.5173 20.188 57.4773 19.772C56.4373 19.348 55.5173 18.752 54.7173 17.984L56.3853 15.896C57.7293 17.184 59.1773 17.828 60.7293 17.828C61.3453 17.828 61.8213 17.712 62.1573 17.48C62.5013 17.248 62.6733 16.924 62.6733 16.508C62.6733 15.876 62.2213 15.412 61.3173 15.116L59.5173 14.54C58.4853 14.204 57.6933 13.724 57.1413 13.1C56.5893 12.468 56.3133 11.712 56.3133 10.832C56.3133 10.064 56.5093 9.392 56.9013 8.816C57.3013 8.24 57.8533 7.792 58.5573 7.472C59.2693 7.152 60.0933 6.992 61.0293 6.992C62.0373 6.992 62.9493 7.148 63.7653 7.46C64.5893 7.772 65.3933 8.256 66.1773 8.912L64.5093 11.024C63.9173 10.504 63.3373 10.128 62.7693 9.896C62.2093 9.656 61.6133 9.536 60.9813 9.536C60.4613 9.536 60.0413 9.644 59.7213 9.86C59.4013 10.076 59.2413 10.368 59.2413 10.736C59.2413 11.048 59.3413 11.304 59.5413 11.504C59.7493 11.704 60.0893 11.88 60.5613 12.032L62.3613 12.608C63.4733 12.968 64.2933 13.452 64.8213 14.06C65.3493 14.668 65.6133 15.436 65.6133 16.364C65.6133 17.164 65.4053 17.868 64.9893 18.476C64.5733 19.084 63.9933 19.556 63.2493 19.892C62.5133 20.228 61.6573 20.396 60.6813 20.396ZM73.6319 20.396C72.4479 20.396 71.4039 20.14 70.4999 19.628C69.6039 19.108 68.9039 18.4 68.3999 17.504C67.8959 16.6 67.6439 15.568 67.6439 14.408C67.6439 13.44 67.8039 12.512 68.1239 11.624C68.4519 10.736 68.9279 9.944 69.5519 9.248C70.1759 8.552 70.9399 8.004 71.8439 7.604C72.7559 7.204 73.7919 7.004 74.9519 7.004C76.4079 7.004 77.5119 7.356 78.2639 8.06C79.0159 8.756 79.3919 9.644 79.3919 10.724C79.3919 11.756 79.0599 12.588 78.3959 13.22C77.7319 13.844 76.6879 14.296 75.2639 14.576C73.8479 14.848 72.0119 14.984 69.7559 14.984L69.5759 13.052C71.1599 13.012 72.4599 12.924 73.4759 12.788C74.4999 12.644 75.2559 12.428 75.7439 12.14C76.2399 11.844 76.4879 11.448 76.4879 10.952C76.4879 10.544 76.3439 10.228 76.0559 10.004C75.7759 9.78 75.3439 9.668 74.7599 9.668C73.9199 9.668 73.1879 9.888 72.5639 10.328C71.9479 10.76 71.4679 11.332 71.1239 12.044C70.7879 12.756 70.6199 13.52 70.6199 14.336C70.6199 15.344 70.8919 16.136 71.4359 16.712C71.9799 17.28 72.7359 17.564 73.7039 17.564C74.3199 17.564 74.8799 17.448 75.3839 17.216C75.8959 16.976 76.4039 16.588 76.9079 16.052L78.6839 18.248C77.9799 18.984 77.2199 19.528 76.4039 19.88C75.5959 20.224 74.6719 20.396 73.6319 20.396ZM90.3625 20.192C89.4665 20.192 88.7625 19.94 88.2505 19.436C87.7385 18.924 87.4825 18.232 87.4825 17.36C87.4825 17.088 87.5025 16.808 87.5425 16.52C87.5905 16.232 87.6665 15.872 87.7705 15.44L88.4425 12.68C88.5305 12.312 88.5985 11.984 88.6465 11.696C88.6945 11.408 88.7185 11.144 88.7185 10.904C88.7185 10.504 88.6145 10.2 88.4065 9.992C88.1985 9.776 87.8905 9.668 87.4825 9.668C86.9625 9.668 86.4745 9.848 86.0185 10.208C85.5705 10.56 85.1825 11.056 84.8545 11.696C84.5345 12.336 84.2985 13.08 84.1465 13.928L83.0665 20H79.8865L82.1065 7.4H85.1545L84.7105 9.956L84.1945 9.368H84.9145C86.0825 7.792 87.4705 7.004 89.0785 7.004C90.0145 7.004 90.7385 7.268 91.2505 7.796C91.7705 8.316 92.0305 9.024 92.0305 9.92C92.0305 10.256 92.0025 10.604 91.9465 10.964C91.8905 11.324 91.8065 11.724 91.6945 12.164L90.9505 15.296C90.8705 15.624 90.8145 15.864 90.7825 16.016C90.7585 16.16 90.7465 16.284 90.7465 16.388C90.7465 16.964 91.0985 17.252 91.8025 17.252H92.4265L91.9585 19.916C91.4385 20.1 90.9065 20.192 90.3625 20.192ZM96.9411 20.396C95.6531 20.396 94.6291 19.92 93.8691 18.968C93.1091 18.016 92.7291 16.736 92.7291 15.128C92.7291 13.584 92.9811 12.2 93.4851 10.976C93.9971 9.744 94.6891 8.776 95.5611 8.072C96.4411 7.36 97.4331 7.004 98.5371 7.004C99.3051 7.004 99.9571 7.196 100.493 7.58C101.037 7.956 101.433 8.504 101.681 9.224H102.617L101.633 10.244L103.013 2.48H105.977L103.889 14.192C103.801 14.688 103.737 15.084 103.697 15.38C103.665 15.668 103.649 15.924 103.649 16.148C103.649 16.852 104.041 17.204 104.825 17.204H105.389L104.909 19.94C104.701 20.02 104.485 20.08 104.261 20.12C104.045 20.168 103.813 20.192 103.565 20.192C102.813 20.192 102.233 19.968 101.825 19.52C101.417 19.072 101.213 18.44 101.213 17.624C101.213 17.4 101.233 17.156 101.273 16.892C101.321 16.62 101.397 16.276 101.501 15.86L102.101 17.024L101.153 16.88C100.753 18.016 100.193 18.888 99.4731 19.496C98.7531 20.096 97.9091 20.396 96.9411 20.396ZM97.8891 17.6C98.6411 17.6 99.2811 17.212 99.8091 16.436C100.337 15.652 100.737 14.504 101.009 12.992L101.285 11.432C101.069 10.864 100.789 10.448 100.445 10.184C100.101 9.92 99.6731 9.788 99.1611 9.788C98.5211 9.788 97.9451 10.008 97.4331 10.448C96.9291 10.88 96.5291 11.472 96.2331 12.224C95.9451 12.976 95.8011 13.828 95.8011 14.78C95.8011 15.684 95.9811 16.38 96.3411 16.868C96.7091 17.356 97.2251 17.6 97.8891 17.6Z" fill="#0E121B"></path>
  <defs>
    <linearGradient id="paint0_linear_1_97" x1="12" y1="0" x2="12" y2="24" gradientUnits="userSpaceOnUse">
      <stop stop-color="white"></stop>
      <stop offset="1" stop-color="white" stop-opacity="0"></stop>
    </linearGradient>
    <linearGradient id="paint1_linear_1_97" x1="18.5" y1="6.5" x2="7" y2="19" gradientUnits="userSpaceOnUse">
      <stop stop-color="white"></stop>
      <stop offset="1" stop-color="white" stop-opacity="0.4"></stop>
    </linearGradient>
    <linearGradient id="paint2_linear_1_97" x1="18.5" y1="6.5" x2="7" y2="19" gradientUnits="userSpaceOnUse">
      <stop stop-color="white"></stop>
      <stop offset="1" stop-color="white" stop-opacity="0.4"></stop>
    </linearGradient>
    <linearGradient id="paint3_linear_1_97" x1="18.5" y1="6.5" x2="7" y2="19" gradientUnits="userSpaceOnUse">
      <stop stop-color="white"></stop>
      <stop offset="1" stop-color="white" stop-opacity="0.4"></stop>
    </linearGradient>
  </defs>
</svg>
