<svg xmlns="http://www.w3.org/2000/svg" viewBox="0 0 1000 229" style="enable-background:new 0 0 1000 229" xml:space="preserve"><path d="M417.6 51.8v125.4h-21.8V78.8h-.3l-38.9 98.4h-14.5l-39.8-98.4h-.3v98.4h-20V51.8h31.4l36 92.9h.6l38-92.9h29.6zm18 9.6c0-3.5 1.2-6.4 3.8-8.7 2.6-2.3 5.5-3.5 9-3.5 3.8 0 7 1.2 9.3 3.5 2.3 2.3 3.8 5.2 3.8 8.7 0 3.5-1.2 6.4-3.8 8.7-2.6 2.3-5.5 3.5-9.3 3.5s-6.7-1.2-9-3.5c-2.4-2.6-3.8-5.5-3.8-8.7zm23.5 25.8v90h-21.2v-90h21.2zm64.1 74.6c3.2 0 6.7-.6 10.5-2.3 3.8-1.5 7.3-3.5 10.5-5.8v19.7c-3.5 2-7.3 3.5-11.6 4.4-4.4.9-9 1.5-14.2 1.5-13.4 0-24.1-4.1-32.2-12.5-8.4-8.4-12.5-19.2-12.5-31.9 0-14.5 4.4-26.4 12.8-35.7 8.4-9.3 20.3-13.9 36-13.9 4.1 0 8.1.6 11.9 1.5 4.1.9 7.3 2.3 9.6 3.5v20.3c-3.2-2.3-6.7-4.4-9.9-5.5-3.5-1.2-7-2-10.5-2-8.4 0-15.1 2.6-20.3 8.1-5.2 5.5-7.5 12.8-7.5 22.1 0 9 2.6 16.3 7.5 21.2s11.5 7.3 19.9 7.3zm81-76c1.7 0 3.2 0 4.6.3 1.5.3 2.6.6 3.5.9v21.5c-1.2-.9-2.6-1.7-4.9-2.3s-4.6-1.2-7.8-1.2c-5.2 0-9.6 2.3-13.1 6.7s-5.5 11-5.5 20.3v45.3h-21.2v-90H581v14.2h.3c2-4.9 4.9-8.7 8.7-11.6 4.1-2.7 8.7-4.1 14.2-4.1zm9.3 47.9c0-14.8 4.4-26.7 12.5-35.4 8.4-8.7 20-13.1 34.8-13.1 13.9 0 25 4.1 32.8 12.5 7.8 8.4 11.9 19.7 11.9 34 0 14.5-4.4 26.1-12.5 34.8-8.4 8.7-19.7 13.1-34.3 13.1-13.9 0-25-4.1-33.1-12.2-8-8.5-12.1-19.8-12.1-33.7zm22.1-.9c0 9.3 2 16.5 6.4 21.5 4.4 4.9 10.5 7.5 18.3 7.5 7.5 0 13.6-2.3 17.7-7.5 4.1-4.9 6.1-12.2 6.1-22.1 0-9.6-2-16.8-6.1-22.1-4.1-4.9-10.2-7.5-17.4-7.5-7.8 0-13.6 2.6-18 7.8-5 5.6-7 12.8-7 22.4zM737.2 111c0 2.9.9 5.5 2.9 7.3 2 1.7 6.1 3.8 12.8 6.4 8.4 3.5 14.5 7.3 17.7 11.3 3.5 4.4 5.2 9.3 5.2 15.4 0 8.4-3.2 15.1-9.9 20.3-6.4 5.2-15.4 7.5-26.4 7.5-3.8 0-7.8-.6-12.5-1.5-4.6-.9-8.4-2-11.6-3.5v-20.9c3.8 2.6 8.1 4.9 12.5 6.4s8.4 2.3 12.2 2.3c4.6 0 8.4-.6 10.5-2 2.3-1.5 3.5-3.5 3.5-6.7 0-2.9-1.2-5.2-3.5-7.5-2.3-2-7-4.4-13.4-7-7.8-3.2-13.4-7-16.5-11-3.2-4.1-4.9-9.3-4.9-15.7 0-8.1 3.2-14.8 9.6-20 6.4-5.2 14.8-7.8 25-7.8 3.2 0 6.7.3 10.5 1.2s7.3 1.7 9.9 2.6v20.6c-2.9-1.7-6.1-3.5-9.9-4.9-3.8-1.5-7.5-2-11-2-4.1 0-7.3.9-9.3 2.3-2.3 2-3.4 4-3.4 6.9zm47.6 22.7c0-14.8 4.4-26.7 12.5-35.4 8.4-8.7 20-13.1 34.8-13.1 13.9 0 25 4.1 32.8 12.5 7.8 8.4 11.9 19.7 11.9 34 0 14.5-4.4 26.1-12.5 34.8-8.4 8.7-19.7 13.1-34.3 13.1-13.9 0-25-4.1-33.1-12.2-7.8-8.5-12.1-19.8-12.1-33.7zm22-.9c0 9.3 2 16.5 6.4 21.5 4.4 4.9 10.5 7.5 18.3 7.5 7.5 0 13.6-2.3 17.7-7.5 4.1-4.9 6.1-12.2 6.1-22.1 0-9.6-2-16.8-6.1-22.1-4.1-4.9-10.2-7.5-17.4-7.5-7.8 0-13.6 2.6-18 7.8-4.6 5.6-7 12.8-7 22.4zm140.5-28.2h-31.6v72.6h-21.5v-72.6h-15.1V87.2h15.1V74.7c0-9.3 3.2-17.1 9.3-23.2 6.1-6.1 13.9-9 23.5-9 2.6 0 4.9.3 7 .3 2 0 3.8.6 5.2 1.2v18.3c-.6-.3-2-.9-3.8-1.5-1.7-.6-3.8-.9-6.1-.9-4.4 0-7.8 1.5-10.2 4.1-2.3 2.6-3.5 7-3.5 12.2v10.7h31.6V66.6l21.2-6.4v26.7H990v17.4h-21.5v42.1c0 5.5 1.2 9.3 2.9 11.6 2 2.3 5.2 3.5 9.6 3.5 1.2 0 2.6-.3 4.4-.9 1.7-.6 3.2-1.2 4.4-2V176c-1.5.9-3.5 1.5-6.7 2-3.2.6-6.1.9-9.3.9-9 0-15.7-2.3-20-7-4.4-4.6-6.7-11.9-6.7-21.5l.2-45.8z" style="fill:#737373"/><path style="fill:#f25022" d="M10 10h99.3v99.3H10z"/><path style="fill:#7fba00" d="M119.7 10H219v99.3h-99.3z"/><path style="fill:#00a4ef" d="M10 119.7h99.3V219H10z"/><path style="fill:#ffb900" d="M119.7 119.7H219V219h-99.3z"/></svg>