<svg version="1.1" id="Layer_1" xmlns="http://www.w3.org/2000/svg" x="0" y="0" viewBox="0 0 1000 513.1" style="enable-background:new 0 0 1000 513.1" xml:space="preserve"><style>.st0{fill:#1f222e}</style><path class="st0" d="M88.2 113.6h145.5c43.8 0 75.4 12.9 94.8 38.7 19.4 25.8 24.4 61.7 15.2 107.8-3.8 18.9-9.8 36.3-18.1 52.1-8.3 15.8-19 30.2-32 43.3-15.5 15.7-32.6 27-51.3 33.8-18.7 6.8-42.3 10.2-70.9 10.2h-64.9l-21 103.6H10l78.2-389.5zm63.1 61.7-32.7 163h46.1c30.6 0 53.5-6.4 68.8-19.3 15.3-12.9 26-34.3 32-64.4 5.8-29 4.1-49.4-5.2-61.3-9.3-11.9-28.3-17.9-57.1-17.9h-51.9zM431.8 10h75L486 113.6h67c42 0 70.8 8.3 86.3 24.8s19.6 43.1 12.2 79.9l-36.4 181.2h-76L573.7 227c3.9-19.6 3-32.9-2.7-40-5.7-7.1-18.2-10.6-37.5-10.6h-60.1l-44.8 223.1h-75L431.8 10zM730.1 113.6h145.5c43.8 0 75.4 12.9 94.8 38.7 19.4 25.8 24.4 61.7 15.2 107.8-3.8 18.9-9.9 36.3-18.1 52.1-8.3 15.8-19 30.2-32 43.3-15.5 15.7-32.6 27-51.3 33.8-18.7 6.8-42.3 10.2-70.9 10.2h-64.9l-20.8 103.6h-75.5l78-389.5zm63.1 61.7-32.7 163h46.1c30.6 0 53.5-6.4 68.8-19.3 15.3-12.9 26-34.3 32-64.4 5.8-29 4.1-49.4-5.2-61.3-9.3-11.9-28.3-17.9-57.1-17.9h-51.9z"/></svg>