<svg version="1.1" id="Layer_1" xmlns="http://www.w3.org/2000/svg" x="0" y="0" viewBox="0 0 639.3 600" style="enable-background:new 0 0 639.3 600" xml:space="preserve"><style>.st0{fill:#2d2f7a}</style><path class="st0" d="M10.1 30.4c0-5.2 4.2-9.4 9.4-9.4h75.9c4.1 0 7.5 3.3 7.5 7.5V33c0 4.1-3.3 7.5-7.5 7.5H32.2v50h50c4.1 0 7.5 3.3 7.5 7.5v4.5c0 4.1-3.4 7.5-7.5 7.5h-50v51.4h67c4.1 0 7.5 3.3 7.5 7.5v4.5c0 4.1-3.3 7.5-7.5 7.5H19.4c-5.2 0-9.4-4.2-9.4-9.4l.1-141.1zM152.3 174c0 5-2.5 7.5-7.5 7.5h-7c-5 0-7.5-2.5-7.5-7.5V17.5c0-5 2.5-7.5 7.5-7.5h7c5 0 7.5 2.5 7.5 7.5V174zM277.2 66.3h-5.5c-5 0-7.5 2.1-7.5 6.3v5.7c0 1.5.2 3 .5 4.5h-.5c-1.7-3.7-4.2-6.9-7.2-9.5-3.3-2.8-7-5-11-6.7-5.6-2.2-11.6-3.3-17.6-3.1-30.5 0-51.2 21.7-51.2 61 0 36.1 20.3 59.6 49.3 59.6 15.5 0 32.4-6.4 37.7-19.5h.5c-.2 1.5-.4 3.1-.5 4.6v5.8c0 4.2 2.5 6.3 7.5 6.3h5.4c5 0 7.5-2.5 7.5-7.5v-100c.1-5-2.4-7.5-7.4-7.5m-46 98.9c-19.3 0-31.5-18.1-31.5-41.5 0-22 8.8-41.1 32.5-41.1 18.1 0 30.9 16.1 30.9 41.1 0 24.7-12.9 41.5-31.9 41.5zM312.1 171.1c-1.8-.9-2.9-2.6-3.2-4.5-.1-2 .5-4 1.6-5.7l2.3-3.2c1-1.6 2.7-2.8 4.6-3.2 2 0 4 .5 5.8 1.6 3.5 2.2 7.1 4.1 10.9 5.9 5.4 2.4 11.3 3.6 17.2 3.4 5 .2 9.9-1.2 14-4 3.6-2.6 5.6-6.8 5.4-11.2.1-3.6-1.5-6.9-4.4-9-3.4-2.5-7.1-4.6-11-6.2-4.4-1.9-9.1-3.7-14.2-5.4-5-1.7-9.7-4-14.2-6.8-4.3-2.7-8-6.2-11-10.3-3.1-4.7-4.7-10.2-4.4-15.8-.1-5 1-9.9 3.3-14.4 2.1-4.1 5.2-7.6 8.9-10.3 4-2.8 8.5-4.9 13.2-6.2 5.2-1.5 10.6-2.2 16-2.1 6.7-.2 13.5.9 19.8 3.2 4.1 1.6 8.1 3.5 11.9 5.7 1.8.7 3.2 2.3 3.7 4.2.3 2-.1 4.1-1.3 5.8l-2 3.4c-2.1 3.8-5.4 4.6-10 2.5-3-1.6-6.2-3.1-9.4-4.3-4.5-1.6-9.2-2.4-13.9-2.3-4.8-.2-9.6 1.1-13.7 3.6-3.7 2.4-5.8 6.5-5.5 10.9-.1 3.6 1.5 7 4.4 9.2 3.4 2.6 7 4.7 11 6.2 4.4 1.8 9.1 3.6 14.2 5.4 4.9 1.8 9.7 4 14.2 6.7 4.3 2.6 8.1 6.1 11 10.2 3.1 4.7 4.6 10.3 4.4 16 .1 9.4-4.1 18.3-11.3 24.2-3.9 3.1-8.3 5.5-13 7-5.5 1.7-11.2 2.6-16.9 2.5-4.4 0-8.9-.4-13.2-1.3-3.7-.7-7.3-1.8-10.8-3.2-2.9-1.2-5.8-2.5-8.5-4.1-2.1-1.3-4.1-2.6-5.9-4.1M501.4 43.4c-5 0-7.5-2.5-7.5-7.5v-7.5c0-5 2.5-7.5 7.5-7.5h7.7c5 0 7.5 2.5 7.5 7.5v7.5c0 5-2.5 7.5-7.5 7.5h-7.7zm-7.2 30.4c0-5 2.5-7.5 7.5-7.5h7c5 0 7.5 2.5 7.5 7.5V174c0 5-2.5 7.5-7.5 7.5h-7c-5 0-7.5-2.5-7.5-7.5V73.8zM628.7 169c1.4 2.9.3 6.5-2.6 8-8.6 4.4-18.1 6.7-27.7 6.5-40.8 0-58-30.6-58-60 0-28.8 18.3-60 57-60 9.2-.1 18.2 1.9 26.4 6.1 3 1.5 4.1 5.2 2.6 8.2l-2.8 5.6c-1.4 2.9-4.8 4.1-7.8 2.9-5.1-2.3-10.7-3.6-16.4-3.7-23.8 0-36.7 12.8-36.7 40.8 0 23.8 12.5 41.2 37.2 41.2 6.3 0 12.5-1.4 18.3-4 3-1.3 6.4 0 7.8 2.9.9 1.8 1.9 3.7 2.7 5.5M447.3 174c0 4.1-3.3 7.5-7.5 7.5h-7c-4.1 0-7.5-3.3-7.5-7.5V85.3h-11.9c-4.8 0-7.3-2.5-7.3-7.5v-4.1c0-3.5 2.8-6.3 6.3-6.3h13.3V42.3c0-4.1 3.3-7.5 7.5-7.5h6.6c4.1 0 7.5 3.3 7.5 7.5v25.1h21.1c3.5 0 6.3 2.8 6.3 6.3v4.1c0 5-2.4 7.5-7.3 7.5h-20.2l.1 88.7zM53.6 436.2c0-5.2 4.2-9.4 9.4-9.4h75.9c4.1 0 7.5 3.3 7.5 7.5v4.5c0 4.1-3.3 7.5-7.5 7.5H75.7v50h50c4.1 0 7.5 3.3 7.5 7.5v4.5c0 4.1-3.3 7.5-7.5 7.5h-50v51.4h67c4.1 0 7.5 3.3 7.5 7.5v4.5c0 4.1-3.4 7.5-7.5 7.5H63c-5.2 0-9.4-4.2-9.4-9.4V436.2zM173.4 479.5c0-5 2.5-7.5 7.5-7.5h6.3c5 0 7.5 2.5 7.5 7.5v10.2c0 1.5-.1 3-.5 4.5-.2.7-.2 1.4-.2 2h.5c1.5-3.6 3.5-6.9 6-9.9 2.7-3.3 5.8-6.2 9.3-8.6 3.6-2.5 7.5-4.6 11.6-6.1 4.1-1.6 8.6-2.4 13-2.4 18.9 0 30.3 8.7 34.4 26h.5c1.6-3.5 3.8-6.8 6.3-9.7 2.7-3.2 5.8-6 9.3-8.4 3.6-2.5 7.4-4.4 11.6-5.8 4.3-1.4 8.8-2.2 13.4-2.1 13.1 0 22.7 3.7 28.8 11 6 7.3 9 18.3 9 32.9v66.5c0 5-2.5 7.5-7.5 7.5h-7c-5 0-7.5-2.5-7.5-7.5V518c0-3.8-.3-7.6-.8-11.3-.4-3.2-1.4-6.2-2.9-9-1.4-2.6-3.5-4.7-6.1-6.1-3.2-1.6-6.7-2.4-10.3-2.3-5-.1-9.9 1.2-14.3 3.7-4.3 2.5-7.9 5.9-10.8 10-3 4.3-5.3 9.1-6.7 14.2-1.5 5.2-2.3 10.6-2.3 16.1v46.6c0 5-2.4 7.5-7.2 7.5H257c-4.8 0-7.3-2.5-7.3-7.5V518c0-3.6-.2-7.3-.7-10.9-.4-3.2-1.3-6.3-2.7-9.2-1.4-2.6-3.4-4.8-6-6.3-3.2-1.7-6.9-2.5-10.5-2.4-5.1-.1-10.2 1.3-14.6 3.8-4.3 2.6-8 6-10.9 10.1-3 4.3-5.3 9.1-6.7 14.2-1.5 5.1-2.3 10.5-2.3 15.8v46.6c0 5-2.5 7.5-7.5 7.5h-7c-5 0-7.5-2.5-7.5-7.5l.1-100.2zM517.4 449.2c-5 0-7.5-2.5-7.5-7.5v-7.5c0-5 2.5-7.5 7.5-7.5h7.7c5 0 7.5 2.5 7.5 7.5v7.5c0 5-2.5 7.5-7.5 7.5h-7.7zm-7.3 30.3c0-5 2.5-7.5 7.5-7.5h7c5 0 7.5 2.5 7.5 7.5v100.2c0 5-2.5 7.5-7.5 7.5h-7c-5 0-7.5-2.5-7.5-7.5V479.5zM585.7 579.8c0 5-2.5 7.5-7.5 7.5h-7c-5 0-7.5-2.5-7.5-7.5V423.2c0-5 2.5-7.5 7.5-7.5h7c5 0 7.5 2.5 7.5 7.5v156.6zM470.7 472.1h-5.4c-5 0-7.5 2.1-7.5 6.3v5.7c0 1.5.2 3 .5 4.5h-.4c-1.7-3.7-4.2-6.9-7.2-9.5-3.3-2.8-7-5-11-6.7-5.6-2.2-11.6-3.3-17.6-3.1-30.5 0-51.2 21.7-51.2 61 0 36.1 20.3 59.7 49.3 59.7 15.5 0 32.4-6.4 37.7-19.5h.5c-.2 1.5-.4 3.1-.5 4.6v5.8c0 4.2 2.5 6.3 7.5 6.3h5.4c5 0 7.5-2.5 7.5-7.5V479.5c-.1-5-2.6-7.4-7.6-7.4M424.8 571c-19.3 0-31.5-18.1-31.5-41.6 0-22 8.8-41.1 32.5-41.1 18.1 0 30.9 16.1 30.9 41.1 0 24.8-12.9 41.6-31.9 41.6"/><path id="Path_25675_00000029748216955481258850000017170753934632845240_" d="M426.5 289.7c-7.7-10-19.1-16.6-31.6-18.3-1.9-.3-3.9-.5-5.8-.5h-17.4c-3 0-5.4 2.4-5.4 5.3v8.8c0 3 2.4 5.4 5.4 5.4H386c1 0 2.1.1 3.1.1.9 0 1.8.2 2.7.4 7.1 1.4 13.4 5.5 17.6 11.5 4 5.9 5.7 13 4.8 20-.9 7.1-4.5 13.6-9.9 18.2-2.8 2.3-6 4.1-9.5 5.1-3.9.9-8 1.3-12 1.2H253c-4.5-.1-8.9-1-13-2.9-6.4-3.3-11.3-9-13.6-15.9-2.3-6.7-2.1-14 .6-20.6 4.1-10.4 14.2-17.2 25.4-17.2h59.9l-17.6 19.5c-1.6 1.8-1.5 4.5.3 6.2l.1.1 5.8 4.8c1.9 1.6 4.8 1.3 6.4-.6l28.3-34c2.8-3.3 2.8-8.1 0-11.4l-28.3-34c-1.6-1.9-4.5-2.2-6.4-.6l-5.8 4.8c-1.9 1.5-2.1 4.3-.6 6.2l.1.1 17.7 19.5h-59.9c-6.2 0-12.3 1-18.1 3.1-11.9 4.4-21.6 13.3-27.1 24.7-5.4 11.7-5.8 25-1.2 37 4.7 11.8 13.8 21.3 25.4 26.4 5.6 2.7 11.7 4.2 18 4.3h133.3c5.8.1 11.6-.4 17.2-1.5 6-1.6 11.7-4.3 16.8-7.9 21.2-15.3 25.9-45 10.5-66.1-.1-.5-.4-.9-.7-1.2z" style="fill:#5457ff"/></svg>