<svg version="1.1" id="Layer_1" xmlns="http://www.w3.org/2000/svg" x="0" y="0" viewBox="0 0 733.7 160" xml:space="preserve"><style>.st0{fill:#243846}.st2{fill:#3f7cbc}</style><path class="st0" d="M151.1 140.8l18.5-14.5c5.2 9 13.5 14.2 23 14.2 10.3 0 15.8-6.7 15.8-14 0-8.7-10.6-11.5-21.9-15-14.2-4.4-30.1-9.9-30.1-30.2 0-17 14.8-30.5 35.3-30.5 17.3 0 27.2 6.5 35.8 15.4l-16.7 12.6c-4.4-6.5-10.6-10-18.9-10-9.4 0-14.5 5.1-14.5 11.8 0 8.1 10.2 10.9 21.5 14.7 14.4 4.7 30.7 11 30.7 31.4 0 16.9-13.4 33.1-36.8 33.1-19.3.1-32.1-8.1-41.7-19zm162.6-55.1h19.8v8.1c4.7-6 11.8-9.6 20.1-9.6 17.1 0 27.5 11 27.5 29.8v44.3h-20.3v-41.7c0-9.7-4.5-15.4-13.4-15.4-7.6 0-13.8 5.2-13.8 17.4v39.7h-19.9V85.7zm72 36.4c0-25.7 18.9-37.8 35.3-37.8 9.4 0 16.9 3.5 21.7 8.6V52.3h19.9v106.1h-19.9v-8.1c-4.8 5.7-12.5 9.6-21.9 9.6-15.5 0-35.1-12.3-35.1-37.8zm57.5-.2c0-10.8-7.8-19.5-18.6-19.5-11 0-19.5 8.3-19.5 19.5s8.4 19.6 19.5 19.6c10.8 0 18.6-8.8 18.6-19.6zm24-16.5c0-30.2 22.8-54.5 54.2-54.5 15.7 0 28.9 5.7 38.5 14.7 3.9 3.7 7.2 7.9 9.8 12.5L552 88.9c-6.5-12.1-16.6-18.3-30.4-18.3-19.3 0-34.3 15.8-34.3 34.9 0 19.5 14.7 34.9 35 34.9 15.4 0 26.3-8.7 30.1-22.2h-33.3V98.9h55.1v8.1c0 28.5-20.3 53-51.9 53-33.2-.1-55.1-25.3-55.1-54.6zm112-19.7H599v11.9c3.6-7.6 10.2-11.9 20.1-11.9h8l-7.2 19.3h-5.4c-10.6 0-15.3 5.5-15.3 19v34.3h-19.9V85.7h-.1zm53 0h19.9v72.7h-19.9v-53.3H625l7.2-19.4zm10-11c6.6 0 11.9-5.3 11.9-11.9s-5.3-11.9-11.9-11.9c-6.6 0-11.9 5.3-11.9 11.9 0 6.5 5.3 11.9 11.9 11.9zm14.6 47.4c0-25.7 18.9-37.8 35.3-37.8 9.4 0 16.9 3.5 21.7 8.6V52.3h19.9v106.1h-19.9v-8.1c-4.8 5.7-12.5 9.6-21.9 9.6-15.5 0-35.1-12.3-35.1-37.8zm57.6-.2c0-10.8-7.8-19.5-18.6-19.5-11 0-19.5 8.3-19.5 19.5s8.4 19.6 19.5 19.6c10.7 0 18.6-8.8 18.6-19.6zm-405.4 0c0-20.9-15.3-37.6-37.5-37.6-20.9 0-37.8 16.9-37.8 37.8s15.7 37.8 38.4 37.8c15.7 0 27-7.6 33.3-18.4l-15.8-9.4c-3.3 6.4-9.8 10.4-17.4 10.4-10.5 0-17-5.2-19.3-13.2H309v-7.4zm-55.2-8.7c3.1-6.8 9.4-11.5 17.9-11.5 8.4 0 14.7 3.9 17.3 11.5h-35.2z"/><path d="M42.4 116h42.4v42.4H42.4zm0-42.5H0V116h42.4z" fill="#9edbee"/><path class="st2" d="M0 116h42.4v42.4H0z"/><path d="M127.3 73.5H84.9V116h42.4zM42.4 31.1h42.4v42.4H42.4z" fill="#07b2e2"/><path fill="#0f9cd5" d="M42.4 73.5V116h42.5V73.5z"/><path class="st2" d="M84.9 31.1h42.4v42.4H84.9z"/><path class="st0" d="M171.2 5.5v24.7h-5.7V5.5h-8.8v-5h23.4v4.9h-8.9v.1zm50.5 24.7h-5.4l-6.6-21.6-6.6 21.6h-5.4L189.4.4l6 .1 5.5 21 6.2-21h5.7l6.2 21 5.4-21h5.7l-8.4 29.7zm19.8 0V.5h5.7v29.7h-5.7zm19 0V.5h5.7v24.7h9.9l.1 5h-15.7zm27.5 0V.5h5.7v29.7H288zm31.8.6c-8.4 0-13.9-6.2-13.9-15.4S311.4 0 319.9 0s13.9 6.2 13.9 15.4c-.1 9.1-5.5 15.4-14 15.4zm0-26.1c-5.1 0-8.1 4.2-8.1 10.7s3.1 10.7 8.1 10.7c5.1 0 8.2-4.2 8.2-10.7s-3.1-10.7-8.2-10.7z"/></svg>