<svg xmlns="http://www.w3.org/2000/svg" width="152" height="80"><path d="M77.5 0C118.645 0 152 17.909 152 40s-33.355 40-74.5 40S0 62.091 0 40 36.355 0 77.5 0z" fill-rule="evenodd" fill="#777bb3"/><path d="M32.331 21.353h15.952q7.023.059 10.178 4.044t2.083 10.884a20.864 20.864 0 01-1.844 6.186 18.385 18.385 0 01-3.809 5.472 13.3 13.3 0 01-6.369 3.925 29.343 29.343 0 01-7.022.836h-7.145L32.093 64H23.82l8.511-42.643m6.964 6.78l-3.571 17.839a4.38 4.38 0 00.714.059h.833a31.319 31.319 0 009.523-1.13q3.809-1.249 5.119-8.683 1.071-6.245-2.143-7.2a26.728 26.728 0 00-7.916-.892q-.714.059-1.369.059h-1.25l.06-.059M69.968 9.994h8.214l-2.321 11.36h7.38q6.071.12 9.047 2.5 3.036 2.378 1.786 9.04L90.086 52.7h-8.333l3.809-18.913q.595-2.974-.357-4.223T81.1 28.312l-6.607-.059L69.611 52.7H61.4L69.971 10M102.9 21.353h15.951q7.023.059 10.178 4.044t2.083 10.884a20.861 20.861 0 01-1.845 6.185 18.389 18.389 0 01-3.809 5.472 13.3 13.3 0 01-6.369 3.925 29.341 29.341 0 01-7.023.833h-7.143L102.656 64h-8.273l8.517-42.647m6.963 6.78l-3.571 17.842a4.376 4.376 0 00.714.059h.834a31.317 31.317 0 009.523-1.13q3.809-1.249 5.119-8.683 1.071-6.245-2.143-7.2a26.724 26.724 0 00-7.916-.892q-.714.059-1.369.059H109.8l.059-.059" fill="#fff" fill-rule="evenodd"/></svg>