<?xml version="1.0" encoding="UTF-8" standalone="no"?><!DOCTYPE svg PUBLIC "-//W3C//DTD SVG 1.1//EN" "http://www.w3.org/Graphics/SVG/1.1/DTD/svg11.dtd"><svg width="100%" height="100%" viewBox="0 0 2013 300" version="1.1" xmlns="http://www.w3.org/2000/svg" xmlns:xlink="http://www.w3.org/1999/xlink" xml:space="preserve" xmlns:serif="http://www.serif.com/" style="fill-rule:evenodd;clip-rule:evenodd;stroke-linejoin:round;stroke-miterlimit:2;"><path d="M300,30c0,-16.557 -13.443,-30 -30,-30l-240,0c-16.557,0 -30,13.443 -30,30l0,240c0,16.557 13.443,30 30,30l240,0c16.557,0 30,-13.443 30,-30l0,-240Z" style="fill:#c716c1;"/><path d="M165,25c0,-0 -80.084,21.458 -119.113,31.916c-12.32,3.301 -20.887,14.466 -20.887,27.221c0,3.784 0,6.536 0,6.536c0,0 72.08,-19.314 112.8,-30.225c16.044,-4.298 27.2,-18.837 27.2,-35.447c0,-0.001 0,-0.001 0,-0.001Z" style="fill:#fff;"/><path d="M111.266,83.11c0,-0 -39.848,10.677 -65.379,17.518c-12.32,3.301 -20.887,14.466 -20.887,27.221c0,3.784 0,6.536 0,6.536c0,0 33.783,-9.052 59.066,-15.827c16.044,-4.299 27.2,-18.838 27.2,-35.447c0,-0.001 0,-0.001 0,-0.001Z" style="fill:#fff;"/><g><path d="M400.68,257.348c-3.782,-0 -6.569,-1.244 -8.361,-3.733c-1.792,-2.488 -2.289,-6.022 -1.493,-10.6l18.215,-114.067l-17.916,0c-6.371,0 -9.556,-2.488 -9.556,-7.465c0,-7.564 3.882,-11.346 11.646,-11.346l18.513,-0l1.792,-11.347c2.588,-16.125 8.958,-28.915 19.11,-38.371c10.153,-9.456 24.187,-14.681 42.103,-15.677l9.257,-0.597c4.579,-0.398 7.565,0.946 8.958,4.031c1.394,3.086 1.443,6.221 0.149,9.406c-1.293,3.185 -3.732,4.977 -7.315,5.375l-8.958,0.597c-11.745,0.797 -20.753,4.131 -27.024,10.004c-6.271,5.872 -10.302,14.482 -12.093,25.829l-1.792,10.75l31.353,-0c6.371,-0 9.556,2.388 9.556,7.166c-0,7.764 -3.882,11.645 -11.646,11.645l-31.95,0l-18.514,116.456c-1.393,7.962 -6.071,11.944 -14.034,11.944Z" style="fill:#c716c1;fill-rule:nonzero;"/><path d="M530.871,257.945c-14.333,-0 -24.735,-4.23 -31.204,-12.691c-6.47,-8.46 -8.411,-20.952 -5.823,-37.474l24.485,-153.184c1.195,-7.962 5.773,-11.944 13.736,-11.944c3.782,0 6.569,1.244 8.361,3.733c1.792,2.488 2.289,6.022 1.493,10.6l-23.888,150.795c-1.593,10.55 -0.796,18.115 2.389,22.693c3.185,4.579 8.858,6.868 17.02,6.868c2.787,0 4.927,-0.149 6.42,-0.448c1.493,-0.298 2.737,-0.447 3.733,-0.447c1.592,-0 2.786,0.497 3.583,1.493c0.796,0.995 1.194,2.886 1.194,5.673c0,3.782 -0.896,6.719 -2.687,8.809c-1.792,2.09 -4.081,3.533 -6.868,4.33c-1.394,0.398 -3.285,0.696 -5.674,0.895c-2.388,0.199 -4.479,0.299 -6.27,0.299Z" style="fill:#c716c1;fill-rule:nonzero;"/><path d="M620.75,257.945c-15.726,-0 -27.72,-4.877 -35.981,-14.632c-8.262,-9.754 -10.7,-24.983 -7.316,-45.686l12.243,-78.234c1.194,-7.564 5.673,-11.347 13.437,-11.347c3.981,0 6.917,1.195 8.808,3.584c1.892,2.388 2.439,5.673 1.643,9.853l-11.944,76.144c-4.181,26.874 4.578,40.312 26.277,40.312c13.735,-0 24.883,-4.479 33.443,-13.438c8.56,-8.958 13.935,-20.902 16.125,-35.832l10.749,-69.276c1.195,-7.564 5.674,-11.347 13.438,-11.347c8.361,0 11.944,4.38 10.749,13.139l-19.707,124.517c-1.195,7.764 -5.574,11.646 -13.139,11.646c-8.162,-0 -11.546,-4.38 -10.152,-13.139l1.791,-13.437c-5.375,8.759 -12.392,15.478 -21.051,20.156c-8.66,4.678 -18.464,7.017 -29.413,7.017Z" style="fill:#c716c1;fill-rule:nonzero;"/><path d="M802.898,257.945c-20.703,-0 -37.126,-5.723 -49.269,-17.17c-12.144,-11.446 -18.215,-27.123 -18.215,-47.03c-0,-15.726 3.185,-30.109 9.555,-43.148c6.37,-13.039 15.328,-23.49 26.874,-31.353c11.546,-7.863 25.282,-11.795 41.208,-11.795c15.129,0 27.073,3.434 35.832,10.302c8.759,6.868 14.731,15.826 17.916,26.874c3.185,11.048 4.081,22.644 2.687,34.787c-0.597,3.385 -1.542,5.624 -2.836,6.719c-1.294,1.095 -3.434,1.642 -6.42,1.642l-101.227,0c-1.393,15.528 1.892,27.87 9.854,37.027c7.963,9.157 19.708,13.736 35.235,13.736c7.167,-0 14.085,-0.846 20.753,-2.538c6.669,-1.692 13.089,-4.629 19.26,-8.809c4.38,-2.787 7.963,-3.335 10.75,-1.642c2.787,1.692 4.18,4.379 4.18,8.062c0,3.683 -1.99,6.917 -5.972,9.704c-6.768,4.778 -14.731,8.411 -23.888,10.899c-9.157,2.489 -17.916,3.733 -26.277,3.733Zm9.854,-132.58c-10.551,0 -19.31,2.24 -26.277,6.719c-6.968,4.479 -12.492,10.302 -16.573,17.468c-4.081,7.167 -6.917,14.632 -8.51,22.395l88.387,0c1.194,-13.138 -1.045,-24.187 -6.719,-33.145c-5.673,-8.958 -15.776,-13.437 -30.308,-13.437Z" style="fill:#c716c1;fill-rule:nonzero;"/><path d="M904.124,257.049c-3.782,0 -6.519,-1.294 -8.211,-3.882c-1.692,-2.588 -2.24,-6.071 -1.642,-10.451l19.409,-122.726c1.194,-7.962 5.872,-11.944 14.034,-11.944c3.583,0 6.221,1.145 7.913,3.434c1.692,2.29 2.14,5.624 1.344,10.003l-2.09,13.438c5.374,-8.759 12.491,-15.528 21.35,-20.305c8.858,-4.778 19.16,-7.167 30.905,-7.167c16.125,0 28.318,4.877 36.579,14.632c8.261,9.754 10.7,24.883 7.316,45.387l-12.243,77.936c-1.194,7.763 -5.773,11.645 -13.736,11.645c-3.782,0 -6.569,-1.244 -8.361,-3.732c-1.791,-2.489 -2.388,-5.923 -1.791,-10.302l11.944,-75.547c4.379,-26.874 -4.579,-40.311 -26.874,-40.311c-14.532,-0 -26.078,4.479 -34.638,13.437c-8.56,8.958 -14.035,20.902 -16.424,35.832l-10.749,68.679c-1.195,7.963 -5.873,11.944 -14.035,11.944Z" style="fill:#c716c1;fill-rule:nonzero;"/><path d="M1121.81,257.945c-16.921,-0 -29.313,-4.778 -37.176,-14.333c-7.863,-9.555 -10.501,-22.296 -7.913,-38.221l12.243,-76.443l-18.514,0c-7.166,0 -10.749,-2.687 -10.749,-8.062c-0,-3.583 1.144,-6.27 3.433,-8.062c2.29,-1.792 5.425,-2.687 9.406,-2.687l19.41,-0l5.375,-35.236c1.194,-7.564 5.673,-11.347 13.437,-11.347c8.56,0 12.043,4.579 10.451,13.736l-5.076,32.847l35.832,-0c7.166,-0 10.75,2.587 10.75,7.763c-0,3.384 -1.095,6.072 -3.285,8.062c-2.19,1.991 -5.076,2.986 -8.66,2.986l-37.922,0l-11.646,74.054c-1.99,12.143 -0.746,20.902 3.733,26.277c4.479,5.375 11.397,8.062 20.753,8.062c4.18,0 7.465,-0.398 9.854,-1.194c2.389,-0.796 4.379,-1.194 5.972,-1.194c1.99,-0 3.483,0.547 4.479,1.642c0.995,1.095 1.493,3.036 1.493,5.823c-0,3.981 -0.647,6.867 -1.941,8.659c-1.294,1.792 -3.235,3.185 -5.823,4.181c-5.176,1.791 -11.148,2.687 -17.916,2.687Z" style="fill:#c716c1;fill-rule:nonzero;"/><path d="M1274.39,257.945c-15.726,-0 -31.254,-2.09 -46.582,-6.271c-15.328,-4.18 -27.77,-9.754 -37.325,-16.721l17.02,-38.819c10.153,6.37 21.002,11.248 32.548,14.632c11.546,3.384 23.191,5.076 34.936,5.076c11.944,-0 21.052,-1.642 27.322,-4.927c6.271,-3.285 9.406,-7.913 9.406,-13.885c0,-5.375 -2.836,-9.754 -8.51,-13.139c-5.673,-3.384 -16.473,-6.768 -32.398,-10.152c-19.708,-4.181 -35.136,-9.157 -46.284,-14.93c-11.147,-5.773 -18.961,-12.542 -23.44,-20.305c-4.479,-7.764 -6.719,-17.319 -6.719,-28.666c0,-12.94 3.633,-24.535 10.899,-34.787c7.267,-10.252 17.519,-18.315 30.757,-24.187c13.238,-5.873 28.417,-8.809 45.537,-8.809c15.129,0 29.81,2.14 44.043,6.42c14.234,4.28 25.332,9.804 33.295,16.572l-16.722,38.819c-19.111,-13.139 -39.217,-19.708 -60.318,-19.708c-10.152,0 -18.314,1.941 -24.485,5.823c-6.171,3.882 -9.257,9.008 -9.257,15.378c0,3.782 1.095,6.868 3.285,9.257c2.189,2.388 6.27,4.727 12.242,7.017c5.972,2.289 14.831,4.628 26.576,7.017c19.111,4.18 34.14,9.207 45.089,15.079c10.949,5.873 18.713,12.691 23.291,20.455c4.579,7.763 6.868,17.02 6.868,27.77c-0,20.703 -7.963,36.877 -23.888,48.523c-15.926,11.645 -38.321,17.468 -67.186,17.468Z" style="fill:#9e0099;fill-rule:nonzero;"/><path d="M1566.72,44.742l42.402,0l-0,210.516l-47.776,-0l-0,-110.484l-40.61,75.547l-35.236,-0l-40.311,-73.755l-0.299,108.692l-47.776,-0l-0,-210.516l43.297,0l63.304,119.74l63.005,-119.74Z" style="fill:#9e0099;fill-rule:nonzero;"/><path d="M1695.42,255.258l0,-166.024l-63.005,0l0,-44.492l181.551,0l-0,44.492l-63.006,0l0,166.024l-55.54,-0Z" style="fill:#9e0099;fill-rule:nonzero;"/><path d="M1836.66,44.742l101.824,0c23.291,0 41.406,5.923 54.346,17.767c12.939,11.845 19.409,28.318 19.409,49.419c-0,20.902 -6.52,37.325 -19.559,49.27c-13.039,11.944 -31.104,17.916 -54.196,17.916l-46.881,-0l0,76.144l-54.943,-0l0,-210.516Zm94.359,93.165c10.152,-0 17.667,-2.091 22.544,-6.271c4.878,-4.181 7.316,-10.65 7.316,-19.409c0,-8.759 -2.438,-15.279 -7.316,-19.559c-4.877,-4.28 -12.392,-6.42 -22.544,-6.42l-39.416,0l0,51.659l39.416,-0Z" style="fill:#9e0099;fill-rule:nonzero;"/></g><path d="M96.429,150c-11.775,0 -21.429,9.66 -21.429,21.442l0,82.116c0,11.782 9.654,21.442 21.429,21.442l157.142,0c11.775,0 21.429,-9.66 21.429,-21.442l0,-82.116c0,-11.782 -9.654,-21.442 -21.429,-21.442l-157.142,0Zm-0,14.295l157.142,-0c0.503,-0 0.893,0.167 1.34,0.279l-79.911,45.33l-79.911,-45.33c0.447,-0.112 0.837,-0.279 1.34,-0.279Zm-7.143,13.625l85.714,49.406l85.714,-49.406l0,75.638c0,4.02 -3.125,7.147 -7.143,7.147l-157.142,0c-4.018,0 -7.143,-3.127 -7.143,-7.147l-0,-75.638Z" style="fill:#fff;fill-opacity:0.7;fill-rule:nonzero;"/></svg>