<svg xmlns="http://www.w3.org/2000/svg" viewBox="0 0 713 103"><path d="M150.3 32.9c-7.2 0-11.9 2.4-11.9 6.6s4.9 6.1 12.1 6.9c10.3.9 23.7 2.6 23.7 16.6 0 9.9-9.4 17-23.8 17-9.1 0-17.8-2-25.5-9.9l6.1-7.9c5.1 5.1 12 8 19.2 7.9 6.2 0 12.3-1.9 12.3-6.9s-4.8-6.7-13-7.4c-10.4-.9-22.8-4-22.8-15.9s12.8-16.4 23.2-16.4c7.8-.2 15.3 2.3 21.5 7.1l-6.1 7.1c-4.2-3.3-9.5-5-15-4.8zm62.5 36.6c5.9 0 12.7-2 16.2-5.8l7.6 7.1c-5.8 6.2-15.4 9.2-24 9.2-18.3 0-30.1-11-30.1-28.2 0-16.4 12.2-28.2 29.9-28.2 16.4 0 27.7 9.3 27.7 27.8 0 1.5-.1 3.2-.2 4.8h-45.2c.9 8.3 7.8 13.3 18.1 13.3zm-.4-36c-8.5 0-15.8 4.5-17.6 13.2h33.9c-.8-8.6-6.6-13.2-16.3-13.2zm81.7 15c0-9.3-5.4-14.6-15.1-14.6-4.2 0-8.3 1.7-11.3 4.8-3 3.1-4.5 7.3-4.4 11.6v28.5h-11.7v-54h10.7l.7 7.5c4.7-5.6 11.5-8.9 18.8-8.8 13.5 0 24 8.1 24 24.9v30.3H294l.1-30.2zM377 78.7h-11l-.7-8.5c-4.4 6.4-11.7 10.1-19.3 9.8-16.2 0-28.5-10.4-28.5-28.2 0-18.3 12.1-28.2 28.3-28.2 6.8 0 16 3.2 19.6 9.6V2.5h11.7l-.1 76.2zm-47.9-27c0 10.9 7.7 17.8 17.6 17.8 9.6 0 17.5-7.9 17.5-17.7s-7.8-17.7-17.5-17.7c-9.9 0-17.6 6.7-17.6 17.6zM398.7 1c1.9-.2 3.7.5 5.1 1.8S406 6 406 7.9c-.3 3.9-3.4 6.8-7.2 6.8s-7-3-7.2-6.8c0-1.9.7-3.8 2.1-5.1s3.2-1.9 5-1.8zm5.8 77.7h-11.7V24.8h11.7v53.9zm58.2-30.2c0-9.3-5.4-14.6-15.1-14.6-4.2 0-8.3 1.7-11.3 4.8-3 3.1-4.5 7.3-4.4 11.6v28.5h-11.7v-54h10.6l.7 7.5c4.7-5.6 11.6-8.9 18.8-8.8 13.5 0 24 8.1 24 24.9v30.3h-11.7l.1-30.2zm38.4-14.9c3.6-6.4 12.8-10.1 19.6-10.1 16.1 0 28.3 9.9 28.3 28.2 0 17.9-13.1 28.2-28.4 28.2-7 0-15.1-2.9-19.5-9.8l-.7 8.5h-11V2.5h11.7v31.1zm.7 18.1c-.1 4.8 1.8 9.4 5.2 12.8 3.4 3.4 8 5.2 12.7 5 10.2 0 17.6-6.9 17.6-17.8S529.8 34 519.7 34c-4.7-.2-9.3 1.6-12.7 5-3.4 3.4-5.3 8-5.2 12.7zm71.7 27h-11.7V2.5h11.7v76.2zm27.1-24.6c0 9.2 5.3 15.5 15.2 15.5 4.2 0 8.3-1.7 11.2-4.7 2.9-3.1 4.5-7.2 4.3-11.5V24.8H643v53.9h-10.5l-.7-7.4c-4.8 5.8-11.9 9-19.2 8.7-13.7 0-23.5-9.5-23.5-25.7V24.8h11.7l-.2 29.3zm85.1 15.4c5.9 0 12.7-2 16.2-5.8l7.6 7.1c-5.8 6.2-15.4 9.2-24 9.2-18.3 0-30.1-11-30.1-28.2 0-16.4 12.2-28.2 29.9-28.2 16.4 0 27.7 9.3 27.7 27.8 0 1.5-.1 3.2-.2 4.8h-45.3c1 8.3 7.9 13.3 18.2 13.3zm-.4-36c-8.5 0-15.9 4.5-17.6 13.2h33.8c-.7-8.6-6.6-13.2-16.2-13.2z" fill="#091e3f"/><path d="M90.8 26.3c-3.6-6.4-9.6-11-16.7-12.9-1.5-.4-3-.6-4.5-.8C64.6 5.3 56.2.9 47.2.9S29.9 5.3 24.9 12.7C16 13.5 8 18.6 3.6 26.3c-4.4 7.8-4.8 17.2-1.1 25.4C-1.2 59.8-.8 69.2 3.6 77c3.6 6.4 9.6 11 16.7 12.9 1.5.4 3 .7 4.6.8 5 7.4 13.4 11.8 22.4 11.8S64.6 98 69.7 90.6c8.9-.8 16.8-5.9 21.2-13.6 4.5-7.8 4.9-17.2 1.1-25.4 3.7-8.1 3.2-17.5-1.2-25.3zm-6.8 4c2.2 3.8 3 8.1 2.3 12.4-1.5-1.3-3.1-2.5-4.8-3.5-6.3-3.7-13.9-4.7-21-2.8-4.3 1.1-8.3 3.3-11.6 6.3-1.2-7.7 2.4-15.3 9.2-19.3 4.3-2.5 9.4-3.2 14.2-2 5.1 1.3 9.3 4.5 11.7 8.9zM47.2 9.9c4.2 0 8.3 1.5 11.5 4.2-1.9.6-3.7 1.4-5.4 2.4-10.1 6-15.3 17.8-12.7 29.3-7.1-2.9-11.7-9.7-11.7-17.3C28.8 18.3 37 10 47.2 9.9zM10.6 30.8c2.1-3.6 5.5-6.4 9.5-8-.4 1.9-.7 3.9-.7 5.8 0 11.7 7.8 22.2 19.4 25.8-2.1 1.7-4.5 2.9-7.1 3.6-4.8 1.2-9.9.6-14.2-1.9-9.1-5.1-12.2-16.4-7-25.3h.1zM10.5 73c-2.2-3.8-3-8.1-2.3-12.4 1.5 1.3 3.1 2.5 4.8 3.5 4.2 2.4 9 3.7 13.9 3.7 2.4 0 4.8-.3 7.1-.9 4.3-1.1 8.3-3.3 11.6-6.3 1.2 7.7-2.4 15.3-9.2 19.3-4.3 2.5-9.4 3.2-14.2 2-5-1.3-9.2-4.5-11.7-8.9zm36.9 20.4c-4.2 0-8.3-1.5-11.5-4.2 1.9-.6 3.7-1.4 5.4-2.4 10.1-6 15.3-17.8 12.8-29.2 8.2 3.3 13 11.9 11.4 20.6-1.7 8.7-9.3 15.1-18.1 15.2zm34.7-20.8c-2.1 3.6-5.3 6.4-9.2 8 .4-1.9.7-3.9.7-5.9 0-11.8-7.6-22.2-18.8-25.8 2-1.7 4.4-2.9 6.9-3.6 4.7-1.2 9.6-.5 13.8 2 8.7 5.2 11.7 16.4 6.6 25.3z" fill="#0092ff"/></svg>