<?xml version="1.0" encoding="utf-8"?>
<!-- Generator: Adobe Illustrator 24.0.1, SVG Export Plug-In . SVG Version: 6.00 Build 0)  -->
<svg version="1.1" id="Layer_1" xmlns="http://www.w3.org/2000/svg" xmlns:xlink="http://www.w3.org/1999/xlink" x="0px" y="0px"
	 viewBox="0 0 1000 226.3" style="enable-background:new 0 0 1000 226.3;" xml:space="preserve">
<style type="text/css">
	.st0{filter:url(#Adobe_OpacityMaskFilter);}
	.st1{fill-rule:evenodd;clip-rule:evenodd;fill:#FFFFFF;}
	.st2{mask:url(#Mailgun-Logo_svg__b_2_);fill-rule:evenodd;clip-rule:evenodd;fill:#F06B66;}
	.st3{fill-rule:evenodd;clip-rule:evenodd;fill:#131B20;}
</style>
<g>
	<defs>
		<filter id="Adobe_OpacityMaskFilter" filterUnits="userSpaceOnUse" x="10" y="10.1" width="194.7" height="197.8">
			<feColorMatrix  type="matrix" values="1 0 0 0 0  0 1 0 0 0  0 0 1 0 0  0 0 0 1 0"/>
		</filter>
	</defs>
	<mask maskUnits="userSpaceOnUse" x="10" y="10.1" width="194.7" height="197.8" id="Mailgun-Logo_svg__b_2_">
		<g class="st0">
			<path id="Mailgun-Logo_svg__a_2_" class="st1" d="M4.4,283.9h987.9V-8.8H4.4V283.9z"/>
		</g>
	</mask>
	<path class="st2" d="M106,10.1c54.4,0,98.8,44.4,98.8,98.9c-0.1,17.7-14.5,31.9-32.2,31.8c-5.8,0-11.5-1.6-16.5-4.7l-0.5-0.3
		l-0.2,0.5c-15.1,27.4-49.5,37.3-76.9,22.2S41.2,109,56.3,81.6s49.5-37.3,76.9-22.2c18.1,10,29.3,29,29.3,49.6
		c0.5,5.7,5.6,9.9,11.4,9.4c5-0.5,8.9-4.4,9.4-9.4c0-42.7-34.6-77.3-77.3-77.4c-42.7-0.1-77.4,34.5-77.5,77.2s34.5,77.4,77.2,77.5
		c22.7,0,44.4-9.9,59.1-27.3l16.5,13.9c-18.7,22.2-46.3,34.9-75.3,34.9C51.3,206.3,8.4,160.6,10,106C11.6,53.7,53.7,11.7,106,10.1z
		 M106,73.9c-19.4-1-35.9,14-36.8,33.3s14,35.9,33.3,36.8c1.2,0.1,2.4,0.1,3.6,0c19.4-1,34.3-17.5,33.2-36.9
		C138.3,89.2,124,74.8,106,73.9z M106,94.8c7.8,0,14.2,6.3,14.2,14.2s-6.3,14.2-14.2,14.2s-14.2-6.3-14.2-14.2S98.1,94.8,106,94.8z"
		/>
	<g>
		<path class="st3" d="M257,61.5h20.6v11.9c2.3-3,4.6-5.5,6.9-7.3c4.8-3.9,10.9-6,17.1-5.9c7.6,0,14.3,1.8,20.1,5.2
			c5.9,3.4,11,8.2,15,14.5c7.3-12.4,20.6-19.9,34.9-19.7c8.6,0,16.3,2.2,23,6.6c6.8,4.4,12.3,10.5,15.8,17.7
			c3.8,7.4,5.7,15.5,5.7,24.4v55.7h-20.6V109c0-5.2-0.9-10-2.9-14.2c-1.8-4.1-4.7-7.6-8.3-10.2c-3.7-2.6-7.9-3.8-12.7-3.8
			c-9.3-0.1-17.8,5.4-21.5,13.9c-2.1,4.4-3.2,9.3-3.2,14.2v55.7h-20.5V109c0-5.1-1-9.9-3.2-14.2c-2-4.1-5-7.6-8.8-10.2
			c-3.8-2.5-8.3-3.8-12.8-3.8c-4.6,0-8.6,1.3-12.3,3.9s-6.4,6.2-8.6,10.6c-2.1,4.5-3.2,9.5-3.1,14.5v54.8h-20.6L257,61.5L257,61.5z"
			/>
		<path class="st3" d="M516.9,61.5V77c-6.7-11.7-19.3-18.8-32.7-18.5c-29.9,0.3-54,24.5-54.1,54.4c0.3,29.8,24.4,53.8,54.1,54.2
			c13.4,0.3,26-6.7,32.7-18.3v15.7h20.5V61.5H516.9z M511.3,130.4c-2.6,5.1-6.2,9.3-10.8,12.4c-4.8,3.1-10.4,4.8-16.1,4.7v-0.1
			c-5.9,0-11.3-1.5-16.5-4.6c-10.4-6.3-16.8-17.6-16.7-29.7c-0.2-12.2,6.1-23.5,16.6-29.8c10.1-6.1,22.7-6.1,32.7,0
			c4.7,3.1,8.4,7.4,10.8,12.4c2.7,5.2,3.9,11,3.9,17.4C515.2,119.4,513.9,125.2,511.3,130.4z"/>
		<path class="st3" d="M584.4,36.3c0.6,6-3.9,11.4-9.9,11.9c-6,0.6-11.4-3.9-11.9-9.9c-0.1-0.7-0.1-1.3,0-2c0.6-6,5.9-10.5,11.9-9.9
			C579.8,26.8,583.9,31,584.4,36.3"/>
		<polygon class="st3" points="563.2,164.7 583.8,164.7 583.8,61.6 563.2,61.6 		"/>
		<polygon class="st3" points="609.5,164.6 630,164.6 630,10 609.5,10 		"/>
		<path class="st3" d="M730.9,61.7v15.1c-3.3-5.4-8-9.9-13.4-13.2c-5.6-3.2-12-4.9-18.5-4.8c-9.6,0-18.5,2.4-26.5,7.3
			c-16.5,9.8-26.6,27.7-26.5,46.9c-0.1,19.2,10,37.1,26.5,46.9c8,4.8,16.9,7.3,26.5,7.3c6.9,0,13-1.6,18.5-4.8
			c5.5-3.2,10.1-7.8,13.4-13.2v18c0,5.3-1.6,10.1-4.8,14.4c-3.2,4.3-7.3,7.7-12.4,10.1c-5.1,2.4-10.8,3.7-16.5,3.7
			c-10.5-0.4-20.1-5.6-26.3-14.1h-23.1c5.3,13.5,15.6,24.3,28.8,30.3c6.6,3,13.4,4.6,20.6,4.6c9.4,0,18.3-2.2,26.6-6.4
			c8.2-4.2,15-10.1,20-17.6c5-7.4,7.6-15.7,7.6-24.9V61.7H730.9z M725.7,130.3L725.7,130.3c-2.3,5-6.1,9.4-10.7,12.5
			c-9.7,6.1-22.1,6.1-31.8,0c-10-6.6-16.1-17.7-16-29.7c0-6.2,1.4-11.9,4.2-17.2c2.7-5.3,6.7-9.5,11.6-12.5c9.8-6.2,22.2-6.2,31.9,0
			c4.6,3,8.2,7.3,10.8,12.5c2.6,5.2,3.8,11,3.8,17.2C729.5,119.3,728.2,125,725.7,130.3z"/>
		<path class="st3" d="M770.5,61.6h20.6v53.6c0,5.9,1.2,11.3,3.7,16.2c2.5,4.9,5.9,8.9,10.2,11.7c8.7,5.8,20,5.8,28.7,0
			c4.1-2.8,7.3-6.8,9.7-11.7c2.3-4.8,3.4-10.3,3.4-16.2V61.6h20.6v103.1h-20.5v-14.5c-3.7,5.5-8.2,9.6-13.4,12.7
			c-5.2,3-10.9,4.6-17.1,4.6c-9,0-16.9-2.4-23.8-7c-7-4.7-12.6-11.2-16.2-18.8c-3.9-8.1-5.9-17-5.9-26.1L770.5,61.6L770.5,61.6z"/>
		<path class="st3" d="M990,164.7h-20.6v-53.8c0.1-5.6-1.2-11.2-3.7-16.2c-2.3-4.8-5.9-8.9-10.3-11.8c-11.9-7.9-28-4.7-35.9,7.2
			c-1,1.4-1.8,3-2.4,4.6c-2.3,5.1-3.5,10.7-3.4,16.3v53.8h-20.6V61.6h20.6v14.4c3.7-5.5,8.1-9.7,13.3-12.7c5.2-3,11.2-4.6,17.2-4.6
			c9,0,16.9,2.4,23.8,7c7,4.7,12.3,11,16.2,18.8c3.8,7.9,5.8,16.6,5.9,26L990,164.7L990,164.7z"/>
	</g>
</g>
</svg>
