<?xml version="1.0" encoding="utf-8"?>
<!-- Generator: Adobe Illustrator 24.0.1, SVG Export Plug-In . SVG Version: 6.00 Build 0)  -->
<svg version="1.1" id="Layer_1" xmlns="http://www.w3.org/2000/svg" xmlns:xlink="http://www.w3.org/1999/xlink" x="0px" y="0px"
	 viewBox="0 0 1000 203" style="enable-background:new 0 0 1000 203;" xml:space="preserve">
<style type="text/css">
	.st0{fill:#FF5003;}
	.st1{fill-rule:evenodd;clip-rule:evenodd;fill:#143F93;}
</style>
<g>
	<path class="st0" d="M654.8,35.4c-27.7,0-53.4,14.6-67.5,38.4l-1,1.8l-0.7,1.2c-5.1,9.2-14.2,28.7-17.9,35.1
		c-5.1,9.3-10.8,18.3-16.9,26.9c-5.4,6.9-12.2,12.6-19.9,16.7c-23,12.3-51.6,3.7-63.9-19.3c-3.7-6.8-5.6-14.4-5.6-22.2
		c0.3-26,21.3-47,47.3-47.3c7.8,0,15.4,2,22.2,5.9c3.6,2.1,6.9,4.5,9.9,7.4c3.3,3,6.4,6.4,9,10.1l6.3,9.3l17.6-29.6l-3-3.8
		c-6.4-8.7-14.8-15.7-24.4-20.6c-11.5-6.4-24.5-9.8-37.7-9.8c-43.2,0.4-78.2,35.3-78.7,78.6c0.2,43.5,35.5,78.7,79,78.7
		c13.1,0,26-3.3,37.5-9.5c5.6-3.2,10.9-6.9,15.8-11.2c8-8,15-16.9,20.9-26.5c1.5,3.3,3.2,6.6,5.2,9.7c3.3,5.7,7.4,10.9,12,15.5v-0.4
		c31.1,30.3,80.8,29.7,111.1-1.4c30.3-31.1,29.7-80.9-1.4-111.2C695.1,43.4,675.4,35.4,654.8,35.4L654.8,35.4z M654.9,161
		c-26.1,0-47.2-21.1-47.2-47.2c0-26.1,21.1-47.2,47.2-47.2c26.1,0,47.2,21.1,47.2,47.2C702.1,139.9,680.9,161,654.9,161z"/>
	<path class="st1" d="M13.3,192.7c-2.2,0-3.3-1-3.3-3.3V45c-0.2-1.6,0.9-3.1,2.5-3.3c0.3,0,0.5,0,0.8,0h28c2.2,0,3.3,1,3.3,3
		c0,2,0,13.9,0,19.5c0,2.6,0.9,4,1.4,4c1.4,0.8,3.1,0.2,3.9-1.1c0.1-0.1,0.1-0.2,0.2-0.3c6.1-9.6,24.1-28.3,46.5-20.7
		c7.3,2.5,13.9,6.5,19.4,11.8c5.4,5.1,9.6,11.4,12.3,18.3c2.9,7.5,4.3,15.5,4.2,23.6v89.7c0.3,1.5-0.8,3-2.3,3.3
		c-0.3,0.1-0.6,0.1-1,0H98.1c-2.2,0-3.3-1-3.3-3.3V99.7C94.9,87,84.7,76.5,71.9,76.3c-0.2,0-0.4,0-0.6,0c-6.3-0.1-12.3,2.3-16.8,6.8
		c-4.6,4.3-7.1,10.4-6.9,16.6v89.7c0,2.2-1.1,3.3-3.3,3.3L13.3,192.7L13.3,192.7z"/>
	<path class="st1" d="M284,151.2c1.1,0.4,1.9,1.5,2,2.7c-0.3,1.3-0.8,2.6-1.5,3.8c-1,1.9-2.1,3.9-3.4,6.1
		c-5,8.3-11.7,15.4-19.7,20.9c-10.1,6-21.8,8.9-33.6,8.2c-8.7,0.1-17.3-1.4-25.5-4.4c-7.3-2.6-13.9-6.7-19.4-12
		c-5.4-5.2-9.6-11.5-12.4-18.4c-2.9-7.5-4.3-15.6-4.3-23.6V93.5c0.1-7.1,1.5-14.1,4.3-20.6c2.9-7,7.1-13.3,12.4-18.8
		c5.5-5.8,12.1-10.4,19.4-13.7c8-3.6,16.8-5.5,25.6-5.3c8.7-0.1,17.3,1.7,25.2,5.3c7.3,3.3,13.9,7.9,19.4,13.7
		c5.3,5.4,9.5,11.8,12.4,18.8c2.7,6.5,4.2,13.5,4.3,20.6v26.7c0.2,1.6-0.9,3-2.4,3.3c-0.3,0-0.6,0-0.9,0h-78.6
		c-1.6-0.2-3.1,0.9-3.3,2.5c0,0.3,0,0.5,0,0.8v7.4c-0.1,6.3,2.4,12.3,6.8,16.7c4.3,4.8,10.5,7.5,17,7.4c4.6-0.1,9.1-1.7,12.7-4.5
		c4.8-3.9,8.5-9,10.7-14.8c0.4-1.1,1.4-1.9,2.6-1.9c2,0.5,3.9,1.3,5.6,2.3L284,151.2z M247.1,92.1c2.4,0,3.6-1,3.6-3
		c-0.2-1.6-0.6-3.2-1.3-4.7c-1-2.4-2.4-4.6-4.1-6.4c-2.2-2.3-4.6-4.1-7.4-5.6c-3.2-1.7-6.8-2.6-10.5-2.4c-3.6-0.1-7.2,0.7-10.4,2.3
		c-2.8,1.4-5.3,3.3-7.4,5.6c-1.8,1.9-3.2,4.1-4.3,6.4c-0.7,1.5-1.2,3.1-1.3,4.8c0,1.9,1.2,3,3.6,3H247.1z"/>
	<path class="st1" d="M380.8,73h22.2c1.5,0.3,3-0.8,3.3-2.3c0.1-0.3,0.1-0.6,0-1V41.7c0.2-1.6-0.9-3-2.5-3.3c-0.3,0-0.5,0-0.8,0
		h-22.2c-2.2,0-3.3-1.1-3.3-3.3V13.4c0.2-1.6-0.9-3.1-2.5-3.3c-0.3,0-0.5,0-0.8,0h-30.7c-1.7-0.3-3.3,0.9-3.5,2.6
		c-0.1,0.3-0.1,0.6,0,1v21.8c0,1.6-1.3,3-3,3h-21.3c-1.6-0.2-3,0.9-3.3,2.5c0,0.3,0,0.5,0,0.8v28.1c-0.3,1.6,0.8,3.1,2.4,3.3
		c0.3,0,0.6,0.1,0.9,0h21c1.6-0.2,3,0.9,3.3,2.5c0,0.3,0,0.5,0,0.8v58.1c-0.2,11.2,2.8,22.3,8.7,31.8c6.2,9.5,15.3,16.7,25.9,20.6
		c5,2,10.2,3.5,15.5,4.4c4.1,0.9,8.3,1.4,12.6,1.5c1.6,0.2,3-0.9,3.3-2.5c0-0.3,0-0.5,0-0.8v-28.4c0-2.2-1-3.3-3-3.3
		c-7.1,0.1-13.9-2.6-19.1-7.4c-4-4.2-6.3-9.8-6.2-15.7V76.3C377.5,74.1,378.5,73,380.8,73z"/>
	<path class="st1" d="M767.2,192.7c-2.2,0-3.3-1-3.3-3.3V45c-0.2-1.6,0.9-3.1,2.5-3.3c0.3,0,0.5,0,0.8,0h28c0.9,0,1.7,0.2,2.5,0.5
		c0.5,0.4,0.8,1.2,0.8,2.5v19.6c0,2.1,0.9,3.3,2.6,3.3c0.9,0,1.7-0.3,2.4-1c1.7-1.8,10.7-24.5,25-24.9c3.1-0.1,6.2,0.3,9.2,1
		c1.6,0.3,2.8,1.7,2.7,3.3v33.2c0,2.4-1.1,3.6-3.3,3.6c-1.5-0.1-2.9-0.6-4.1-1.5c-2.3-1.1-4.8-1.6-7.4-1.5c-6.3-0.2-12.5,2.2-17,6.7
		c-4.4,4.3-6.9,10.3-6.7,16.5v86.4c0,2.2-1.1,3.3-3.3,3.3L767.2,192.7L767.2,192.7z"/>
	<path class="st1" d="M985.2,151.2c1.1,0.4,1.9,1.5,2,2.7c-0.3,1.3-0.8,2.6-1.6,3.8c-0.9,1.9-2.1,3.9-3.4,6.1
		c-5.1,8.3-11.9,15.5-20,20.9c-10.1,6-21.8,8.9-33.6,8.2c-8.7,0.1-17.4-1.3-25.6-4.3c-7.3-2.6-13.9-6.7-19.5-12
		c-5.3-5.2-9.6-11.5-12.3-18.4c-2.9-7.5-4.4-15.6-4.3-23.6v-41c0-7.1,1.5-14.1,4.3-20.6c2.9-7,7.1-13.3,12.3-18.8
		c5.6-5.8,12.2-10.4,19.5-13.7c8-3.6,16.8-5.5,25.6-5.3c8.7-0.1,17.3,1.7,25.2,5.3c7.3,3.3,13.9,7.9,19.4,13.7
		c5.3,5.4,9.5,11.8,12.4,18.8c2.7,6.5,4.2,13.5,4.3,20.6v26.7c0.2,1.6-0.9,3-2.4,3.3c-0.3,0-0.6,0-0.9,0h-78.4
		c-1.6-0.2-3.1,0.9-3.3,2.5c0,0.3,0,0.5,0,0.8v7.4c-0.1,6.3,2.4,12.3,6.8,16.7c4.3,4.8,10.5,7.5,17,7.4c4.6-0.1,9.1-1.7,12.7-4.5
		c4.8-3.9,8.5-9,10.7-14.8c0.4-1.1,1.4-1.9,2.6-1.9c2,0.5,3.9,1.3,5.6,2.3L985.2,151.2z M948.3,92.1c2.4,0,3.6-1,3.6-3
		c-0.2-1.6-0.6-3.2-1.3-4.7c-1-2.4-2.4-4.5-4.1-6.4c-2.2-2.2-4.7-4.1-7.4-5.6c-3.2-1.7-6.8-2.6-10.5-2.4c-3.6-0.1-7.2,0.7-10.4,2.3
		c-2.8,1.4-5.3,3.3-7.4,5.6c-1.8,1.9-3.2,4.1-4.3,6.4c-0.7,1.5-1.2,3.1-1.3,4.8c0,1.9,1.2,3,3.6,3H948.3z"/>
</g>
</svg>
