<?xml version="1.0" encoding="utf-8"?>
<!-- Generator: Adobe Illustrator 24.0.1, SVG Export Plug-In . SVG Version: 6.00 Build 0)  -->
<svg version="1.1" id="Layer_1" xmlns="http://www.w3.org/2000/svg" xmlns:xlink="http://www.w3.org/1999/xlink" x="0px" y="0px"
	 viewBox="0 0 1000 513.1" style="enable-background:new 0 0 1000 513.1;" xml:space="preserve">
<style type="text/css">
	.st0{fill:#1F222E;}
</style>
<g>
	<path class="st0" d="M88.2,113.6h145.5c43.8,0,75.4,12.9,94.8,38.7c19.4,25.8,24.4,61.7,15.2,107.8c-3.8,18.9-9.8,36.3-18.1,52.1
		c-8.3,15.8-19,30.2-32,43.3c-15.5,15.7-32.6,27-51.3,33.8c-18.7,6.8-42.3,10.2-70.9,10.2h-64.9L85.5,503.1H10L88.2,113.6z
		 M151.3,175.3l-32.7,163h46.1c30.6,0,53.5-6.4,68.8-19.3c15.3-12.9,26-34.3,32-64.4c5.8-29,4.1-49.4-5.2-61.3
		c-9.3-11.9-28.3-17.9-57.1-17.9H151.3z"/>
	<path class="st0" d="M431.8,10h75L486,113.6h67c42,0,70.8,8.3,86.3,24.8c15.5,16.5,19.6,43.1,12.2,79.9l-36.4,181.2h-76L573.7,227
		c3.9-19.6,3-32.9-2.7-40c-5.7-7.1-18.2-10.6-37.5-10.6h-60.1l-44.8,223.1h-75L431.8,10z"/>
	<path class="st0" d="M730.1,113.6h145.5c43.8,0,75.4,12.9,94.8,38.7c19.4,25.8,24.4,61.7,15.2,107.8c-3.8,18.9-9.9,36.3-18.1,52.1
		c-8.3,15.8-19,30.2-32,43.3c-15.5,15.7-32.6,27-51.3,33.8c-18.7,6.8-42.3,10.2-70.9,10.2h-64.9l-20.8,103.6h-75.5L730.1,113.6z
		 M793.2,175.3l-32.7,163h46.1c30.6,0,53.5-6.4,68.8-19.3c15.3-12.9,26-34.3,32-64.4c5.8-29,4.1-49.4-5.2-61.3
		c-9.3-11.9-28.3-17.9-57.1-17.9H793.2z"/>
</g>
</svg>
