<?xml version="1.0" encoding="utf-8"?>
<!-- Generator: Adobe Illustrator 24.0.1, SVG Export Plug-In . SVG Version: 6.00 Build 0)  -->
<svg version="1.1" id="Layer_1" xmlns="http://www.w3.org/2000/svg" xmlns:xlink="http://www.w3.org/1999/xlink" x="0px" y="0px"
	 viewBox="0 0 1000 600" style="enable-background:new 0 0 1000 600;" xml:space="preserve">
<style type="text/css">
	.st0{fill:#252F3E;}
	.st1{fill-rule:evenodd;clip-rule:evenodd;fill:#FF9900;}
</style>
<g>
	<path class="st0" d="M245.7,219.8c0,12.1,1.3,21.8,3.6,29c2.6,7.2,5.9,15,10.4,23.5c1.6,2.6,2.3,5.2,2.3,7.5c0,3.3-2,6.5-6.2,9.8
		l-20.5,13.7c-2.9,2-5.9,2.9-8.5,2.9c-3.3,0-6.5-1.6-9.8-4.6c-4.6-4.9-8.5-10.1-11.7-15.3c-3.3-5.5-6.5-11.7-10.1-19.2
		c-25.4,30-57.4,45-95.8,45c-27.4,0-49.2-7.8-65.2-23.5C18.1,272.9,10,252.1,10,226c0-27.7,9.8-50.2,29.7-67.1s46.3-25.4,79.9-25.4
		c11.1,0,22.5,1,34.5,2.6c12.1,1.6,24.4,4.2,37.5,7.2v-23.8c0-24.8-5.2-42-15.3-52.2c-10.4-10.1-28-15-53.1-15
		c-11.4,0-23.1,1.3-35.2,4.2S64.1,63,52.7,67.6c-5.2,2.3-9.1,3.6-11.4,4.2c-2.3,0.7-3.9,1-5.2,1c-4.6,0-6.8-3.3-6.8-10.1v-16
		c0-5.2,0.7-9.1,2.3-11.4s4.6-4.6,9.1-6.8C52,22.6,65.7,17.7,81.7,13.8c16-4.2,32.9-6.2,50.8-6.2c38.8,0,67.1,8.8,85.4,26.4
		c17.9,17.6,27.1,44.3,27.1,80.2v105.6H245.7z M113.3,269.4c10.8,0,21.8-2,33.6-5.9c11.7-3.9,22.2-11.1,31-20.9
		c5.2-6.2,9.1-13,11.1-20.9c2-7.8,3.3-17.3,3.3-28.4v-13.7c-9.5-2.3-19.6-4.2-30-5.5s-20.5-2-30.6-2c-21.8,0-37.8,4.2-48.6,13
		c-10.8,8.8-16,21.2-16,37.5c0,15.3,3.9,26.7,12.1,34.5C86.9,265.5,98.3,269.4,113.3,269.4z M375.1,304.6c-5.9,0-9.8-1-12.4-3.3
		c-2.6-2-4.9-6.5-6.8-12.7L279.2,36.6c-2-6.5-2.9-10.8-2.9-13c0-5.2,2.6-8.1,7.8-8.1h31.9c6.2,0,10.4,1,12.7,3.3
		c2.6,2,4.6,6.5,6.5,12.7L390,247.2l50.8-215.8c1.6-6.5,3.6-10.8,6.2-12.7c2.6-2,7.2-3.3,13-3.3h26.1c6.2,0,10.4,1,13,3.3
		c2.6,2,4.9,6.5,6.2,12.7l51.5,218.4l56.4-218.4c2-6.5,4.2-10.8,6.5-12.7c2.6-2,6.8-3.3,12.7-3.3h30.3c5.2,0,8.1,2.6,8.1,8.1
		c0,1.6-0.3,3.3-0.7,5.2s-1,4.6-2.3,8.1l-78.6,251.9c-2,6.5-4.2,10.8-6.8,12.7c-2.6,2-6.8,3.3-12.4,3.3h-28c-6.2,0-10.4-1-13-3.3
		c-2.6-2.3-4.9-6.5-6.2-13L472.5,78.4l-50.2,209.9c-1.6,6.5-3.6,10.8-6.2,13s-7.2,3.3-13,3.3H375.1z M793.9,313.4
		c-16.9,0-33.9-2-50.2-5.9c-16.3-3.9-29-8.1-37.5-13c-5.2-2.9-8.8-6.2-10.1-9.1c-1.3-2.9-2-6.2-2-9.1v-16.6c0-6.8,2.6-10.1,7.5-10.1
		c2,0,3.9,0.3,5.9,1c2,0.7,4.9,2,8.1,3.3c11.1,4.9,23.1,8.8,35.9,11.4c13,2.6,25.7,3.9,38.8,3.9c20.5,0,36.5-3.6,47.6-10.8
		c11.1-7.2,16.9-17.6,16.9-31c0-9.1-2.9-16.6-8.8-22.8c-5.9-6.2-16.9-11.7-32.9-16.9l-47.3-14.7c-23.8-7.5-41.4-18.6-52.2-33.2
		c-10.8-14.3-16.3-30.3-16.3-47.3c0-13.7,2.9-25.7,8.8-36.2s13.7-19.6,23.5-26.7c9.8-7.5,20.9-13,33.9-16.9
		c13-3.9,26.7-5.5,41.1-5.5c7.2,0,14.7,0.3,21.8,1.3c7.5,1,14.3,2.3,21.2,3.6c6.5,1.6,12.7,3.3,18.6,5.2c5.9,2,10.4,3.9,13.7,5.9
		c4.6,2.6,7.8,5.2,9.8,8.1c2,2.6,2.9,6.2,2.9,10.8v15.3c0,6.8-2.6,10.4-7.5,10.4c-2.6,0-6.8-1.3-12.4-3.9
		C854.2,55.2,833.3,51,810.2,51c-18.6,0-33.2,2.9-43.3,9.1c-10.1,6.2-15.3,15.6-15.3,29c0,9.1,3.3,16.9,9.8,23.1
		c6.5,6.2,18.6,12.4,35.9,17.9l46.3,14.7c23.5,7.5,40.4,17.9,50.5,31.3c10.1,13.4,15,28.7,15,45.6c0,14-2.9,26.7-8.5,37.8
		c-5.9,11.1-13.7,20.9-23.8,28.7c-10.1,8.1-22.2,14-36.2,18.3C825.8,311.1,810.5,313.4,793.9,313.4z"/>
	<g>
		<path class="st1" d="M896,471.8C788.8,551,633,593,499,593c-187.7,0-356.9-69.4-484.7-184.8c-10.1-9.1-1-21.5,11.1-14.3
			c138.2,80.2,308.7,128.7,485,128.7c119,0,249.7-24.8,369.9-75.6C898.3,438.8,913.6,458.7,896,471.8z"/>
		<path class="st1" d="M940.7,420.9c-13.7-17.6-90.6-8.5-125.5-4.2c-10.4,1.3-12.1-7.8-2.6-14.7c61.3-43,162-30.6,173.7-16.3
			c11.7,14.7-3.3,115.4-60.6,163.6c-8.8,7.5-17.3,3.6-13.4-6.2C925.3,510.9,954.3,438.2,940.7,420.9z"/>
	</g>
</g>
</svg>
