<?xml version="1.0" encoding="utf-8"?>
<!-- Generator: Adobe Illustrator 24.0.1, SVG Export Plug-In . SVG Version: 6.00 Build 0)  -->
<svg version="1.1" id="Layer_1" xmlns="http://www.w3.org/2000/svg" xmlns:xlink="http://www.w3.org/1999/xlink" x="0px" y="0px"
	 viewBox="0 0 1000 172.3" style="enable-background:new 0 0 1000 172.3;" xml:space="preserve">
<style type="text/css">
	.st0{opacity:0.2;}
	.st1{fill-rule:evenodd;clip-rule:evenodd;}
</style>
<g>
	<g class="st0">
		<path class="st1" d="M328.8,36.1c-17.1,16.3-49.8,27.3-87.6,27.3c-28.1,0-53.5-6.2-71.7-16.1C148.4,35.9,119.5,20,81.7,20
			C53.6,20,28.2,26.2,10,36.1v-7.8c18.2-9.9,43.6-16.1,71.7-16.1c37.8,0,66.7,15.9,87.6,27.3c18.2,9.9,43.6,16.1,71.7,16.1
			c37.8,0,70.6-11.1,87.6-27.3V36.1z"/>
		<path class="st1" d="M328.8,69c-17.1,16.3-49.8,27.3-87.6,27.3c-28.1,0-53.5-6.2-71.7-16.1c-20.9-11.4-49.8-27.3-87.6-27.3
			C53.6,52.9,28.2,59.1,10,69v-7.8c18.2-9.9,43.6-16.1,71.7-16.1c37.8,0,66.7,15.9,87.6,27.3c18.2,9.9,43.6,16.1,71.7,16.1
			c37.8,0,70.6-11.1,87.6-27.3V69L328.8,69z"/>
		<path class="st1" d="M328.8,102c-17.1,16.3-49.8,27.3-87.6,27.3c-28.1,0-53.5-6.2-71.7-16.1c-20.9-11.4-49.8-27.3-87.6-27.3
			c-28.1,0-53.5,6.2-71.7,16.1v-7.8c18.2-9.9,43.6-16.1,71.7-16.1c37.8,0,66.7,15.9,87.6,27.3c18.2,9.9,43.6,16.1,71.7,16.1
			c37.8,0,70.6-11.1,87.6-27.3V102L328.8,102z"/>
		<path class="st1" d="M328.8,135c-17.1,16.3-49.8,27.3-87.6,27.3c-28.1,0-53.5-6.2-71.7-16.1c-20.9-11.4-49.8-27.3-87.6-27.3
			c-28.1,0-53.5,6.2-71.7,16.1v-7.8c18.2-9.9,43.6-16.1,71.7-16.1c37.8,0,66.7,15.9,87.6,27.3c18.2,9.9,43.6,16.1,71.7,16.1
			c37.8,0,70.6-11.1,87.6-27.3V135z"/>
	</g>
	<path d="M143.9,127.8h7.2c3,0.2,5.7-2,5.9-5c0-0.3,0-0.6,0-0.9V39.5c0.3-3-2-5.7-5-5.9c-0.3,0-0.6,0-0.9,0h-7.2V15.2h52
		c27.9,0,50.1,14.1,50.1,41.2c0,27.1-22.2,41.4-50.1,41.4h-17.8v24.1c-0.2,3.1,2.1,5.7,5.1,5.9c0.3,0,0.7,0,1,0h14.5v18.3h-54.8
		C143.9,146.1,143.9,127.8,143.9,127.8z M194.3,78.6c18.5,0,29.1-7.7,29.1-22c0-14.5-10.6-22-29.1-22h-16.2v44L194.3,78.6
		L194.3,78.6z M246.5,98.5c0-28.1,21.3-50.4,49.2-50.4c28.4,0,49.6,22.3,49.6,50.4c0,28.6-21.1,50.4-49.6,50.4
		C267.6,148.9,246.5,127.1,246.5,98.5L246.5,98.5z M323.5,98.5c0-18.2-11.3-31.8-27.7-31.8c-16.1,0-27.4,13.6-27.4,31.8
		c0,18.1,11.3,31.8,27.4,31.8C312.1,130.2,323.5,116.6,323.5,98.5z M372.7,136.5l-0.7,9.6h-18.2v-31.4h18.7v0.3
		c0.6,3.7,2.4,7.1,5.1,9.8c4.2,4.1,10,6.4,15.9,6.1c4.4,0.2,8.7-1.3,12-4.2c2.2-2.3,3.5-5.4,3.5-8.6c0.1-2.9-0.9-5.8-3-7.9
		c-2.7-2.4-6-3.9-9.6-4.4l-16.2-3.1c-8.2-1.6-14.3-4.5-18.5-8.6c-4.5-4.7-6.9-11-6.6-17.5c0-7.5,2.8-14.8,8-20.2
		c6-5.7,14.1-8.7,22.3-8.6c9.4,0,17.8,3.5,23,10.8l0.7-8.2h17.3v26.7h-18V77c-1-3.8-3.6-6.9-7.2-8.6c-3.3-1.7-6.9-2.6-10.6-2.6
		c-4.4-0.2-8.7,1.3-12,4.2c-1.9,1.7-2.9,4.1-2.8,6.6c-0.2,2.3,0.6,4.5,2.3,6.1c2.2,1.8,4.9,3,7.7,3.3l16.2,3.1
		c9.2,1.7,16.1,4.9,20.4,9.3c5,5.3,7.6,12.3,7.3,19.5c0.1,8.3-3.1,16.4-8.9,22.3c-5.7,5.6-13.3,8.6-21.3,8.6
		C389.2,149.3,379.2,144.7,372.7,136.5L372.7,136.5z M455.4,113.5V75.1c0.2-1.6-0.4-3.3-1.5-4.4c-1.1-1.2-2.8-1.8-4.4-1.7h-12V50.7
		h18V22.7H476v27.9h28.8V69h-22.7c-3.1-0.3-5.8,2-6.1,5c0,0.4,0,0.7,0,1.1v38.4c0,9.6,5.8,15.2,16.1,15.2c3.8,0,10.1-0.9,12.7-2.4
		v19.2c-3.1,1.7-9.6,2.6-15,2.6C468.5,148,455.4,135.1,455.4,113.5L455.4,113.5z M520.4,127.8h5.6c2.5,0.3,4.9-1.2,5.8-3.6
		c0.3-0.8,0.4-1.6,0.3-2.4V75.1c0.1-0.8,0-1.6-0.3-2.4c-0.9-2.4-3.3-3.9-5.8-3.7h-5.6V50.7h31.6v14.8c5.4-10.6,18.8-17.5,31.6-17.5
		c13.3,0,24.4,6.6,30,18.2c7.7-11.1,20.3-17.9,33.9-18.2c20.6,0,33.7,12.2,33.7,31.8v42.1c-0.2,3.1,2.1,5.7,5.1,5.9c0.3,0,0.7,0,1,0
		h5.4v18.3h-45.9v-18.3h7.5c2.5,0.2,4.8-1.3,5.6-3.6c0.3-0.8,0.4-1.6,0.3-2.3V82.9c0-11-6.6-17.3-17.5-17.3
		c-15.5,0-25.7,11.2-25.7,27.2v29c-0.1,1.6,0.4,3.2,1.6,4.3c1.1,1.1,2.7,1.7,4.3,1.6h7.7v18.3h-48.2v-18.3h7.7c3,0.3,5.7-2,5.9-5
		c0-0.3,0-0.6,0-0.9V83.1c0-11-6.6-17.4-17.5-17.4c-15.7,0-25.7,11.2-25.7,27.6v28.6c-0.3,3,1.9,5.6,4.8,5.9c0.4,0,0.7,0,1.1,0h7.5
		v18.3h-46.1L520.4,127.8L520.4,127.8z M799.8,127.8v18.3h-29.3v-20.4c-1.4,3.6-3.5,6.9-6.1,9.8c-8.5,8.7-20.1,13.6-32.3,13.4
		c-17.5,0-29.5-11.2-29.7-26.7c0-20.2,17.1-26.9,38.2-31.1c11.2-2.3,21.5-3.7,26-8.2c1.6-1.5,2.5-3.6,2.4-5.8
		c0-6.5-4.9-11.5-17.3-11.5c-14.5,0-26.2,7.2-27.7,15.4v0.3h-17.1V50.7h18.5v11c7.2-9.3,19.4-13.6,30.9-13.6
		c19,0,31.9,11.7,31.9,30.9v42.9c-0.3,3,1.9,5.6,4.9,5.9c0.4,0,0.7,0,1.1,0L799.8,127.8L799.8,127.8z M769.4,99.2
		c-4.2,3.5-12.2,5.1-19.9,6.6c-13.1,2.8-25.7,5.4-25.7,15.4c0,6.3,5.8,10.6,13.4,10.6c8.4-0.3,16.3-3.8,22-9.9
		C765.4,115.8,769,107.7,769.4,99.2z M812.5,127.8h7.3c3,0.3,5.6-1.9,5.9-4.8c0-0.4,0-0.7,0-1.1V75.1c0.4-3-1.8-5.7-4.8-6.1
		c-0.4,0-0.8-0.1-1.1,0h-7.3V50.7h33.3v17.5c5.3-12.1,17.2-20,30.4-20.1c2.6,0,5.2,0.4,7.7,1.4v19.9c-2.9-0.9-6-1.3-9.1-1.2
		c-16.2,0-28.1,9.2-28.1,27.6v26.2c-0.2,2.5,1.3,4.8,3.7,5.7c0.8,0.3,1.6,0.4,2.4,0.3h11.9v18.3h-52.2L812.5,127.8L812.5,127.8z
		 M888.4,127.8h7.3c3,0.3,5.6-1.9,5.9-4.8c0-0.4,0-0.7,0-1.1V34.3c0.3-3-1.9-5.6-4.9-5.9c-0.4,0-0.7,0-1.1,0h-7.3V10h34.2v83.9
		l36.1-43.3H987V69h-12.9c-4.4-0.2-8.6,1.8-11.2,5.4l-16.6,20.2l25.7,28.1c2.9,3.4,7.1,5.2,11.5,5.1h6.5v18.3h-25.1l-42.2-49.4v25.1
		c-0.2,2.5,1.3,4.8,3.7,5.7c0.8,0.3,1.6,0.4,2.4,0.3h7.2v18.3h-47.5C888.4,146.1,888.4,127.8,888.4,127.8z"/>
</g>
</svg>
