<?xml version="1.0" encoding="utf-8"?>
<!-- Generator: Adobe Illustrator 24.0.1, SVG Export Plug-In . SVG Version: 6.00 Build 0)  -->
<svg version="1.1" id="Layer_1" xmlns="http://www.w3.org/2000/svg" xmlns:xlink="http://www.w3.org/1999/xlink" x="0px" y="0px"
	 viewBox="0 0 1000 192.2" style="enable-background:new 0 0 1000 192.2;" xml:space="preserve">
<style type="text/css">
	.st0{fill:#243746;}
	.st1{fill:#99E1F4;}
	.st2{fill:#1A82E2;}
	.st3{fill:#00B2E3;}
	.st4{fill:#009DD9;}
</style>
<g>
	<g>
		<path class="st0" d="M211.8,156.5l24.7-19.4c6.9,12,18,19,30.7,19c13.8,0,21.1-8.9,21.1-18.7c0-11.6-14.2-15.4-29.3-20
			c-19-5.9-40.2-13.2-40.2-40.3c0-22.7,19.8-40.7,47.2-40.7c23.1,0,36.3,8.7,47.8,20.6l-22.3,16.8c-5.9-8.7-14.2-13.4-25.2-13.4
			c-12.6,0-19.4,6.8-19.4,15.8c0,10.8,13.6,14.6,28.7,19.6c19.2,6.3,41,14.7,41,41.9c0,22.6-17.9,44.2-49.2,44.2
			C241.7,182,224.6,171.1,211.8,156.5z M429,82.9h26.4v10.8c6.3-8,15.8-12.8,26.8-12.8c22.8,0,36.7,14.7,36.7,39.8v59.2h-27.1v-55.7
			c0-13-6-20.6-17.9-20.6c-10.2,0-18.4,6.9-18.4,23.2v53H429L429,82.9L429,82.9z M525.2,131.5c0-34.3,25.2-50.5,47.2-50.5
			c12.6,0,22.6,4.7,29,11.5V38.3h26.6V180h-26.6v-10.8c-6.4,7.6-16.7,12.8-29.3,12.8C551.4,182,525.2,165.6,525.2,131.5z M602,131.3
			c0-14.4-10.4-26-24.8-26c-14.7,0-26,11.1-26,26c0,15,11.2,26.2,26,26.2C591.6,157.5,602,145.7,602,131.3z M634,109.2
			c0-40.3,30.5-72.8,72.4-72.8c21,0,38.6,7.6,51.4,19.6c5.2,4.9,9.6,10.6,13.1,16.7l-23.6,14.4c-8.7-16.2-22.2-24.4-40.6-24.4
			c-25.8,0-45.8,21.1-45.8,46.6c0,26,19.6,46.6,46.7,46.6c20.6,0,35.1-11.6,40.2-29.7h-44.5v-25.8H777v10.8
			c0,38.1-27.1,70.8-69.3,70.8C663.3,182,634,148.4,634,109.2z M783.6,82.9h26.4v15.9c4.8-10.2,13.6-15.9,26.8-15.9h10.7l-9.6,25.8
			h-7.2c-14.2,0-20.4,7.3-20.4,25.4v45.8h-26.6v-97H783.6z M854.4,82.9H881V180h-26.6v-71.2h-9.6L854.4,82.9z M867.8,68.2
			c8.8,0,15.9-7.1,15.9-15.9s-7.1-15.9-15.9-15.9c-8.8,0-15.9,7.1-15.9,15.9C851.9,61,859,68.2,867.8,68.2z M887.3,131.5
			c0-34.3,25.2-50.5,47.2-50.5c12.6,0,22.6,4.7,29,11.5V38.3H990V180h-26.6v-10.8c-6.4,7.6-16.7,12.8-29.3,12.8
			C913.5,182,887.3,165.6,887.3,131.5z M964.2,131.3c0-14.4-10.4-26-24.8-26c-14.7,0-26,11.1-26,26c0,15,11.2,26.2,26,26.2
			C953.7,157.5,964.2,145.7,964.2,131.3z M422.7,131.3c0-27.9-20.4-50.2-50.1-50.2c-27.9,0-50.5,22.6-50.5,50.5s21,50.5,51.3,50.5
			c21,0,36.1-10.2,44.5-24.6l-21.1-12.6c-4.4,8.5-13.1,13.9-23.2,13.9c-14,0-22.7-6.9-25.8-17.6h74.9L422.7,131.3L422.7,131.3z
			 M349,119.7c4.1-9.1,12.6-15.4,23.9-15.4c11.2,0,19.6,5.2,23.1,15.4H349z"/>
	</g>
	<g>
		<rect x="66.6" y="123.4" class="st1" width="56.6" height="56.6"/>
		<polygon class="st1" points="66.6,66.6 66.6,66.6 66.6,66.6 10,66.6 10,123.4 66.6,123.4 		"/>
		<rect x="10" y="123.4" class="st2" width="56.6" height="56.6"/>
		<polygon class="st3" points="180,66.6 180,66.6 123.4,66.6 123.4,123.4 180,123.4 		"/>
		<rect x="66.6" y="10" class="st3" width="56.6" height="56.6"/>
		<polygon class="st4" points="66.6,66.6 66.6,123.4 123.4,123.4 123.4,66.6 123.4,66.6 		"/>
		<rect x="123.4" y="10" class="st2" width="56.6" height="56.6"/>
	</g>
</g>
</svg>
