<?xml version="1.0" encoding="utf-8"?>
<!-- Generator: Adobe Illustrator 24.0.1, SVG Export Plug-In . SVG Version: 6.00 Build 0)  -->
<svg version="1.1" id="Layer_1" xmlns="http://www.w3.org/2000/svg" xmlns:xlink="http://www.w3.org/1999/xlink" x="0px" y="0px"
	 viewBox="0 0 1000 159.8" style="enable-background:new 0 0 1000 159.8;" xml:space="preserve">
<style type="text/css">
	.st0{fill:#091E3F;}
	.st1{fill-rule:evenodd;clip-rule:evenodd;fill:#0092FF;}
</style>
<g>
	<path class="st0" d="M216.6,53.9c-10,0-16.3,3.3-16.3,9.1s6.7,8.4,16.7,9.5c14.2,1.2,32.5,3.6,32.5,22.8
		c0,13.7-12.9,23.4-32.7,23.4c-12.5,0-24.4-2.7-35-13.7l8.4-10.9c7,7,16.6,11,26.5,10.9c8.6,0,17-2.6,17-9.5
		c0-6.9-6.5-9.2-17.9-10.2c-14.3-1.2-31.3-5.5-31.3-21.9c0-16.4,17.6-22.5,31.9-22.5c10.7-0.2,21.1,3.2,29.6,9.7l-8.4,9.8
		C231.5,56.1,224.1,53.7,216.6,53.9L216.6,53.9z M302.5,104.3c8.1,0,17.4-2.7,22.3-7.9l10.4,9.7c-7.9,8.6-21.2,12.6-33,12.6
		c-25.2,0-41.4-15.1-41.4-38.8c0-22.5,16.8-38.8,41.1-38.8c22.6,0,38.1,12.7,38.1,38.2c0,2.1-0.2,4.3-0.3,6.6h-62.2
		C278.9,97.4,288.3,104.3,302.5,104.3z M301.9,54.8c-11.7,0-21.8,6.1-24.2,18.1h46.5C323.3,61.1,315.2,54.8,301.9,54.8L301.9,54.8z
		 M414.3,75.3c0-12.7-7.5-20.1-20.7-20.1c-5.9,0-11.5,2.3-15.5,6.6c-4.1,4.3-6.3,10-6,15.9v39.1h-16.2V42.8h14.6l0.9,10.3
		c6.4-7.7,15.9-12.2,25.8-12.1c18.5,0,33,11.1,33,34.2v41.7h-16.1L414.3,75.3L414.3,75.3z M528.2,116.9h-15.1l-0.9-11.7
		c-6,8.8-16,13.9-26.6,13.5c-22.3,0-39.2-14.2-39.2-38.8c0-25.2,16.6-38.8,38.9-38.8c9.3,0,21.9,4.3,26.9,13.2V12.1h16.2
		L528.2,116.9L528.2,116.9z M462.3,79.9c0,15,10.6,24.4,24.2,24.4c13.3,0,24-10.9,24-24.4c0-13.5-10.7-24.4-24-24.4
		C472.9,55.6,462.3,64.9,462.3,79.9z M558,10.1c2.6-0.2,5.2,0.7,7,2.5c1.9,1.8,3,4.3,2.9,7c-0.4,5.3-4.7,9.4-10,9.4
		c-5.2,0-9.6-4.1-10-9.4c0-2.6,1-5.2,2.9-7C552.9,10.8,555.5,9.9,558,10.1z M566,116.9h-16.2V42.8H566V116.9z M646,75.3
		c0-12.7-7.5-20.1-20.7-20.1c-5.9-0.1-11.5,2.3-15.5,6.6c-4.1,4.3-6.2,10-6,15.9v39.1h-16.1V42.8h14.6l0.9,10.3
		C609.5,45.4,619,41,629,41c18.5,0,33,11.1,33,34.2v41.7h-16.2C645.8,116.9,646,75.3,646,75.3z M698.7,55c5-8.9,17.6-13.9,26.9-13.9
		c22.1,0,38.9,13.7,38.9,38.8c0,24.6-18.1,38.8-39.1,38.8c-9.7,0-20.7-4-26.8-13.5l-0.9,11.7h-15.1V12.1h16.1L698.7,55L698.7,55z
		 M699.6,79.9c-0.1,6.6,2.5,12.9,7.1,17.6c4.6,4.6,10.9,7.1,17.5,6.9c14,0,24.2-9.5,24.2-24.4s-10.3-24.3-24.2-24.3
		c-6.5-0.2-12.8,2.3-17.4,6.8C702.2,67,699.6,73.3,699.6,79.9z M798.3,116.9h-16.1V12.1h16.2L798.3,116.9L798.3,116.9z M835.5,83.2
		c0,12.6,7.3,21.3,20.9,21.3c5.8,0.1,11.4-2.3,15.4-6.5c4-4.3,6.2-10,5.9-15.8V42.8h16v74.1h-14.5l-0.9-10.2
		c-6.5,7.9-16.3,12.3-26.5,12c-18.8,0-32.3-13-32.3-35.4V42.8h16L835.5,83.2L835.5,83.2z M952.5,104.3c8.1,0,17.4-2.7,22.3-7.9
		l10.4,9.7c-7.9,8.6-21.2,12.6-33,12.6c-25.2,0-41.4-15.1-41.4-38.8c0-22.5,16.8-38.8,41.1-38.8c22.6,0,38.1,12.7,38.1,38.2
		c0,2.1-0.2,4.3-0.3,6.6h-62.3C928.9,97.4,938.4,104.3,952.5,104.3L952.5,104.3z M951.9,54.8c-11.7,0-21.8,6.1-24.2,18.1h46.5
		C973.2,61.1,965.1,54.8,951.9,54.8L951.9,54.8z"/>
	<path class="st1" d="M127.1,110.1c-3.6,6.2-9.4,10.8-16.3,12.8c1-3.4,1.5-6.9,1.5-10.4c0-17.5-12.1-32.2-28.3-36.2
		c3.4-3.3,7.5-5.7,12-6.9c7.1-1.9,14.6-0.9,21,2.8C130.2,79.8,134.7,96.8,127.1,110.1 M75.2,140.2c-7.2,0-14.1-2.9-19.2-7.8
		c3.4-0.8,6.7-2.2,9.7-3.9c15.1-8.8,21.7-26.6,17.1-42.7c11.5,3.3,20,14,20,26.7C102.8,127.8,90.4,140.2,75.2,140.2 M23.2,110.1
		c-3.6-6.3-4.5-13.7-2.9-20.6c2.4,2.5,5.2,4.7,8.2,6.5c5.6,3.3,12,5,18.5,5c10.1,0,19.8-4.2,26.8-11.5c2.9,11.7-2.1,24.4-13,30.8
		c-4.2,2.4-8.9,3.7-13.8,3.7C37.3,123.9,28.2,118.6,23.2,110.1 M23.2,49.7c3.6-6.2,9.4-10.8,16.3-12.8c-1,3.4-1.5,6.9-1.5,10.4
		c0,17.5,12.1,32.2,28.3,36.2c-8.6,8.4-22.1,10.4-33,4.1C27,84,22.4,78,20.5,70.8C18.6,63.7,19.6,56.1,23.2,49.7 M75.2,19.6
		c7.2,0,14.1,2.9,19.2,7.8c-3.4,0.8-6.7,2.2-9.7,3.9c-8.6,5-14.7,13-17.3,22.7c-1.8,6.6-1.7,13.5,0.2,20.1c-11.5-3.3-20-14-20-26.7
		C47.6,32,60,19.6,75.2,19.6 M127.1,49.7c3.6,6.3,4.5,13.7,2.8,20.6c-2.4-2.5-5.2-4.7-8.2-6.5c-8.6-5-18.6-6.3-28.2-3.7
		c-6.6,1.8-12.5,5.3-17.2,10.2c-1.1-4.6-1.1-9.4,0.1-13.9c1.9-7.2,6.5-13.2,12.9-16.9c6.4-3.7,13.8-4.7,21-2.8
		C117.5,38.7,123.4,43.3,127.1,49.7 M135.4,44.9c-5-8.6-13-14.8-22.5-17.4c-2.3-0.6-4.6-1-6.9-1.2C99,16.2,87.5,10,75.2,10
		c-12.8,0-24,6.5-30.7,16.4C32.3,27.3,21.2,34.2,15,44.9c-5,8.6-6.3,18.7-3.7,28.3c0.6,2.3,1.4,4.5,2.5,6.6
		C8.4,91,8.8,104.1,15,114.8c6.4,11.1,17.6,17.7,29.4,18.5c6.9,10.2,18.4,16.4,30.7,16.4c12.7,0,24-6.5,30.7-16.4
		c12.2-0.9,23.3-7.8,29.5-18.6c6.4-11.1,6.4-24.2,1.2-34.9C141.9,68.8,141.5,55.7,135.4,44.9"/>
</g>
</svg>
