<?xml version="1.0" encoding="utf-8"?>
<!-- Generator: Adobe Illustrator 24.0.1, SVG Export Plug-In . SVG Version: 6.00 Build 0)  -->
<svg version="1.1" id="Layer_1" xmlns="http://www.w3.org/2000/svg" xmlns:xlink="http://www.w3.org/1999/xlink" x="0px" y="0px"
	 viewBox="0 0 1000 143.9" style="enable-background:new 0 0 1000 143.9;" xml:space="preserve">
<style type="text/css">
	.st0{fill:#2D2F7A;}
	.st1{fill:#5457FF;}
</style>
<g>
	<path class="st0" d="M10,24.5c0-3.7,3-6.7,6.7-6.7l0,0h54c2.9,0,5.3,2.4,5.3,5.3v3.2c0,2.9-2.4,5.3-5.3,5.3H25.8v35.6h35.6
		c2.9,0,5.3,2.4,5.3,5.3v3.2c0,2.9-2.4,5.3-5.3,5.3H25.8v36.6h47.7c2.9,0,5.3,2.4,5.3,5.3v3.2c0,2.9-2.4,5.3-5.3,5.3l0,0H16.7
		c-3.7,0-6.7-3-6.7-6.7l0,0L10,24.5L10,24.5z"/>
	<path class="st0" d="M111.2,126.7c0,3.5-1.8,5.3-5.3,5.3h-5c-3.5,0-5.3-1.8-5.3-5.3V15.3c0-3.5,1.8-5.3,5.3-5.3h5
		c3.5,0,5.3,1.8,5.3,5.3V126.7z"/>
	<path class="st0" d="M200.1,50.1h-3.9c-3.5,0-5.3,1.5-5.3,4.5v4.1c0,1.1,0.1,2.1,0.3,3.2h-0.3c-1.2-2.6-3-4.9-5.1-6.8
		c-2.3-2-5-3.6-7.8-4.8c-4-1.6-8.2-2.3-12.5-2.2c-21.7,0-36.4,15.5-36.4,43.4c0,25.7,14.5,42.4,35.1,42.4c11,0,23-4.6,26.8-13.9h0.3
		c-0.2,1.1-0.3,2.2-0.3,3.3v4.1c0,3,1.8,4.5,5.3,4.5h3.9c3.5,0,5.3-1.8,5.3-5.3V55.3C205.4,51.8,203.6,50.1,200.1,50.1 M167.4,120.4
		c-13.7,0-22.4-12.9-22.4-29.6c0-15.6,6.3-29.2,23.1-29.2c12.9,0,22,11.4,22,29.2C190.1,108.5,180.9,120.4,167.4,120.4z"/>
	<path class="st0" d="M224.9,124.6c-1.2-0.6-2.1-1.8-2.3-3.2c-0.1-1.4,0.3-2.8,1.1-4l1.6-2.3c0.7-1.2,1.9-2,3.3-2.3
		c1.5,0,2.9,0.4,4.1,1.1c2.5,1.5,5.1,2.9,7.7,4.2c3.8,1.7,8,2.5,12.2,2.4c3.5,0.2,7-0.8,10-2.8c2.6-1.8,4-4.8,3.9-8
		c0.1-2.5-1.1-4.9-3.1-6.4c-2.4-1.8-5-3.3-7.8-4.4c-3.1-1.3-6.5-2.6-10.1-3.9c-3.5-1.2-6.9-2.8-10.1-4.8c-3.1-1.9-5.7-4.4-7.8-7.3
		c-2.2-3.3-3.3-7.3-3.1-11.3c-0.1-3.5,0.7-7.1,2.3-10.2c1.5-2.9,3.7-5.4,6.4-7.3c2.9-2,6-3.5,9.4-4.4c3.7-1,7.5-1.5,11.4-1.5
		c4.8-0.1,9.6,0.6,14.1,2.3c2.9,1.1,5.7,2.5,8.5,4c1.3,0.5,2.3,1.6,2.7,3c0.2,1.4-0.1,2.9-0.9,4.1l-1.5,2.4
		c-1.5,2.7-3.9,3.3-7.1,1.8c-2.2-1.2-4.4-2.2-6.7-3.1c-3.2-1.1-6.5-1.7-9.9-1.6c-3.4-0.1-6.8,0.8-9.7,2.6c-2.6,1.7-4.1,4.6-4,7.7
		c-0.1,2.6,1.1,5,3.1,6.5c2.4,1.8,5,3.3,7.8,4.4c3.1,1.3,6.5,2.6,10.1,3.9c3.5,1.2,6.9,2.8,10.1,4.8c3.1,1.9,5.7,4.3,7.8,7.2
		c2.2,3.4,3.3,7.3,3.1,11.4c0,3.3-0.7,6.6-2.1,9.6s-3.4,5.6-6,7.6c-2.7,2.2-5.9,3.9-9.3,5c-3.9,1.2-7.9,1.8-12,1.8
		c-3.2,0-6.3-0.3-9.4-0.9c-2.6-0.5-5.2-1.3-7.6-2.3c-2.1-0.8-4.1-1.8-6-2.9C227.7,126.6,226.2,125.7,224.9,124.6"/>
	<path class="st0" d="M359.6,33.8c-3.5,0-5.3-1.8-5.3-5.3v-5.3c0-3.5,1.8-5.3,5.3-5.3h5.5c3.5,0,5.3,1.8,5.3,5.3v5.3
		c0,3.5-1.8,5.3-5.3,5.3H359.6z M354.5,55.4c0-3.5,1.8-5.3,5.3-5.3h5c3.5,0,5.3,1.8,5.3,5.3v71.3c0,3.5-1.8,5.3-5.3,5.3h-5
		c-3.5,0-5.3-1.8-5.3-5.3V55.4z"/>
	<path class="st0" d="M450.2,123.1c1,2.1,0.2,4.6-1.8,5.7c-6.1,3.2-12.9,4.8-19.7,4.7c-29,0-41.3-21.8-41.3-42.7
		c0-20.5,13-42.7,40.6-42.7c6.5-0.1,13,1.4,18.8,4.3c2.1,1.1,2.9,3.7,1.9,5.8l-2,4c-1,2.1-3.4,2.9-5.6,2.1
		c-3.7-1.6-7.6-2.5-11.7-2.6c-16.9,0-26.1,9.1-26.1,29c0,17,8.9,29.3,26.4,29.3c4.5,0,8.9-1,13-2.8c2.1-0.9,4.6,0,5.6,2.1
		C448.9,120.5,449.6,121.9,450.2,123.1"/>
	<path class="st0" d="M321.1,126.7c0,2.9-2.4,5.3-5.3,5.3h-5c-2.9,0-5.3-2.4-5.3-5.3l0,0V63.6H297c-3.4,0-5.2-1.8-5.1-5.3v-2.9
		c0-2.5,2-4.5,4.5-4.5h9.4V33c0-2.9,2.4-5.3,5.3-5.3h4.7c2.9,0,5.3,2.4,5.3,5.3v17.9h15c2.5,0,4.5,2,4.5,4.5v2.9
		c0,3.5-1.7,5.3-5.1,5.3h-14.3L321.1,126.7z"/>
	<path class="st0" d="M611.4,24.5c0-3.7,3-6.7,6.7-6.7l0,0h54c2.9,0,5.3,2.4,5.3,5.3l0,0v3.2c0,2.9-2.4,5.3-5.3,5.3l0,0h-44.9v35.6
		h35.6c2.9,0,5.3,2.4,5.3,5.3v3.2c0,2.9-2.4,5.3-5.3,5.3h-35.6v36.6h47.7c2.9,0,5.3,2.4,5.3,5.3l0,0v3.2c0,2.9-2.4,5.3-5.3,5.3
		h-56.8c-3.7,0-6.7-3-6.7-6.7V24.5z"/>
	<path class="st0" d="M696.6,55.4c0-3.5,1.8-5.3,5.3-5.3h4.5c3.5,0,5.3,1.8,5.3,5.3v7.2c0,1.1-0.1,2.2-0.3,3.2
		c-0.1,0.5-0.2,1-0.2,1.5h0.3c1.1-2.5,2.5-4.9,4.3-7c1.9-2.3,4.1-4.4,6.6-6.1c2.5-1.8,5.3-3.2,8.2-4.4c3-1.1,6.1-1.7,9.3-1.7
		c13.4,0,21.6,6.2,24.5,18.5h0.3c1.2-2.5,2.7-4.8,4.5-6.9c1.9-2.3,4.2-4.3,6.6-6c2.5-1.8,5.3-3.1,8.2-4.1c3.1-1,6.3-1.5,9.5-1.5
		c9.3,0,16.2,2.6,20.5,7.8c4.3,5.2,6.5,13,6.5,23.4v47.3c0,3.5-1.8,5.3-5.3,5.3h-5c-3.5,0-5.3-1.8-5.3-5.3V82.7
		c0-2.7-0.2-5.4-0.6-8.1c-0.3-2.2-1-4.4-2.1-6.4c-1-1.8-2.5-3.3-4.4-4.4c-2.3-1.2-4.8-1.7-7.3-1.6c-3.6,0-7.1,0.9-10.1,2.7
		c-3,1.8-5.6,4.2-7.6,7.1c-2.1,3.1-3.8,6.5-4.7,10.1c-1.1,3.7-1.6,7.6-1.6,11.4v33.2c0,3.5-1.7,5.3-5.2,5.3H756
		c-3.4,0-5.2-1.8-5.2-5.3v-44c0-2.6-0.1-5.2-0.5-7.7c-0.3-2.3-0.9-4.5-1.9-6.5c-1-1.9-2.5-3.4-4.3-4.5c-2.3-1.2-4.9-1.8-7.5-1.7
		c-3.7-0.1-7.2,0.9-10.4,2.7c-3.1,1.8-5.7,4.3-7.7,7.2c-2.1,3.1-3.8,6.5-4.7,10.1c-1.1,3.7-1.6,7.5-1.6,11.3v33.2
		c0,3.5-1.8,5.3-5.3,5.3h-5c-3.5,0-5.3-1.8-5.3-5.3V55.4z"/>
	<path class="st0" d="M941.3,33.8c-3.5,0-5.3-1.8-5.3-5.3v-5.3c0-3.5,1.8-5.3,5.3-5.3h5.5c3.5,0,5.3,1.8,5.3,5.3v5.3
		c0,3.5-1.8,5.3-5.3,5.3H941.3z M936.2,55.4c0-3.5,1.8-5.3,5.3-5.3h5c3.5,0,5.3,1.8,5.3,5.3v71.3c0,3.5-1.8,5.3-5.3,5.3h-5
		c-3.5,0-5.3-1.8-5.3-5.3V55.4z"/>
	<path class="st0" d="M990,126.7c0,3.5-1.8,5.3-5.3,5.3h-5c-3.5,0-5.3-1.8-5.3-5.3V15.3c0-3.5,1.8-5.3,5.3-5.3h5
		c3.5,0,5.3,1.8,5.3,5.3V126.7z"/>
	<path class="st0" d="M908.2,50.1h-3.9c-3.5,0-5.3,1.5-5.3,4.5v4.1c0,1.1,0.1,2.1,0.3,3.2H899c-1.2-2.6-3-4.9-5.2-6.8
		c-2.3-2-5-3.6-7.8-4.8c-4-1.6-8.2-2.3-12.5-2.2c-21.7,0-36.4,15.5-36.4,43.4c0,25.7,14.5,42.4,35.1,42.4c11,0,23-4.6,26.8-13.9h0.3
		c-0.2,1.1-0.3,2.2-0.3,3.3v4.1c0,3,1.8,4.5,5.3,4.5h3.9c3.5,0,5.3-1.8,5.3-5.3V55.3C913.5,51.8,911.7,50.1,908.2,50.1 M875.5,120.4
		c-13.7,0-22.4-12.9-22.4-29.6c0-15.6,6.3-29.2,23.1-29.2c12.9,0,22,11.4,22,29.2C898.2,108.5,889,120.4,875.5,120.4"/>
	<path class="st1" d="M575,74.5c-3.5-4.6-8.7-7.6-14.5-8.4c-0.7-0.1-1.4-0.2-2.1-0.2c-0.7,0-1.5,0-1.9,0H553h-3.2
		c-1.4,0-2.5,1.1-2.5,2.5l0,0v4c0,1.4,1.1,2.5,2.5,2.5h3.2h3.4c0.5,0,0.9,0,1.4,0.1c0.4,0,0.8,0.1,1.2,0.2c3.3,0.6,6.2,2.5,8,5.3
		c1.8,2.7,2.6,5.9,2.2,9.2c-0.4,3.2-2,6.2-4.5,8.3c-1.3,1.1-2.7,1.9-4.3,2.3c-1.8,0.5-3.7,0.6-5.5,0.6h-13.5c-9,0-18,0-27,0h-13.5
		h-3.4h-2c-2,0-4.4-0.6-5.9-1.4c-2.9-1.5-5.2-4.1-6.2-7.3c-1-3.1-0.9-6.4,0.3-9.4c1.2-3.1,3.6-5.5,6.7-6.9c1.6-0.7,3.2-1,4.9-1h6.7
		c7.2,0,13.7-0.1,20.7,0l-8.1,8.9c-0.7,0.8-0.7,2.1,0.1,2.8l0.1,0.1l2.6,2.2c0.9,0.7,2.2,0.6,2.9-0.3L533.2,73
		c1.3-1.5,1.3-3.7,0-5.2l-12.9-15.6c-0.7-0.9-2.1-1-2.9-0.3l-2.6,2.2c-0.9,0.7-1,2-0.3,2.8l0.1,0.1l8.1,8.9c-6.9,0-13.4,0-20.7,0
		h-6.7c-2.8,0-5.6,0.4-8.3,1.4c-5.4,2-9.9,6.1-12.4,11.3c-2.5,5.3-2.7,11.4-0.6,16.9c2.1,5.4,6.3,9.8,11.6,12.1
		c2.6,1.2,5.4,1.9,8.2,1.9h1.1h2.5h3.4h13.5c9,0,18,0,27,0h13.5c2.6,0,5.3,0,7.9-0.6c2.8-0.7,5.4-1.9,7.7-3.6
		c4.7-3.4,7.9-8.6,8.7-14.4C580.1,85,578.5,79.1,575,74.5"/>
</g>
</svg>
