<?xml version="1.0" encoding="utf-8"?>
<!-- Generator: Adobe Illustrator 24.0.1, SVG Export Plug-In . SVG Version: 6.00 Build 0)  -->
<svg version="1.1" id="Layer_1" xmlns="http://www.w3.org/2000/svg" xmlns:xlink="http://www.w3.org/1999/xlink" x="0px" y="0px"
	 viewBox="0 0 1000 271.1" style="enable-background:new 0 0 1000 271.1;" xml:space="preserve">
<style type="text/css">
	.st0{fill:#4285F4;}
	.st1{fill:#34A853;}
	.st2{fill:#FBBC04;}
	.st3{fill:#EA4335;}
	.st4{fill:#C5221F;}
	.st5{fill:#5F6368;}
	.st6{fill:#222222;}
</style>
<g>
	<g>
		<path class="st0" d="M25.1,231.7h35.2v-85.5L10,108.4v108.2C10,225,16.8,231.7,25.1,231.7"/>
		<path class="st1" d="M181.1,231.7h35.2c8.4,0,15.1-6.8,15.1-15.1V108.4l-50.3,37.7"/>
		<path class="st2" d="M181.1,80.8v65.4l50.3-37.7V88.3c0-18.7-21.3-29.3-36.2-18.1"/>
		<path class="st3" d="M60.3,146.2V80.8l60.4,45.3l60.4-45.3v65.4l-60.4,45.3"/>
		<path class="st4" d="M10,88.3v20.1l50.3,37.7V80.8L46.2,70.2C31.3,59,10,69.6,10,88.3"/>
	</g>
	<g>
		<path class="st3" d="M876,96.8l12.1,8.1c-3.9,5.8-13.4,15.8-29.7,15.8c-20.2,0-35.4-15.7-35.4-35.6c0-21.2,15.3-35.6,33.6-35.6
			c18.5,0,27.5,14.7,30.5,22.7l1.6,4.1l-47.7,19.7c3.6,7.2,9.3,10.8,17.3,10.8S872,102.8,876,96.8 M838.6,84l31.9-13.2
			c-1.8-4.5-7-7.6-13.2-7.6C849.3,63.2,838.2,70.2,838.6,84"/>
		<rect x="799.9" y="14.1" class="st1" width="15.7" height="104.4"/>
		<path class="st0" d="M789,51.6v64c0,26.3-15.5,37.1-33.9,37.1c-17.3,0-27.7-11.6-31.6-21.1l13.6-5.7c2.4,5.8,8.4,12.7,18,12.7
			c11.7,0,19-7.3,19-20.9v-5.1h-0.5c-3.5,4.3-10.3,8.1-18.8,8.1c-17.8,0-34.2-15.5-34.2-35.5c0-20.1,16.3-35.8,34.2-35.8
			c8.5,0,15.3,3.8,18.8,8h0.5v-5.8H789z M775.3,85.2c0-12.6-8.4-21.7-19-21.7c-10.8,0-19.8,9.2-19.8,21.7c0,12.4,9,21.5,19.8,21.5
			C766.9,106.7,775.3,97.6,775.3,85.2"/>
		<path class="st2" d="M714.2,85.1c0,20.5-16.1,35.6-35.8,35.6s-35.8-15.1-35.8-35.6c0-20.7,16.1-35.6,35.8-35.6
			S714.2,64.4,714.2,85.1 M698.6,85.1c0-12.8-9.3-21.6-20.1-21.6c-10.8,0-20.1,8.8-20.1,21.6c0,12.7,9.3,21.6,20.1,21.6
			C689.2,106.7,698.6,97.8,698.6,85.1"/>
		<path class="st3" d="M636.2,85.1c0,20.5-16.1,35.6-35.8,35.6s-35.8-15.1-35.8-35.6c0-20.7,16.1-35.6,35.8-35.6
			C620.1,49.4,636.2,64.4,636.2,85.1 M620.5,85.1c0-12.8-9.3-21.6-20.1-21.6c-10.8,0-20.1,8.8-20.1,21.6c0,12.7,9.3,21.6,20.1,21.6
			S620.5,97.8,620.5,85.1"/>
		<path class="st0" d="M507.6,75.7V60.5h50.6c0.6,3.1,0.8,6.2,0.8,9.3c0,11.3-3.1,25.4-13.1,35.4c-9.7,10.1-22.1,15.5-38.6,15.5
			c-30.5,0-56.2-24.8-56.2-55.4S476.8,10,507.3,10c16.9,0,28.9,6.6,37.9,15.3l-10.7,10.7c-6.5-6.1-15.3-10.8-27.3-10.8
			c-22.3,0-39.7,18-39.7,40.2s17.4,40.3,39.7,40.3c14.4,0,22.7-5.8,27.9-11.1c4.3-4.3,7.1-10.4,8.2-18.9L507.6,75.7z"/>
	</g>
	<g>
		<polygon class="st5" points="458,133.8 471.1,133.8 445,231.6 432.2,231.6 411.2,167.1 410.6,167.1 389.6,231.6 376.7,231.6 
			349.5,133.8 362.7,133.8 383.3,210.7 383.8,210.7 405,146.9 416.8,146.9 437.9,210.7 438.5,210.7 		"/>
		<path class="st5" d="M469.9,198.2c0-10.3,3.2-18.8,9.7-25.5c6.6-6.7,14.8-10.1,24.7-10.1c9.9,0,18.1,3.4,24.6,10.1
			c6.6,6.7,9.8,15.3,9.8,25.5c0,10.4-3.3,18.9-9.8,25.5c-6.5,6.7-14.7,10.1-24.6,10.1c-9.9,0-18.2-3.4-24.7-10.1
			C473.2,217,469.9,208.4,469.9,198.2 M482.5,198.1c0,7.2,2.1,13,6.3,17.5s9.4,6.7,15.6,6.7s11.4-2.2,15.6-6.7
			c4.2-4.5,6.3-10.3,6.3-17.5c0-7.1-2.1-12.9-6.3-17.3c-4.3-4.6-9.5-6.8-15.6-6.8c-6.1,0-11.3,2.3-15.6,6.8
			C484.6,185.3,482.5,191,482.5,198.1"/>
		<path class="st5" d="M560.3,231.6h-12.6v-66.9h12v10.9h0.6c1.3-3.6,3.9-6.6,7.9-9.1s7.9-3.8,11.7-3.8c3.6,0,6.7,0.5,9.3,1.6
			l-3.8,12.2c-1.5-0.6-4-1-7.4-1c-4.7,0-8.9,1.9-12.4,5.7c-3.5,3.8-5.3,8.3-5.3,13.4V231.6z"/>
		<polygon class="st5" points="653.8,231.6 638.6,231.6 617.7,200.1 607.5,210.2 607.5,231.6 594.9,231.6 594.9,133.8 607.5,133.8 
			607.5,194.1 636.4,164.7 652.5,164.7 652.5,165.2 626.5,191.2 653.8,231.1 		"/>
		<path class="st5" d="M708.1,213c0,5.8-2.5,10.7-7.6,14.8s-11.5,6-19.3,6c-6.7,0-12.7-1.8-17.8-5.3c-5-3.4-8.8-8.2-10.9-13.9
			l11.2-4.8c1.6,4,4,7.1,7.2,9.4c3,2.2,6.6,3.4,10.3,3.3c4,0,7.4-0.9,10-2.6c2.7-1.7,4-3.8,4-6.1c0-4.3-3.3-7.4-9.8-9.4l-11.5-2.9
			c-13-3.3-19.5-9.6-19.5-18.9c0-6.1,2.5-11,7.4-14.7c5-3.7,11.3-5.5,19.1-5.5c5.9,0,11.3,1.4,16.1,4.2c4.8,2.8,8.1,6.6,10,11.3
			l-11.2,4.6c-1.3-2.8-3.5-5.2-6.2-6.6c-3-1.6-6.3-2.4-9.6-2.4c-3.1,0-6.2,0.8-8.8,2.5c-2.6,1.6-3.9,3.6-3.9,6
			c0,3.8,3.6,6.6,10.8,8.2l10.1,2.6C701.5,196.2,708.1,202.9,708.1,213"/>
		<path class="st5" d="M751.8,233.8c-4.9,0-9.4-1-13.5-3.1c-4.1-2.1-7.2-4.9-9.4-8.3h-0.6l0.6,9.3v29.5h-12.6v-96.4h12v9.3h0.6
			c2.2-3.5,5.3-6.2,9.4-8.3c4.1-2.1,8.5-3.1,13.5-3.1c8.8,0,16.3,3.5,22.4,10.4c6.3,7,9.4,15.4,9.4,25.3c0,9.9-3.1,18.4-9.4,25.3
			C768.1,230.3,760.6,233.8,751.8,233.8 M749.8,222.3c6,0,11.1-2.3,15.2-6.8c4.1-4.5,6.1-10.2,6.1-17.3c0-7-2-12.8-6.1-17.3
			c-4.1-4.6-9.1-6.8-15.2-6.8c-6.1,0-11.2,2.3-15.3,6.8c-4,4.6-6,10.3-6,17.3c0,7.1,2,12.9,6,17.5
			C738.5,220.1,743.6,222.3,749.8,222.3"/>
		<path class="st5" d="M818,162.5c9.3,0,16.6,2.5,22,7.4c5.4,5,8.1,11.8,8.1,20.4v41.3h-12v-9.3h-0.6c-5.2,7.6-12.1,11.5-20.8,11.5
			c-7.4,0-13.5-2.2-18.5-6.6c-5-4.4-7.4-9.8-7.4-16.4c0-6.9,2.6-12.4,7.9-16.5s12.2-6.1,21-6.1c7.5,0,13.6,1.4,18.4,4.1v-2.9
			c0-4.4-1.7-8.1-5.2-11.1c-3.3-3-7.7-4.6-12.2-4.6c-7,0-12.6,3-16.7,8.9l-11.1-7C797.1,166.9,806.1,162.5,818,162.5 M801.8,211.1
			c0,3.3,1.4,6,4.2,8.2c2.8,2.2,6,3.3,9.8,3.3c5.3,0,10-2,14.1-5.9c4.1-3.9,6.2-8.5,6.2-13.8c-3.9-3.1-9.4-4.6-16.4-4.6
			c-5.1,0-9.4,1.2-12.8,3.7C803.5,204.5,801.8,207.5,801.8,211.1"/>
		<path class="st5" d="M890.7,233.8c-9.9,0-18.2-3.4-24.7-10.1c-6.5-6.9-9.7-15.4-9.7-25.5c0-10.3,3.2-18.8,9.7-25.5
			c6.6-6.7,14.8-10.1,24.7-10.1c6.8,0,12.8,1.7,17.9,5.1s8.9,8.1,11.5,14.1l-11.5,4.8c-3.6-8.4-9.8-12.6-18.7-12.6
			c-5.7,0-10.7,2.3-14.9,7c-4.1,4.6-6.1,10.4-6.1,17.2c0,6.8,2,12.6,6.1,17.2c4.2,4.6,9.2,7,14.9,7c9.2,0,15.7-4.2,19.4-12.6
			l11.2,4.8c-2.5,6-6.3,10.7-11.5,14.1C903.7,232.1,897.6,233.8,890.7,233.8"/>
		<path class="st5" d="M958.3,233.8c-9.8,0-17.9-3.4-24.3-10.1c-6.4-6.7-9.6-15.3-9.6-25.5c0-10.2,3.1-18.7,9.3-25.5
			s14.1-10.2,23.8-10.2c9.9,0,17.8,3.2,23.7,9.6c5.9,6.4,8.8,15.4,8.8,27l-0.1,1.4h-52.6c0.2,6.6,2.4,11.8,6.6,15.8
			c4.2,4,9.2,6,15,6c8,0,14.3-4,18.9-12l11.2,5.5c-2.9,5.5-7.2,10.1-12.5,13.2C971.1,232.2,965.1,233.8,958.3,233.8 M938.2,190.1
			h38.4c-0.4-4.6-2.3-8.5-5.7-11.5c-3.4-3-8-4.6-13.7-4.6c-4.7,0-8.8,1.5-12.2,4.4S939.3,185.2,938.2,190.1"/>
	</g>
	<rect x="294.5" y="34.3" class="st6" width="11" height="206.9"/>
</g>
</svg>
