<?xml version="1.0" encoding="utf-8"?>
<!-- Generator: Adobe Illustrator 24.0.1, SVG Export Plug-In . SVG Version: 6.00 Build 0)  -->
<svg version="1.1" id="Layer_1" xmlns="http://www.w3.org/2000/svg" xmlns:xlink="http://www.w3.org/1999/xlink" x="0px" y="0px"
	 viewBox="0 0 1000 229" style="enable-background:new 0 0 1000 229;" xml:space="preserve">
<style type="text/css">
	.st0{fill:#737373;}
	.st1{fill:#F25022;}
	.st2{fill:#7FBA00;}
	.st3{fill:#00A4EF;}
	.st4{fill:#FFB900;}
</style>
<g>
	<path class="st0" d="M417.6,51.8v125.4h-21.8V78.8h-0.3l-38.9,98.4h-14.5l-39.8-98.4H302v98.4h-20V51.8h31.4l36,92.9h0.6l38-92.9
		C388,51.8,417.6,51.8,417.6,51.8z M435.6,61.4c0-3.5,1.2-6.4,3.8-8.7c2.6-2.3,5.5-3.5,9-3.5c3.8,0,7,1.2,9.3,3.5
		c2.3,2.3,3.8,5.2,3.8,8.7c0,3.5-1.2,6.4-3.8,8.7c-2.6,2.3-5.5,3.5-9.3,3.5s-6.7-1.2-9-3.5C437,67.5,435.6,64.6,435.6,61.4z
		 M459.1,87.2v90h-21.2v-90C437.9,87.2,459.1,87.2,459.1,87.2z M523.2,161.8c3.2,0,6.7-0.6,10.5-2.3c3.8-1.5,7.3-3.5,10.5-5.8v19.7
		c-3.5,2-7.3,3.5-11.6,4.4c-4.4,0.9-9,1.5-14.2,1.5c-13.4,0-24.1-4.1-32.2-12.5c-8.4-8.4-12.5-19.2-12.5-31.9
		c0-14.5,4.4-26.4,12.8-35.7c8.4-9.3,20.3-13.9,36-13.9c4.1,0,8.1,0.6,11.9,1.5c4.1,0.9,7.3,2.3,9.6,3.5v20.3
		c-3.2-2.3-6.7-4.4-9.9-5.5c-3.5-1.2-7-2-10.5-2c-8.4,0-15.1,2.6-20.3,8.1c-5.2,5.5-7.5,12.8-7.5,22.1c0,9,2.6,16.3,7.5,21.2
		S514.8,161.8,523.2,161.8z M604.2,85.8c1.7,0,3.2,0,4.6,0.3c1.5,0.3,2.6,0.6,3.5,0.9v21.5c-1.2-0.9-2.6-1.7-4.9-2.3
		s-4.6-1.2-7.8-1.2c-5.2,0-9.6,2.3-13.1,6.7s-5.5,11-5.5,20.3v45.3h-21.2v-90H581v14.2h0.3c2-4.9,4.9-8.7,8.7-11.6
		C594.1,87.2,598.7,85.8,604.2,85.8z M613.5,133.7c0-14.8,4.4-26.7,12.5-35.4c8.4-8.7,20-13.1,34.8-13.1c13.9,0,25,4.1,32.8,12.5
		c7.8,8.4,11.9,19.7,11.9,34c0,14.5-4.4,26.1-12.5,34.8c-8.4,8.7-19.7,13.1-34.3,13.1c-13.9,0-25-4.1-33.1-12.2
		C617.6,158.9,613.5,147.6,613.5,133.7z M635.6,132.8c0,9.3,2,16.5,6.4,21.5c4.4,4.9,10.5,7.5,18.3,7.5c7.5,0,13.6-2.3,17.7-7.5
		c4.1-4.9,6.1-12.2,6.1-22.1c0-9.6-2-16.8-6.1-22.1c-4.1-4.9-10.2-7.5-17.4-7.5c-7.8,0-13.6,2.6-18,7.8
		C637.6,116,635.6,123.2,635.6,132.8z M737.2,111c0,2.9,0.9,5.5,2.9,7.3c2,1.7,6.1,3.8,12.8,6.4c8.4,3.5,14.5,7.3,17.7,11.3
		c3.5,4.4,5.2,9.3,5.2,15.4c0,8.4-3.2,15.1-9.9,20.3c-6.4,5.2-15.4,7.5-26.4,7.5c-3.8,0-7.8-0.6-12.5-1.5c-4.6-0.9-8.4-2-11.6-3.5
		v-20.9c3.8,2.6,8.1,4.9,12.5,6.4c4.4,1.5,8.4,2.3,12.2,2.3c4.6,0,8.4-0.6,10.5-2c2.3-1.5,3.5-3.5,3.5-6.7c0-2.9-1.2-5.2-3.5-7.5
		c-2.3-2-7-4.4-13.4-7c-7.8-3.2-13.4-7-16.5-11c-3.2-4.1-4.9-9.3-4.9-15.7c0-8.1,3.2-14.8,9.6-20c6.4-5.2,14.8-7.8,25-7.8
		c3.2,0,6.7,0.3,10.5,1.2s7.3,1.7,9.9,2.6v20.6c-2.9-1.7-6.1-3.5-9.9-4.9c-3.8-1.5-7.5-2-11-2c-4.1,0-7.3,0.9-9.3,2.3
		C738.3,106.1,737.2,108.1,737.2,111z M784.8,133.7c0-14.8,4.4-26.7,12.5-35.4c8.4-8.7,20-13.1,34.8-13.1c13.9,0,25,4.1,32.8,12.5
		c7.8,8.4,11.9,19.7,11.9,34c0,14.5-4.4,26.1-12.5,34.8c-8.4,8.7-19.7,13.1-34.3,13.1c-13.9,0-25-4.1-33.1-12.2
		C789.1,158.9,784.8,147.6,784.8,133.7z M806.8,132.8c0,9.3,2,16.5,6.4,21.5c4.4,4.9,10.5,7.5,18.3,7.5c7.5,0,13.6-2.3,17.7-7.5
		c4.1-4.9,6.1-12.2,6.1-22.1c0-9.6-2-16.8-6.1-22.1c-4.1-4.9-10.2-7.5-17.4-7.5c-7.8,0-13.6,2.6-18,7.8
		C809.2,116,806.8,123.2,806.8,132.8z M947.3,104.6h-31.6v72.6h-21.5v-72.6h-15.1V87.2h15.1V74.7c0-9.3,3.2-17.1,9.3-23.2
		c6.1-6.1,13.9-9,23.5-9c2.6,0,4.9,0.3,7,0.3c2,0,3.8,0.6,5.2,1.2v18.3c-0.6-0.3-2-0.9-3.8-1.5c-1.7-0.6-3.8-0.9-6.1-0.9
		c-4.4,0-7.8,1.5-10.2,4.1c-2.3,2.6-3.5,7-3.5,12.2v10.7h31.6V66.6l21.2-6.4v26.7H990v17.4h-21.5v42.1c0,5.5,1.2,9.3,2.9,11.6
		c2,2.3,5.2,3.5,9.6,3.5c1.2,0,2.6-0.3,4.4-0.9c1.7-0.6,3.2-1.2,4.4-2V176c-1.5,0.9-3.5,1.5-6.7,2c-3.2,0.6-6.1,0.9-9.3,0.9
		c-9,0-15.7-2.3-20-7c-4.4-4.6-6.7-11.9-6.7-21.5L947.3,104.6L947.3,104.6z"/>
	<g>
		<rect x="10" y="10" class="st1" width="99.3" height="99.3"/>
		<rect x="119.7" y="10" class="st2" width="99.3" height="99.3"/>
		<rect x="10" y="119.7" class="st3" width="99.3" height="99.3"/>
		<rect x="119.7" y="119.7" class="st4" width="99.3" height="99.3"/>
	</g>
</g>
</svg>
