<?xml version="1.0" encoding="utf-8"?>
<!-- Generator: Adobe Illustrator 24.0.1, SVG Export Plug-In . SVG Version: 6.00 Build 0)  -->
<svg version="1.1" id="Layer_1" xmlns="http://www.w3.org/2000/svg" xmlns:xlink="http://www.w3.org/1999/xlink" x="0px" y="0px"
	 viewBox="0 0 1000 275.4" style="enable-background:new 0 0 1000 275.4;" xml:space="preserve">
<style type="text/css">
	.st0{fill:#55555A;}
	.st1{fill:#FA6423;}
</style>
<g>
	<path class="st0" d="M10,237.5l15.4-18.4c10.7,8.9,21.7,14.4,35.4,14.4c10.7,0,17.2-4.1,17.2-11.3v-0.4c0-6.5-4.1-10.1-23.9-15
		c-23.9-6.1-39.3-12.6-39.3-36.1v-0.4c0-21.5,17.2-35.7,41.5-35.7c17.2,0,32,5.3,44,15l-13.6,19.6c-10.5-7.3-20.7-11.7-30.8-11.7
		s-15.2,4.5-15.2,10.3v0.4c0,7.7,5.1,10.3,25.5,15.6c24.1,6.3,37.5,14.8,37.5,35.6v0.4c0,23.5-18,36.7-43.5,36.7
		C42.4,256.5,24.2,250.4,10,237.5z"/>
	<path class="st0" d="M119.6,136.4H168c28.2,0,45.2,16.8,45.2,40.9v0.4c0,27.5-21.3,41.7-47.8,41.7h-19.8v35.6h-26.1V136.4z
		 M166.4,196.2c13,0,20.5-7.7,20.5-18v-0.4c0-11.7-8.1-18-21.1-18h-20.1V196h20.7V196.2z"/>
	<path class="st0" d="M250.2,135.6h24.1L325,254.9h-27.3l-10.9-26.5h-50l-10.9,26.5h-26.5L250.2,135.6z M277.6,205.3L261.8,167
		L246,205.3H277.6z"/>
	<path class="st0" d="M337.3,136.4h54.1c15,0,26.7,4.1,34.6,12c6.5,6.5,10.1,15.8,10.1,27.1v0.4c0,19.2-10.3,31.2-25.3,36.7
		l28.8,42.3h-30.4L383.9,217h-20.5v37.9h-26.1L337.3,136.4L337.3,136.4z M389.8,193.9c12.6,0,19.9-6.7,19.9-16.8v-0.4
		c0-11.3-7.7-17-20.5-17h-25.9v34h26.5V193.9z"/>
	<path class="st0" d="M574.5,136.4h42.9c26.1,0,44,13.4,44,36.1v0.4c0,24.9-21.5,37.7-46.2,37.7h-32v44.2h-8.9V136.4H574.5z
		 M615.7,202.6c21.9,0,36.9-11.5,36.9-29v-0.4c0-18.8-14.6-28.6-35.9-28.6h-33.6v58.1C583.1,202.6,615.7,202.6,615.7,202.6z"/>
	<path class="st0" d="M802.4,237.5l5.7-6.5c13,12,25.1,17.6,42.5,17.6c17.8,0,30-10.1,30-23.5v-0.4c0-12.4-6.5-19.8-33.6-25.3
		c-28.4-5.7-39.9-15.4-39.9-33.4v-0.4c0-17.6,16-31.2,38.1-31.2c17.2,0,28.6,4.7,40.7,14.4l-5.5,6.9c-11.3-9.7-22.3-13.4-35.4-13.4
		c-17.4,0-28.8,10.1-28.8,22.3v0.4c0,12.4,6.5,20.1,34.6,25.9c27.5,5.5,38.9,15.4,38.9,32.6v0.4c0,19.2-16.4,32.4-39.3,32.4
		C831,256.5,816.6,250.4,802.4,237.5z"/>
	<path class="st0" d="M940,144.5h-41.3v-8.1H990v8.1h-41.3v110.4h-8.9V144.5H940z"/>
	<path class="st0" d="M479.9,186.2l41.1-49.8h31.8l-48,56.3l51.5,62.2h-33.6L480.1,202v52.9H454V136.4h26.1v49.8H479.9z"/>
	<path class="st1" d="M775.3,109.5c-13.2,9.9-15.8,27.5-16.2,39.3c-20.9-24.1,38.5-95-29-138.8c41.9,54.1-59.4,107.2-59.4,187
		c0,31.2,19.6,58.9,62.4,68.3c42.1-8.9,62.8-37.1,62.8-68.3C795.9,150.4,766.8,134.8,775.3,109.5z M733.2,239.9
		c-22.9,0-41.5-18.6-41.5-41.5s18.6-41.5,41.5-41.5c22.9,0,41.5,18.6,41.5,41.5S756.2,239.9,733.2,239.9z"/>
</g>
</svg>
